<?xml version="1.0" encoding="utf-8"?>
<!-- Generator: Adobe Illustrator 23.0.1, SVG Export Plug-In . SVG Version: 6.00 Build 0)  -->
<svg version="1.1" xmlns="http://www.w3.org/2000/svg" xmlns:xlink="http://www.w3.org/1999/xlink" x="0px" y="0px"
	 viewBox="0 0 2048 2048" style="enable-background:new 0 0 2048 2048;" xml:space="preserve">
<style type="text/css">
	.st0{fill:#BD081C;}
	.st1{fill:none;stroke:#FFFFFF;stroke-width:72.6264;stroke-miterlimit:10;}
	.st2{fill:#FFFFFF;stroke:#FFFFFF;stroke-width:90.783;stroke-miterlimit:10;}
	.st3{fill:#FFFFFF;}
</style>
<g id="Layer_3">
	<rect x="0" y="0" class="st0" width="2048" height="2048"/>
</g>
<g id="Layer_2">
	<g id="big_dipper">
		<g id="trace">
			<polygon class="st1" points="1043.77,1093.25 1427.78,1198.71 1767.09,870.15 1578.49,380.48 			"/>
			<polyline class="st1" points="1043.77,1093.25 832.49,1265.08 555.76,1274.22 280.59,1667.69 			"/>
		</g>
		<g id="dots">
			<circle class="st2" cx="280.58" cy="1667.97" r="54.4"/>
			<circle class="st2" cx="556.17" cy="1273.82" r="54.4"/>
			<circle class="st2" cx="832.49" cy="1265.02" r="54.4"/>
			<circle class="st2" cx="1043.91" cy="1093.99" r="54.4"/>
			<circle class="st2" cx="1428.23" cy="1198.38" r="54.4"/>
			<circle class="st2" cx="1767.58" cy="869.9" r="54.4"/>
			<circle class="st2" cx="1578.56" cy="380.92" r="54.4"/>
		</g>
	</g>
	<g id="stars_1_">
		<polygon class="st3" points="955.92,315.55 976.95,358.15 1023.97,364.99 989.95,398.15 997.98,444.98 955.92,422.87 
			913.86,444.98 921.9,398.15 887.87,364.99 934.89,358.15 		"/>
		<polygon class="st3" points="456.08,614.18 527.34,695.88 635.05,683.49 579.37,776.52 624.44,875.13 518.76,850.92 438.9,924.26 
			429.27,816.26 334.85,762.98 434.57,720.44 		"/>
		<polygon class="st3" points="1458.86,1486.84 1458.32,1576.58 1531.95,1627.9 1446.43,1655.12 1420.38,1741 1368.06,1668.08 
			1278.34,1669.84 1331.52,1597.56 1302.12,1512.76 1387.3,1541 		"/>
	</g>
</g>
</svg>
