<svg xmlns="http://www.w3.org/2000/svg" width="93" height="37" viewBox="0 0 93 37">
    <defs>
        <linearGradient id="a" x1="34.546%" x2="34.546%" y1="0%" y2="104.204%">
            <stop offset="0%" stop-color="#828282"/>
            <stop offset="100%" stop-color="#353535"/>
        </linearGradient>
    </defs>
    <path fill="url(#a)" fill-rule="nonzero" d="M45.668 0c3.869 0 6.92 1.1 9.153 3.302 2.233 2.202 3.35 4.679 3.35 7.431s-1.227 4.742-3.68 5.968v.33c.314.158.778.496 1.391 1.015a9.947 9.947 0 0 1 1.37 1.382l.117.151c1.038 1.321 1.556 2.83 1.556 4.53 0 3.365-1.258 6.14-3.774 8.326-2.516 2.186-5.677 3.28-9.483 3.28-3.774 0-6.92-1.102-9.435-3.303-.944-.85-1.777-1.966-2.5-3.35-.252-.503-.425-.912-.52-1.227l-.094-.472c-.346-1.037-.52-1.887-.52-2.547 0-1.824 1.542-2.736 4.624-2.736 1.259 0 2.092.157 2.5.471.511.39.964 1.153 1.36 2.289l.056.165c.315 1.006 1.18 1.76 2.595 2.264a6.557 6.557 0 0 0 1.982.283c1.667 0 2.893-.338 3.68-1.014.786-.676 1.179-1.44 1.179-2.288 0-.85-.385-1.596-1.156-2.241-.77-.645-1.683-.967-2.736-.967l-.474-.003c-.797-.008-1.355-.039-1.673-.092-.377-.063-.786-.22-1.227-.472-.849-.408-1.273-1.62-1.273-3.632 0-2.202.581-3.507 1.745-3.916.503-.148 1.257-.226 2.262-.235l.191-.001c2.39 0 3.586-.613 3.586-1.84 0-.66-.314-1.29-.944-1.887-.629-.598-1.501-.896-2.618-.896-1.116 0-2.005.188-2.665.566-.661.377-1.07.755-1.227 1.132l-.283.566c-.724 1.573-1.762 2.359-3.114 2.359-.74 0-1.55-.25-2.43-.752l-.165-.097c-1.572-.912-2.359-1.966-2.359-3.161 0-.503.362-1.573 1.085-3.208.126-.283.472-.779 1.038-1.486a10.004 10.004 0 0 1 1.958-1.864c.74-.535 1.777-1.022 3.114-1.463C42.547.22 44.033 0 45.668 0zm42.249.566c.896 0 1.62.079 2.17.236.55.157.96.346 1.226.566.268.22.464.55.59.99.189.504.283 1.306.283 2.407v26.184c0 .755-.023 1.305-.07 1.651-.048.346-.197.755-.449 1.227-.44.85-1.667 1.274-3.68 1.274-1.226 0-2.075-.095-2.547-.283a2.756 2.756 0 0 1-1.18-.897l-8.135-10.82a990.098 990.098 0 0 0-5.83-7.674V30.95c0 .755-.023 1.305-.07 1.651-.047.346-.197.755-.448 1.227-.44.85-1.667 1.274-3.68 1.274-1.95 0-3.146-.425-3.586-1.274-.252-.472-.401-.896-.448-1.274a13.38 13.38 0 0 1-.07-1.487V4.576c0-1.195.148-2.068.447-2.618.3-.55.747-.92 1.345-1.109.597-.189 1.368-.283 2.312-.283.943 0 1.69.087 2.24.26.551.173.936.37 1.156.59.126.094.488.503 1.086 1.226l5.274 7.155c3.775 5.106 6.452 8.681 8.03 10.726V4.576c0-1.195.141-2.06.424-2.595A2.32 2.32 0 0 1 85.676.85c.597-.189 1.344-.283 2.24-.283zM4.293.472l8.728.047c4.56 0 8.57 1.643 12.03 4.93 3.46 3.287 5.19 7.328 5.19 12.125 0 4.796-1.69 8.909-5.072 12.337-3.38 3.428-7.477 5.143-12.29 5.143H4.246c-1.919 0-3.114-.394-3.586-1.18-.377-.66-.566-1.667-.566-3.02V4.625c0-.755.024-1.306.07-1.652.048-.346.197-.755.449-1.226C1.053.896 2.28.472 4.293.472zm8.68 8.398H8.446v17.833h4.576c2.264 0 4.309-.841 6.133-2.524 1.824-1.683 2.736-3.798 2.736-6.346 0-2.547-.888-4.678-2.665-6.392-1.777-1.714-3.86-2.571-6.251-2.571z" transform="translate(0 .339)"/>
</svg>
