<svg height="22" viewBox="0 0 22 22" width="22" xmlns="http://www.w3.org/2000/svg"><path d="m20.825 19.98-4.86-4.86a8.493 8.493 0 0 0 2.093-5.592c0-4.705-3.828-8.528-8.528-8.528-4.705 0-8.528 3.827-8.528 8.528 0 4.7 3.827 8.527 8.528 8.527 2.137 0 4.093-.789 5.592-2.093l4.86 4.86c.116.116.27.178.422.178a.6.6 0 0 0 .421-1.02zm-18.63-10.452c0-4.045 3.29-7.33 7.33-7.33 4.045 0 7.33 3.29 7.33 7.33s-3.285 7.335-7.33 7.335c-4.04 0-7.33-3.29-7.33-7.335z" fill="#ffffff" stroke="#ffffff" stroke-width=".66"/></svg>
