<svg xmlns="http://www.w3.org/2000/svg" width="60" height="49" viewBox="0 0 60 49">
    <g fill="#FFF" fill-rule="nonzero">
        <path d="M50.508 11.046l-8.563 6.968-3.42-4.004a.836.836 0 1 0-1.272 1.087l3.95 4.626a.837.837 0 0 0 1.164.105l9.197-7.483a.836.836 0 1 0-1.056-1.298z"/>
        <path d="M44.463.258c-8.039-.002-14.684 6.266-15.15 14.29H6.217a5.624 5.624 0 0 0-5.57 4.9.834.834 0 0 0-.037.397c-.006.107-.01.214-.01.321v22.401a5.592 5.592 0 0 0 1.296 3.586c.065.125.16.23.278.31a5.604 5.604 0 0 0 4.043 1.722h33.465c1.525 0 2.983-.62 4.039-1.72a.836.836 0 0 0 .28-.311 5.59 5.59 0 0 0 1.298-3.587V30.593c7.982-.436 14.343-7.067 14.343-15.156-.01-8.38-6.8-15.17-15.179-15.18zM6.217 16.222h23.088a15.107 15.107 0 0 0 4.124 9.638c.37.393.76.765 1.17 1.116l-9.401 7.975a3.456 3.456 0 0 1-4.482.001L2.348 19.4a3.95 3.95 0 0 1 3.869-3.178zm0 30.29a3.93 3.93 0 0 1-2.367-.791l10.093-10.324a.838.838 0 0 0-.386-1.404.837.837 0 0 0-.81.234L2.752 44.45a3.922 3.922 0 0 1-.48-1.883V21.528L19.635 36.23a5.123 5.123 0 0 0 6.646-.003l9.679-8.208a14.988 14.988 0 0 0 7.667 2.575v11.974c.001.66-.165 1.31-.483 1.89L33.088 34.226a.836.836 0 0 0-1.193 1.173l10.148 10.325c-.68.512-1.51.788-2.36.788H6.216zm38.246-17.57a13.363 13.363 0 0 1-7.991-2.612 13.702 13.702 0 0 1-1.826-1.619 13.506 13.506 0 1 1 9.817 4.231z"/>
    </g>
</svg>
