<svg xmlns="http://www.w3.org/2000/svg" width="49" height="49" viewBox="0 0 49 49">
    <path fill="#FFF" fill-rule="nonzero" d="M9.971 28.34A6.353 6.353 0 0 0 7.2 27.7a6.407 6.407 0 0 0-6.4 6.4c0 3.529 2.871 6.4 6.4 6.4a6.398 6.398 0 0 0 5.318-2.846l6.046 3.027A6.384 6.384 0 0 0 18.4 42.1c0 3.529 2.871 6.4 6.4 6.4 3.529 0 6.4-2.871 6.4-6.4 0-1.326-.406-2.56-1.1-3.582l8.495-8.883A6.365 6.365 0 0 0 42.4 30.9c3.529 0 6.4-2.871 6.4-6.4 0-3.529-2.871-6.4-6.4-6.4a6.362 6.362 0 0 0-3.918 1.35l-8.632-8.632A6.362 6.362 0 0 0 31.2 6.9c0-3.529-2.871-6.4-6.4-6.4a6.407 6.407 0 0 0-6.4 6.4c0 .486.06.96.163 1.415l-5.673 2.067A6.403 6.403 0 0 0 7.2 6.9a6.407 6.407 0 0 0-6.4 6.4c0 3.529 2.871 6.4 6.4 6.4.91 0 1.775-.194 2.56-.538l2.945 4.956L9.97 28.34zM7.2 38.9a4.805 4.805 0 0 1-4.8-4.8c0-2.647 2.153-4.8 4.8-4.8s4.8 2.153 4.8 4.8-2.153 4.8-4.8 4.8zm6.031-2.68a6.362 6.362 0 0 0 .369-2.12c0-1.962-.89-3.72-2.284-4.894l2.3-3.553 6.938 11.673a6.423 6.423 0 0 0-1.436 1.842l-5.887-2.947zM24.8 13.3a6.362 6.362 0 0 0 3.918-1.35l8.633 8.632a6.371 6.371 0 0 0-1.128 2.272l-5.025-.692c-.001-.02.002-.041.002-.062 0-3.529-2.871-6.4-6.4-6.4a6.397 6.397 0 0 0-5.318 2.846l-.955-.477 3.503-5.409c.839.406 1.776.64 2.77.64zm.8 22.455v-7.311a6.408 6.408 0 0 0 5.378-4.698l5.025.692c0 .02-.003.041-.003.062 0 1.528.54 2.93 1.436 4.032l-8.4 8.783a6.372 6.372 0 0 0-3.436-1.56zM24.8 17.3c2.647 0 4.8 2.153 4.8 4.8s-2.153 4.8-4.8 4.8a4.805 4.805 0 0 1-4.8-4.8c0-2.647 2.153-4.8 4.8-4.8zm-6.031 2.68a6.362 6.362 0 0 0-.369 2.12c0 3.258 2.448 5.949 5.6 6.345v7.311a6.348 6.348 0 0 0-2.126.66l-7.287-12.262 3.065-4.733 1.117.558zM24.8 46.9a4.805 4.805 0 0 1-4.8-4.8c0-2.647 2.153-4.8 4.8-4.8s4.8 2.153 4.8 4.8-2.153 4.8-4.8 4.8zm17.6-27.2c2.647 0 4.8 2.153 4.8 4.8s-2.153 4.8-4.8 4.8a4.805 4.805 0 0 1-4.8-4.8c0-2.647 2.153-4.8 4.8-4.8zM24.8 2.1c2.647 0 4.8 2.153 4.8 4.8s-2.153 4.8-4.8 4.8A4.805 4.805 0 0 1 20 6.9c0-2.647 2.153-4.8 4.8-4.8zm-5.69 7.718c.392.759.927 1.43 1.574 1.976l-3.597 5.555-3.856-1.928A6.362 6.362 0 0 0 13.6 13.3c0-.486-.06-.96-.163-1.415l5.673-2.067zM2.4 13.3c0-2.647 2.153-4.8 4.8-4.8s4.8 2.153 4.8 4.8-2.153 4.8-4.8 4.8a4.805 4.805 0 0 1-4.8-4.8zm8.732 5.04a6.454 6.454 0 0 0 1.386-1.486l3.694 1.847-2.537 3.917-2.543-4.279z"/>
</svg>
