<svg xmlns="http://www.w3.org/2000/svg" width="49" height="49" viewBox="0 0 49 49">
    <g fill="#FFF" fill-rule="nonzero">
        <path d="M24.223 25.489l-.005-.005-1.84-1.832a2.8 2.8 0 0 0 .216-1.056 3.2 3.2 0 0 0-.168-1.008l-1.52.496c.056.165.085.338.088.512-.004.108-.02.216-.048.32a.92.92 0 0 0-.264.168l-4.56 4.568h-4.104a4.8 4.8 0 1 0-7.136 0H4.45a4 4 0 0 0-4 4v5.6a.8.8 0 0 0 .8.8h2.4v9.6a.8.8 0 0 0 .8.8h8a.8.8 0 0 0 .8-.8v-15.2h4.8a.8.8 0 0 0 .568-.232l5.6-5.6a.8.8 0 0 0 .005-1.131zM8.45 21.252a3.2 3.2 0 1 1 0 6.4 3.2 3.2 0 0 1 0-6.4zm9.272 9.6H12.45a.8.8 0 0 0-.8.8v15.2h-2.4v-8.8h-1.6v8.8h-2.4v-15.2h-1.6v4.8h-1.6v-4.8a2.4 2.4 0 0 1 2.4-2.4h12a.8.8 0 0 0 .568-.232l4.232-4.24 1.272 1.272-4.8 4.8zM48.354.732l-.088-.088a.497.497 0 0 0-.136-.088L48.026.5h-.328l-29.6 2.4a.8.8 0 0 0-.688.52.8.8 0 0 0 .184.848l6.056 6.112v8.472a.8.8 0 0 0 .592.8h.208a.8.8 0 0 0 .44-.136l4.208-2.8 3.496 4.992a.8.8 0 0 0 .656.344.8.8 0 0 0 .648-.336l14.4-20a.712.712 0 0 0 .064-.136.608.608 0 0 0 .088-.16v-.144a.91.91 0 0 0 0-.144v-.056-.088a.36.36 0 0 0 0-.088V.86a.489.489 0 0 0-.096-.128zM24.61 9.148l-4.8-4.8 22.24-1.84-6.976 2.64-10.464 4zm.64 1.456L39.546 5.18l-12.304 7.384a.8.8 0 0 0-.288.288l-1.704 2.984v-5.232zm1.6 5.704l.896-1.56.456.656-1.352.904zm6.4 3.56l-4.464-6.4 15.936-9.6-11.472 16zM16.866 6.172c-.488.31-.95.657-1.384 1.04l1.016 1.24a10.54 10.54 0 0 1 1.168-.92l-.8-1.36zM21.034 19.636a5.672 5.672 0 0 0-1.248-.72l-.64 1.464c.325.138.631.315.912.528.072.05.14.105.2.168l1.112-1.152a3.774 3.774 0 0 0-.336-.288zM17.362 18.124l-.672-.216-.528 1.512.752.24.8.232.448-1.536zM14.234 16.612l-.08-.064-1.048 1.208.112.096c.422.348.88.648 1.368.896l.736-1.416a6.586 6.586 0 0 1-1.088-.72zM12.802 14.324l-1.6.24c.099.633.325 1.24.664 1.784l1.384-.824a3.15 3.15 0 0 1-.448-1.2zM14.218 8.356c-.36.36-.68.72-.928 1.024l-.192.24 1.256.992.2-.224c.224-.272.504-.584.8-.912l-1.136-1.12zM12.13 11.028a6.584 6.584 0 0 0-.744 1.648l1.536.44a5.22 5.22 0 0 1 .576-1.288l-1.368-.8z"/>
    </g>
</svg>
