<svg xmlns="http://www.w3.org/2000/svg" width="49" height="49" viewBox="0 0 49 49">
    <g fill="#FFF" fill-rule="nonzero">
        <path d="M20.4 8.5h8v1.6h-8zM20.4 11.7h8v1.6h-8z"/>
        <path d="M44.4 42.1v-6.4a.8.8 0 0 0-.576-.768L25.2 29.5v-9.8h5.6a.8.8 0 0 0 .8-.8V6.1a.798.798 0 0 0-.234-.566l-4.8-4.8A.797.797 0 0 0 26 .5h-8a.8.8 0 0 0-.8.8v17.6a.8.8 0 0 0 .8.8h5.6v9.8L4.976 34.932a.8.8 0 0 0-.576.768v6.4a.8.8 0 0 0 .576.768l19.2 5.6a.79.79 0 0 0 .448 0l19.2-5.6a.8.8 0 0 0 .576-.768zM26.8 3.231L28.869 5.3H26.8V3.231zm-8-1.131h6.4v4a.8.8 0 0 0 .8.8h4v11.2H18.8v-16zm4.8 29.066v4.203l-1.834-1.835-1.132 1.132 3.2 3.2a.798.798 0 0 0 1.132 0l3.2-3.2-1.132-1.132L25.2 35.37v-4.203L40.743 35.7 24.4 40.466 8.057 35.7 23.6 31.166zM6 36.766L23.6 41.9v4.734L6 41.5v-4.734zm19.2 9.868V41.9l17.6-5.134V41.5l-17.6 5.134z"/>
        <path d="M20.4 5.3h3.2v1.6h-3.2zM1.2 19.7h5.6c0 2.206 1.794 4 4 4h2.4c1.323 0 2.4 1.077 2.4 2.4v1.269l-1.834-1.835-1.132 1.132 3.2 3.2a.798.798 0 0 0 1.132 0l3.2-3.2-1.132-1.132L17.2 27.37V26.1c0-2.206-1.794-4-4-4h-2.4a2.403 2.403 0 0 1-2.4-2.4H14a.8.8 0 0 0 .8-.8V6.1a.798.798 0 0 0-.234-.566l-4.8-4.8A.797.797 0 0 0 9.2.5h-8a.8.8 0 0 0-.8.8v17.6a.8.8 0 0 0 .8.8zM10 3.231L12.069 5.3H10V3.231zM2 2.1h6.4v4a.8.8 0 0 0 .8.8h4v11.2H2v-16z"/>
        <path d="M3.6 8.5h8v1.6h-8zM3.6 11.7h8v1.6h-8zM3.6 14.9h8v1.6h-8zM3.6 5.3h3.2v1.6H3.6zM48.4 18.9V6.1a.798.798 0 0 0-.234-.566l-4.8-4.8A.797.797 0 0 0 42.8.5h-8a.8.8 0 0 0-.8.8v17.6a.8.8 0 0 0 .8.8h5.6c0 1.323-1.077 2.4-2.4 2.4h-2.4c-2.206 0-4 1.794-4 4v1.269l-1.834-1.835-1.132 1.132 3.2 3.2a.798.798 0 0 0 1.132 0l3.2-3.2-1.132-1.132L33.2 27.37V26.1c0-1.323 1.077-2.4 2.4-2.4H38c2.206 0 4-1.794 4-4h5.6a.8.8 0 0 0 .8-.8zM43.6 3.231L45.669 5.3H43.6V3.231zm-8 14.869v-16H42v4a.8.8 0 0 0 .8.8h4v11.2H35.6z"/>
        <path d="M37.2 8.5h8v1.6h-8zM37.2 11.7h8v1.6h-8zM37.2 14.9h8v1.6h-8zM37.2 5.3h3.2v1.6h-3.2zM20.4 14.9H22v1.6h-1.6zM23.6 14.9h1.6v1.6h-1.6zM26.8 14.9h1.6v1.6h-1.6z"/>
    </g>
</svg>
