<svg xmlns="http://www.w3.org/2000/svg" width="49" height="49" viewBox="0 0 49 49">
    <g fill="#FFF" fill-rule="nonzero">
        <path d="M47.4 41.3h-.8V16.5c0-2.206-1.794-4-4-4h-4.8v-1.6h-1.6v1.6h-1.6v-2.4H33v2.4h-4.8v-1.6h-1.6v1.6h-4.8V9.3h-1.6v3.2h-4.8v-1.6h-1.6v1.6h-1.6v-2.4h-1.6v2.4h-4c-2.206 0-4 1.794-4 4v24.8H1a.8.8 0 0 0-.8.8v2.4c0 2.206 1.794 4 4 4h40c2.206 0 4-1.794 4-4v-2.4a.8.8 0 0 0-.8-.8zM4.2 16.5c0-1.323 1.077-2.4 2.4-2.4h36c1.323 0 2.4 1.077 2.4 2.4v24.8H29.8a.8.8 0 0 0-.716.442l-.578 1.158h-8.612l-.579-1.158a.799.799 0 0 0-.715-.442H4.2V16.5zm42.4 28c0 1.323-1.077 2.4-2.4 2.4h-40a2.403 2.403 0 0 1-2.4-2.4v-1.6h16.306l.579 1.158a.799.799 0 0 0 .715.442H29a.8.8 0 0 0 .716-.442l.578-1.158H46.6v1.6z"/>
        <path d="M43.4 38.9V16.5a.8.8 0 0 0-.8-.8h-36a.8.8 0 0 0-.8.8v22.4a.8.8 0 0 0 .8.8h36a.8.8 0 0 0 .8-.8zm-1.6-8.331l-2.966 2.965a.798.798 0 0 0-.234.566v4h-2.4v-4.469l2.166-2.165a.798.798 0 0 0 .234-.566v-7.347a2.397 2.397 0 0 0 1.6-2.253 2.397 2.397 0 0 0-1.6-2.253V17.3h3.2v13.269zM16.2 32.5a.8.8 0 1 1 1.602.002.8.8 0 0 1-1.602-.002zm1.6 2.253a2.397 2.397 0 0 0 1.6-2.253c0-1.323-1.077-2.4-2.4-2.4a2.403 2.403 0 0 0-2.4 2.4c0 1.042.671 1.922 1.6 2.253V38.1H13v-7.669l3.766-3.765A.798.798 0 0 0 17 26.1v-8.8h1.6v10.4c0 .212.084.416.234.566L23.4 32.83V38.1h-5.6v-3.347zm6.4-8.653a.8.8 0 1 1 .002-1.602.8.8 0 0 1-.002 1.602zm-.8-3.053a2.397 2.397 0 0 0-1.6 2.253c0 1.042.671 1.922 1.6 2.253v3.016l-3.2-3.2V17.3h3.2v5.747zm1.6 4.506a2.397 2.397 0 0 0 1.6-2.253 2.397 2.397 0 0 0-1.6-2.253V17.3h3.2v1.6c0 .212.084.416.234.566L30.6 21.63v3.016A2.397 2.397 0 0 0 29 26.9c0 1.042.671 1.922 1.6 2.253v1.416l-3.766 3.765a.798.798 0 0 0-.234.566v3.2H25V27.553zm6.4.147a.8.8 0 1 1 .002-1.602.8.8 0 0 1-.002 1.602zm0-7.531l-1.6-1.6V17.3H33v1.269l-1.6 1.6zM28.2 35.23l2.4-2.4V38.1h-2.4v-2.869zm4-6.078a2.397 2.397 0 0 0 1.6-2.253 2.397 2.397 0 0 0-1.6-2.253v-3.016l2.166-2.165a.798.798 0 0 0 .234-.566v-1.6H37v1.747a2.397 2.397 0 0 0-1.6 2.253c0 1.042.671 1.922 1.6 2.253v7.016l-2.166 2.165a.798.798 0 0 0-.234.566v4.8h-2.4v-8.947zm5.6-7.053a.8.8 0 1 1 .002-1.602.8.8 0 0 1-.002 1.602zm-26.4 0a.8.8 0 1 1 .002-1.602.8.8 0 0 1-.002 1.602zm-.8-4.8v1.747A2.397 2.397 0 0 0 9 21.3c0 1.042.671 1.922 1.6 2.253v1.416l-3.2 3.2V17.3h3.2zM7.4 30.431l4.566-4.565a.798.798 0 0 0 .234-.566v-1.747a2.397 2.397 0 0 0 1.6-2.253 2.397 2.397 0 0 0-1.6-2.253V17.3h3.2v8.469l-3.766 3.765a.798.798 0 0 0-.234.566v8h-4v-7.669zM40.2 38.1v-3.669l1.6-1.6V38.1h-1.6zM23.4 9.3H25v1.6h-1.6zM23.4 3.7H25v4h-1.6zM23.4.5H25v1.6h-1.6zM26.6 7.7h1.6v1.6h-1.6zM26.6.5h1.6v5.6h-1.6zM36.2 7.7h1.6v1.6h-1.6zM36.2.5h1.6v5.6h-1.6zM13.8 7.7h1.6v1.6h-1.6zM13.8.5h1.6v2.4h-1.6zM29.8 6.9h1.6v4h-1.6zM29.8 3.7h1.6v1.6h-1.6zM29.8.5h1.6v1.6h-1.6zM17 .5h1.6v2.4H17zM17 4.5h1.6v1.6H17zM17 7.7h1.6v3.2H17zM20.2.5h1.6v4h-1.6zM20.2 6.1h1.6v1.6h-1.6zM13.8 4.5h1.6v1.6h-1.6zM33 .5h1.6v8H33zM10.6.5h1.6v8h-1.6z"/>
    </g>
</svg>
