<svg xmlns="http://www.w3.org/2000/svg" width="48" height="49" viewBox="0 0 48 49">
    <g fill="#FFF" fill-rule="nonzero">
        <path d="M43.268 9H32.451V1.272a.773.773 0 0 0-1.319-.547l-1.098 1.098L28.244.63a.772.772 0 0 0-.857 0l-1.889 1.26-1.89-1.26a.772.772 0 0 0-.856 0l-1.889 1.26L18.974.63a.772.772 0 0 0-.857 0l-1.89 1.26L14.338.63a.772.772 0 0 0-.857 0l-1.889 1.26L9.704.63a.772.772 0 0 0-.857 0L6.958 1.89 5.068.63a.772.772 0 0 0-.857 0L2.417 1.824 1.319.727A.774.774 0 0 0 0 1.273v42.495a4.64 4.64 0 0 0 4.636 4.636h30.906a4.64 4.64 0 0 0 4.636-4.636V31.11l1.972.986a.77.77 0 0 0 .774-.048l1.89-1.259 1.888 1.26a.773.773 0 0 0 1.2-.643l.001-17.771a4.64 4.64 0 0 0-4.635-4.636zM4.636 46.857a3.094 3.094 0 0 1-3.09-3.09V3.138l.226.226c.26.26.67.3.975.097L4.636 2.2l1.89 1.26c.259.173.597.173.856 0l1.89-1.26 1.888 1.26c.26.173.597.173.857 0l1.889-1.26 1.889 1.26c.26.173.598.173.857 0l1.89-1.26 1.889 1.26c.26.173.597.173.856 0l1.889-1.26 1.89 1.26c.26.173.597.173.856 0l1.89-1.26 1.888 1.26a.774.774 0 0 0 .975-.096l.227-.227v40.63c0 .28.03.553.077.82.004.022.006.046.011.068.05.254.122.497.211.734.012.032.022.064.035.095.092.23.201.447.327.656l.06.098c.128.203.272.395.43.575.011.014.02.03.032.044H4.636zm35.147-36.27a4.689 4.689 0 0 0-.817 1.329l-.035.095c-.089.236-.161.48-.21.734-.005.022-.007.045-.011.068-.048.267-.078.54-.078.82v30.134a3.094 3.094 0 0 1-3.09 3.09 3.094 3.094 0 0 1-3.09-3.09V10.544h7.363c-.012.014-.02.03-.032.044zm6.576 19.374l-1.117-.744a.772.772 0 0 0-.857 0l-1.945 1.296-2.262-1.131V13.635a3.094 3.094 0 0 1 3.09-3.09 3.094 3.094 0 0 1 3.09 3.09v16.327z"/>
        <path d="M16.226 5.136a5.415 5.415 0 0 0-5.409 5.408 5.415 5.415 0 0 0 5.409 5.409 5.415 5.415 0 0 0 5.408-5.409 5.415 5.415 0 0 0-5.408-5.408zm0 9.272a3.868 3.868 0 0 1-3.863-3.864 3.868 3.868 0 0 1 3.863-3.863 3.868 3.868 0 0 1 3.863 3.863 3.868 3.868 0 0 1-3.863 3.864zM10.817 17.498h11.59v1.545h-11.59zM9.272 20.589h14.68v1.545H9.272zM4.636 25.997h13.907v1.545H4.636zM24.725 25.997h3.091v1.545h-3.091zM4.636 29.86h13.907v1.545H4.636zM24.725 29.86h3.091v1.545h-3.091zM4.636 33.724h13.907v1.545H4.636zM24.725 33.724h3.091v1.545h-3.091zM4.636 37.587h13.907v1.545H4.636zM24.725 37.587h3.091v1.545h-3.091zM4.636 41.45h13.907v1.545H4.636zM24.725 41.45h3.091v1.545h-3.091z"/>
    </g>
</svg>
