<svg width="20" height="20" viewBox="0 0 20 20" fill="none" xmlns="http://www.w3.org/2000/svg">
<path d="M10 19.994C15.5228 19.994 20 15.5197 20 10.0005C20 4.48129 15.5228 0.00708008 10 0.00708008C4.47715 0.00708008 0 4.48129 0 10.0005C0 15.5197 4.47715 19.994 10 19.994Z" fill="#CA47EB"/>
<path d="M14.3101 8.39783C14.2846 8.35294 14.2477 8.31561 14.2031 8.28963C14.1586 8.26365 14.1079 8.24996 14.0563 8.24996H10.2355L10.876 3.35557C10.8829 3.29007 10.8675 3.22416 10.8324 3.16845C10.7973 3.11275 10.7444 3.07049 10.6823 3.04848C10.6202 3.02647 10.5526 3.02599 10.4902 3.04712C10.4278 3.06825 10.3744 3.10976 10.3384 3.16497L5.69189 11.3055C5.66471 11.3497 5.64982 11.4004 5.64874 11.4522C5.64767 11.5041 5.66044 11.5553 5.68576 11.6006C5.71107 11.6459 5.748 11.6836 5.79275 11.7099C5.8375 11.7361 5.88843 11.75 5.94031 11.75H9.70405L9.19641 16.6517C9.19142 16.717 9.2084 16.7821 9.24466 16.8366C9.28092 16.8911 9.33437 16.9319 9.3965 16.9525C9.45863 16.9732 9.52588 16.9724 9.58754 16.9504C9.6492 16.9284 9.70174 16.8865 9.73679 16.8312L14.3066 8.69147C14.3331 8.64721 14.3473 8.59671 14.348 8.54512C14.3486 8.49354 14.3355 8.44271 14.3101 8.39783Z" fill="white"/>
</svg>
