<svg width="50" height="50" viewBox="0 0 50 50" fill="none" xmlns="http://www.w3.org/2000/svg">
<circle cx="25" cy="25" r="25" fill="#EBEDFF"/>
<g clip-path="url(#clip0)">
<path d="M38.8123 16.6194L25.1912 10.0437C25.0704 9.98541 24.9298 9.98541 24.8091 10.0437L11.1878 16.6194C11.036 16.6927 10.9395 16.8465 10.9395 17.0151V32.9848C10.9395 33.1534 11.036 33.3072 11.1878 33.3805L24.809 39.9563C24.8694 39.9854 24.9347 40 25.0001 40C25.0654 40 25.1307 39.9854 25.1912 39.9563L38.8123 33.3805C38.9642 33.3072 39.0607 33.1534 39.0607 32.9848V17.0152C39.0607 16.8464 38.9641 16.6928 38.8123 16.6194ZM25.0001 10.9274L37.6104 17.0151L33.955 18.7799C33.9318 18.7622 33.9074 18.7459 33.8805 18.733L21.3558 12.6867L25.0001 10.9274ZM20.3634 13.1836L32.9554 19.2624L30.3764 20.5075L17.7896 14.4311L20.3634 13.1836ZM33.25 20.0961V24.6984L30.8411 25.8614V21.2591L33.25 20.0961ZM38.1818 32.7091L25.4395 38.8603V23.8667L28.479 22.3994C28.6975 22.2938 28.7892 22.0312 28.6836 21.8126C28.5781 21.5941 28.3154 21.5023 28.0968 21.6079L25.0001 23.1029L23.7816 22.5146C23.5629 22.409 23.3003 22.5007 23.1947 22.7193C23.0892 22.9379 23.1809 23.2006 23.3994 23.3061L24.5606 23.8667V38.8603L11.8184 32.7089V17.7153L21.5215 22.3995C21.5831 22.4293 21.6482 22.4434 21.7122 22.4434C21.8756 22.4434 22.0325 22.3519 22.1082 22.1949C22.2138 21.9763 22.1221 21.7136 21.9036 21.6081L12.3897 17.0151L16.7552 14.9076L29.9561 21.2805C29.958 21.2832 29.9602 21.2856 29.9621 21.2882V26.5616C29.9621 26.7128 30.0399 26.8534 30.168 26.9338C30.2391 26.9785 30.3203 27.001 30.4017 27.001C30.4668 27.001 30.5321 26.9866 30.5927 26.9573L33.8805 25.3701C34.0324 25.2968 34.1289 25.143 34.1289 24.9743V19.6719L38.1818 17.7153V32.7091Z" fill="#5269FF"/>
<path d="M15.4448 31.0046L13.4459 30.0397C13.2272 29.934 12.9646 30.0258 12.8591 30.2443C12.7535 30.4629 12.8452 30.7256 13.0637 30.8311L15.0627 31.7961C15.1242 31.8259 15.1893 31.8399 15.2534 31.8399C15.4167 31.8399 15.5736 31.7484 15.6494 31.5914C15.755 31.3728 15.6634 31.1102 15.4448 31.0046Z" fill="#243CDB"/>
<path d="M17.2846 29.8071L13.4488 27.9553C13.2302 27.8498 12.9675 27.9414 12.862 28.16C12.7565 28.3786 12.8481 28.6413 13.0667 28.7469L16.9025 30.5987C16.9641 30.6284 17.0292 30.6425 17.0932 30.6425C17.2566 30.6425 17.4135 30.551 17.4893 30.394C17.5948 30.1753 17.5032 29.9126 17.2846 29.8071Z" fill="#243CDB"/>
</g>
<defs>
<clipPath id="clip0">
<rect x="10" y="10" width="30" height="30" fill="white"/>
</clipPath>
</defs>
</svg>
