<svg width="20" height="20" viewBox="0 0 20 20" fill="none" xmlns="http://www.w3.org/2000/svg">
<g clip-path="url(#clip0)">
<path d="M4.66675 20H16.6668C17.5868 19.9989 18.3323 19.2534 18.3334 18.3333V3C18.332 2.19737 17.7587 1.50976 16.9694 1.364C16.8237 0.574715 16.136 0.00142288 15.3334 0H6.33342C6.24502 1.888e-05 6.16025 0.0351502 6.09775 0.0976667L1.76441 4.431C1.7019 4.4935 1.66677 4.57827 1.66675 4.66667V17C1.66817 17.8026 2.24146 18.4902 3.03075 18.636C3.1765 19.4253 3.86412 19.9986 4.66675 20ZM17.6668 3V18.3333C17.6668 18.8856 17.219 19.3333 16.6668 19.3333H4.66675C4.24449 19.3316 3.86883 19.0648 3.72808 18.6667H15.3334C16.2534 18.6656 16.999 17.92 17.0001 17V2.06133C17.3982 2.20209 17.665 2.57774 17.6668 3ZM6.00008 1.138V3.33333C6.00008 3.88562 5.55237 4.33333 5.00008 4.33333H2.80475L6.00008 1.138ZM2.33341 17V5H5.00008C5.9201 4.9989 6.66565 4.25335 6.66675 3.33333V0.666667H15.3334C15.8857 0.666667 16.3334 1.11438 16.3334 1.66667V17C16.3334 17.5523 15.8857 18 15.3334 18H3.33342C2.78113 18 2.33341 17.5523 2.33341 17Z" fill="#555555"/>
<path d="M11.3333 1.99992H13.3333C13.5174 1.99992 13.6667 1.85068 13.6667 1.66659C13.6667 1.48249 13.5174 1.33325 13.3333 1.33325H11.3333C11.1492 1.33325 11 1.48249 11 1.66659C11 1.85068 11.1492 1.99992 11.3333 1.99992Z" fill="#555555"/>
<path d="M14.6668 1.99992H15.3335C15.5176 1.99992 15.6668 1.85068 15.6668 1.66659C15.6668 1.48249 15.5176 1.33325 15.3335 1.33325H14.6668C14.4827 1.33325 14.3335 1.48249 14.3335 1.66659C14.3335 1.85068 14.4827 1.99992 14.6668 1.99992Z" fill="#555555"/>
<path d="M5.0002 8.33325C5.38187 8.33325 5.66687 8.52659 5.66687 8.69992V9.63325C5.66687 10.2129 6.25254 10.6666 7.0002 10.6666C7.1843 10.6666 7.33354 10.5173 7.33354 10.3333C7.33354 10.1492 7.1843 9.99992 7.0002 9.99992C6.61854 9.99992 6.33354 9.80659 6.33354 9.63325V8.69992C6.32745 8.4259 6.19889 8.16903 5.9832 7.99992C6.19889 7.83081 6.32745 7.57394 6.33354 7.29992V6.36659C6.33354 6.19325 6.61854 5.99992 7.0002 5.99992C7.1843 5.99992 7.33354 5.85068 7.33354 5.66659C7.33354 5.48249 7.1843 5.33325 7.0002 5.33325C6.25254 5.33325 5.66687 5.78692 5.66687 6.36659V7.29992C5.66687 7.47325 5.38187 7.66659 5.0002 7.66659C4.81611 7.66659 4.66687 7.81582 4.66687 7.99992C4.66687 8.18401 4.81611 8.33325 5.0002 8.33325Z" fill="#555555"/>
<path d="M13.6668 6.36659C13.6668 5.78692 13.0811 5.33325 12.3335 5.33325C12.1494 5.33325 12.0001 5.48249 12.0001 5.66659C12.0001 5.85068 12.1494 5.99992 12.3335 5.99992C12.7151 5.99992 13.0001 6.19325 13.0001 6.36659V7.29992C13.0062 7.57394 13.1348 7.83081 13.3505 7.99992C13.1348 8.16903 13.0062 8.4259 13.0001 8.69992V9.63325C13.0001 9.80659 12.7151 9.99992 12.3335 9.99992C12.1494 9.99992 12.0001 10.1492 12.0001 10.3333C12.0001 10.5173 12.1494 10.6666 12.3335 10.6666C13.0811 10.6666 13.6668 10.2129 13.6668 9.63325V8.69992C13.6668 8.52659 13.9518 8.33325 14.3335 8.33325C14.5176 8.33325 14.6668 8.18401 14.6668 7.99992C14.6668 7.81582 14.5176 7.66659 14.3335 7.66659C13.9518 7.66659 13.6668 7.47325 13.6668 7.29992V6.36659Z" fill="#555555"/>
<path d="M8.33346 9.33341C8.51755 9.33341 8.66679 9.18418 8.66679 9.00008C8.66679 8.81599 8.51755 8.66675 8.33346 8.66675C8.14936 8.66675 8.00012 8.81599 8.00012 9.00008C8.00012 9.18418 8.14936 9.33341 8.33346 9.33341Z" fill="#555555"/>
<path d="M9.66683 9.33341C9.85092 9.33341 10.0002 9.18418 10.0002 9.00008C10.0002 8.81599 9.85092 8.66675 9.66683 8.66675C9.48273 8.66675 9.3335 8.81599 9.3335 9.00008C9.3335 9.18418 9.48273 9.33341 9.66683 9.33341Z" fill="#555555"/>
<path d="M11.0001 9.33341C11.1842 9.33341 11.3334 9.18418 11.3334 9.00008C11.3334 8.81599 11.1842 8.66675 11.0001 8.66675C10.816 8.66675 10.6667 8.81599 10.6667 9.00008C10.6667 9.18418 10.816 9.33341 11.0001 9.33341Z" fill="#555555"/>
<path d="M3.66683 12.9999H4.00016C4.18426 12.9999 4.3335 12.8507 4.3335 12.6666C4.3335 12.4825 4.18426 12.3333 4.00016 12.3333H3.66683C3.48273 12.3333 3.3335 12.4825 3.3335 12.6666C3.3335 12.8507 3.48273 12.9999 3.66683 12.9999Z" fill="#555555"/>
<path d="M5.33333 12.9999H8.33333C8.51743 12.9999 8.66667 12.8507 8.66667 12.6666C8.66667 12.4825 8.51743 12.3333 8.33333 12.3333H5.33333C5.14924 12.3333 5 12.4825 5 12.6666C5 12.8507 5.14924 12.9999 5.33333 12.9999Z" fill="#555555"/>
<path d="M15.0002 12.3333H10.0002C9.81611 12.3333 9.66687 12.4825 9.66687 12.6666C9.66687 12.8507 9.81611 12.9999 10.0002 12.9999H15.0002C15.1843 12.9999 15.3335 12.8507 15.3335 12.6666C15.3335 12.4825 15.1843 12.3333 15.0002 12.3333Z" fill="#555555"/>
<path d="M3.66683 14.6667H4.00016C4.18426 14.6667 4.3335 14.5174 4.3335 14.3333C4.3335 14.1492 4.18426 14 4.00016 14H3.66683C3.48273 14 3.3335 14.1492 3.3335 14.3333C3.3335 14.5174 3.48273 14.6667 3.66683 14.6667Z" fill="#555555"/>
<path d="M15.0001 14H12.0001C11.816 14 11.6667 14.1492 11.6667 14.3333C11.6667 14.5174 11.816 14.6667 12.0001 14.6667H15.0001C15.1842 14.6667 15.3334 14.5174 15.3334 14.3333C15.3334 14.1492 15.1842 14 15.0001 14Z" fill="#555555"/>
<path d="M5.33333 14.6667H10.3333C10.5174 14.6667 10.6667 14.5174 10.6667 14.3333C10.6667 14.1492 10.5174 14 10.3333 14H5.33333C5.14924 14 5 14.1492 5 14.3333C5 14.5174 5.14924 14.6667 5.33333 14.6667Z" fill="#555555"/>
<path d="M3.66683 16.3334H4.00016C4.18426 16.3334 4.3335 16.1842 4.3335 16.0001C4.3335 15.816 4.18426 15.6667 4.00016 15.6667H3.66683C3.48273 15.6667 3.3335 15.816 3.3335 16.0001C3.3335 16.1842 3.48273 16.3334 3.66683 16.3334Z" fill="#555555"/>
<path d="M8.33333 15.6667H5.33333C5.14924 15.6667 5 15.816 5 16.0001C5 16.1842 5.14924 16.3334 5.33333 16.3334H8.33333C8.51743 16.3334 8.66667 16.1842 8.66667 16.0001C8.66667 15.816 8.51743 15.6667 8.33333 15.6667Z" fill="#555555"/>
<path d="M15.0002 15.6667H10.0002C9.81611 15.6667 9.66687 15.816 9.66687 16.0001C9.66687 16.1842 9.81611 16.3334 10.0002 16.3334H15.0002C15.1843 16.3334 15.3335 16.1842 15.3335 16.0001C15.3335 15.816 15.1843 15.6667 15.0002 15.6667Z" fill="#555555"/>
</g>
<defs>
<clipPath id="clip0">
<rect width="20" height="20" fill="white"/>
</clipPath>
</defs>
</svg>
