<?xml version="1.0" encoding="UTF-8"?>
<svg width="398px" height="398px" viewBox="0 0 398 398" version="1.1" xmlns="http://www.w3.org/2000/svg" xmlns:xlink="http://www.w3.org/1999/xlink">
    <title>CoinGecko Logo</title>
    <g id="Page-1" stroke="none" stroke-width="1" fill="none" fill-rule="evenodd">
        <g id="CoinGecko-Logo" fill-rule="nonzero">
            <path d="M397.441957,197.841591 C397.924031,307.590039 309.348113,396.951332 199.599668,397.438075 C89.8512238,397.920857 0.48935434,309.345522 0.00189084488,199.59708 C-0.48160031,89.8486384 88.0931531,0.486192115 197.841591,-0.00195269019 L197.841591,-0.00195269019 C250.545566,-0.233481743 301.183617,20.4794375 338.615688,57.5820442 C376.04776,94.6846509 397.207531,145.137613 397.441957,197.841591 Z" id="Path" fill="#5571F7"></path>
            <path d="M382.538229,197.913591 C382.90217,272.253846 338.447182,339.493409 269.90322,368.274177 C201.359257,397.054946 122.22723,381.708054 69.4114571,329.390738 C16.5956842,277.073421 0.499138703,198.090474 28.6286679,129.276688 C56.7581971,60.4629029 123.573207,15.3723362 197.913591,15.0317818 L197.913591,15.0317818 C299.382391,14.5871413 382.020277,96.4451199 382.538229,197.913591 Z" id="Path" fill="#FFFFFF"></path>
            <path d="M202.103991,26.8703988 C213.787085,24.7966902 225.744096,24.7966902 237.42719,26.8703988 C249.222817,28.7405764 260.624972,32.5607606 271.166388,38.1743984 C281.649588,43.9343981 290.707187,51.7535978 299.721587,59.0831975 C308.735987,66.4127971 317.707186,73.9151968 326.246386,82.1231965 C334.963984,90.202599 342.571151,99.4028649 348.868785,109.483195 C355.351572,119.484428 360.666278,130.195977 364.708784,141.407994 C372.383984,163.958393 375.047984,188.251192 371.217584,211.420791 L370.079984,211.420791 C366.235184,188.452792 361.022384,166.564793 352.799985,145.742394 C348.940108,135.275874 344.399199,125.07326 339.206385,115.199995 C333.790379,105.271738 327.819318,95.6565021 321.321586,86.3999963 C314.71592,77.0758397 306.620506,68.9025853 297.359987,62.2079973 C288.028788,55.5551976 277.300788,51.2495978 266.918389,47.159998 C256.535989,43.0703981 246.239989,38.8799983 235.41119,35.7695985 C224.58239,32.6591986 213.580791,30.3263987 202.089591,28.0655988 L202.103991,26.8703988 Z" id="Path" fill="#FFFFFF"></path>
            <path d="M291.945587,133.041594 C278.611188,129.182394 264.787189,123.710395 250.790389,118.180795 C249.983989,114.667195 246.873589,110.289595 240.58079,104.947195 C231.43679,97.0127958 214.257591,97.2143958 199.411191,100.727996 C183.023992,96.8687958 166.838393,95.5007959 151.300793,99.2879957 C24.220799,134.294394 96.2783959,219.700791 49.6223979,305.553587 C56.2607976,319.636786 127.814394,401.803183 231.35039,379.756784 C231.35039,379.756784 195.940792,294.667187 275.846388,253.828789 C340.660785,220.579191 387.489583,159.062393 291.945587,133.041594 Z" id="Path" fill="#5571F7"></path>
            <path d="M307.64171,188.927992 C307.665378,193.182695 304.23557,196.651113 299.980866,196.675072 C295.726163,196.698785 292.25771,193.269013 292.233705,189.01431 C292.209949,184.759607 295.639684,181.291117 299.894387,181.267136 C304.145974,181.25121 307.609888,184.676494 307.64171,188.927992 L307.64171,188.927992 Z" id="Path" fill="#FFFFFF"></path>
            <path d="M199.411191,100.670396 C208.670391,101.332796 242.15039,112.190395 250.790389,118.123195 C243.59039,97.2431958 219.355191,94.4639959 199.411191,100.670396 Z" id="Path" fill="#5571F7"></path>
            <path d="M208.223994,153.475193 C208.231942,173.102948 192.326949,189.020834 172.699195,189.028789 C153.07144,189.036738 137.153553,173.131746 137.145597,153.503991 C137.137646,133.876236 153.042638,117.958349 172.670393,117.950395 L172.670393,117.950395 C192.286908,117.950395 208.193694,133.844284 208.209591,153.460793 L208.223994,153.475193 Z" id="Path" fill="#FFFFFF"></path>
            <path d="M197.683191,153.791993 C197.683191,167.598228 186.491027,178.790392 172.684793,178.790392 C158.878558,178.790392 147.686394,167.598228 147.686394,153.791993 C147.686394,139.985759 158.878558,128.793594 172.684793,128.793594 L172.684793,128.793594 C186.491027,128.793594 197.683191,139.985759 197.683191,153.791993 Z" id="Path" fill="#5571F7"></path>
            <path d="M336.427186,204.595191 C307.627187,224.88479 274.881588,240.27839 228.42719,240.27839 C206.683191,240.27839 202.276791,217.238391 187.905592,228.49919 C180.489592,234.34559 154.339193,247.420789 133.588794,246.427189 C112.838395,245.433589 79.1999966,233.27999 69.825597,188.971192 C66.1103972,233.27999 64.2095972,265.895989 47.519998,303.292787 C80.6399965,356.327985 159.609593,397.238383 231.29279,379.612784 C223.64639,325.828786 270.719988,273.153588 297.129587,246.239989 C307.209587,236.03039 326.361586,219.369591 336.427186,204.609591 L336.427186,204.595191 Z" id="Path" fill="#5571F7"></path>
            <path d="M335.303986,205.919991 C326.361586,214.070391 315.719986,220.103991 304.891187,225.43199 C293.928255,230.631123 282.502327,234.791704 270.763188,237.85919 C259.012789,240.89759 246.758389,243.18719 234.34559,242.06399 C221.93279,240.94079 209.246391,236.72159 201.023991,227.41919 L201.412791,226.97279 C211.492791,233.51039 223.12799,235.81439 234.70559,236.14559 C246.440822,236.506195 258.179235,235.540071 269.697588,233.26559 C281.332681,230.826691 292.714817,227.307437 303.695987,222.75359 C314.683186,218.217591 325.555186,212.961591 334.915186,205.473591 L335.303986,205.919991 Z" id="Path" fill="#FFFFFF"></path>
        </g>
    </g>
</svg>