<svg width="147" height="149" viewBox="0 0 147 149" fill="none" xmlns="http://www.w3.org/2000/svg">
<path d="M127.858 89.0824C125.255 90.6706 122.217 90.9593 119.903 89.6599C117.011 87.9273 115.275 84.0291 115.275 78.687V62.3721C115.275 54.5756 112.238 48.9448 107.031 47.501C98.2078 44.9021 91.5546 55.7306 89.0958 59.7732L73.4751 84.751V53.998C73.3305 46.9234 71.0163 42.7364 66.6772 41.437C63.7845 40.5707 59.4454 41.0039 55.251 47.3566L20.3937 103.087C15.7653 94.28 13.3065 84.4622 13.3065 74.5C13.3065 40.8595 40.3534 13.5717 73.4751 13.5717C106.597 13.5717 133.644 40.8595 133.644 74.5V74.6444V74.7888C133.933 81.2859 131.908 86.4835 127.858 89.0824ZM146.95 74.5V74.3556V74.2112C146.806 33.3517 113.829 0 73.4751 0C32.977 0 0 33.3517 0 74.5C0 115.504 32.977 149 73.4751 149C92.1331 149 109.779 141.925 123.375 129.076C126.123 126.477 126.267 122.29 123.664 119.547C121.205 116.803 117.011 116.659 114.262 119.113C114.262 119.113 114.262 119.113 114.118 119.258C103.125 129.653 88.3726 135.573 73.1858 135.573C55.3956 135.573 39.4856 127.776 28.4933 115.359L59.8793 65.1153V88.3605C59.8793 99.4777 64.2184 103.087 67.8343 104.098C71.4502 105.109 76.9464 104.387 82.8764 95.002L100.088 67.1366C100.667 66.2703 101.101 65.4041 101.679 64.8265V78.9758C101.679 89.3711 105.874 97.7451 113.105 101.788C119.614 105.542 127.858 105.109 134.656 100.921C143.045 95.4351 147.529 85.906 146.95 74.5Z" fill="#5269FF"/>
</svg>
