<svg width="10" height="11" viewBox="0 0 10 11" fill="none" xmlns="http://www.w3.org/2000/svg">
<g clip-path="url(#clip0)">
<path d="M9.22858 1.282C8.20008 0.253504 6.52682 0.253504 5.4983 1.282L3.96571 2.8146C3.69827 3.08204 3.48157 3.42325 3.3419 3.83983C3.33955 3.84061 3.33729 3.8418 3.33494 3.84258C3.01729 4.79819 3.25821 5.83735 3.96571 6.54485C4.17709 6.75624 4.4258 6.9303 4.69518 7.05879L4.79465 6.95932C5.13868 6.6153 5.13868 6.05993 4.79465 5.71589C4.22268 5.14391 4.22268 4.21548 4.79465 3.64352L6.32725 2.11093C6.89922 1.53895 7.82764 1.53895 8.39961 2.11093C8.97159 2.6829 8.97159 3.61132 8.39961 4.18329L7.2359 5.347C7.39108 5.82678 7.42395 6.33485 7.34885 6.82936C7.47141 6.74393 7.58934 6.65147 7.69596 6.54485L9.22856 5.01225C10.2571 3.98376 10.2571 2.31048 9.22858 1.282Z" fill="#1D7C73"/>
<path d="M6.03812 4.47249C5.82673 4.26111 5.57806 4.08702 5.30452 3.96267L5.20917 4.05802C4.86517 4.40202 4.86515 4.95742 5.20917 5.30146C5.78114 5.87343 5.78114 6.80187 5.20917 7.37382C4.72503 7.85796 4.13436 8.44872 3.67276 8.91033C3.10079 9.4823 2.17237 9.4823 1.6004 8.91033C1.02843 8.33835 1.02843 7.40994 1.6004 6.83796L2.76792 5.67035C2.61274 5.19056 2.57989 4.68247 2.65499 4.18796C2.53241 4.27343 2.41448 4.36587 2.30784 4.47249L0.771433 6.009C-0.257063 7.03749 -0.257063 8.71076 0.771433 9.73927C1.79993 10.7678 3.47319 10.7678 4.50171 9.73927L6.03812 8.20277C6.30556 7.93531 6.52226 7.59411 6.66192 7.17753C6.66427 7.17675 6.66653 7.17556 6.66888 7.17478C6.98653 6.21915 6.74562 5.17999 6.03812 4.47249Z" fill="#1D7C73"/>
</g>
<defs>
<clipPath id="clip0">
<rect y="0.510635" width="10" height="10" fill="white"/>
</clipPath>
</defs>
</svg>
