<svg width="13" height="15" viewBox="0 0 13 15" fill="none" xmlns="http://www.w3.org/2000/svg">
<path d="M8.17401 15H2.41299C1.08243 15 0 13.9486 0 12.6562V4.7168C0 3.42442 1.08243 2.37305 2.41299 2.37305H8.17401C9.50458 2.37305 10.587 3.42442 10.587 4.7168V12.6562C10.587 13.9486 9.50458 15 8.17401 15ZM2.41299 3.54492C1.74777 3.54492 1.2065 4.07066 1.2065 4.7168V12.6562C1.2065 13.3024 1.74777 13.8281 2.41299 13.8281H8.17401C8.83924 13.8281 9.38051 13.3024 9.38051 12.6562V4.7168C9.38051 4.07066 8.83924 3.54492 8.17401 3.54492H2.41299ZM13 11.1914V2.34375C13 1.05137 11.9176 0 10.587 0H3.89095C3.55775 0 3.2877 0.262299 3.2877 0.585938C3.2877 0.909576 3.55775 1.17188 3.89095 1.17188H10.587C11.2522 1.17188 11.7935 1.69762 11.7935 2.34375V11.1914C11.7935 11.515 12.0636 11.7773 12.3968 11.7773C12.73 11.7773 13 11.515 13 11.1914Z" fill="#475DEB"/>
</svg>
