<svg width="30" height="20" viewBox="0 0 30 20" fill="none" xmlns="http://www.w3.org/2000/svg">
<g clip-path="url(#clip0)">
<path d="M14.2744 19.9744C13.8955 19.9448 13.3743 19.8708 13.1197 19.8115C13.022 19.7908 12.9006 19.7701 12.8473 19.7701C12.7378 19.7701 12.1515 19.6043 11.7133 19.4474C11.5416 19.3852 11.3491 19.3171 11.284 19.2964C11.2189 19.2756 10.9613 19.1572 10.7066 19.0358C10.3158 18.8463 10.1411 18.7486 9.65554 18.4584C9.50158 18.3667 9.23511 18.186 9.19661 18.1446C9.17293 18.1209 9.08114 18.0558 8.98936 17.9995C8.90053 17.9403 8.80578 17.8722 8.7821 17.8426C8.75841 17.8159 8.65774 17.7301 8.56004 17.6531C8.31133 17.4606 7.59777 16.75 7.38163 16.4836C7.28392 16.3622 7.17733 16.2378 7.14772 16.2082C7.11811 16.1786 7.05001 16.0868 6.99376 16.001C6.94046 15.918 6.86052 15.8085 6.81611 15.7582C6.74801 15.6812 6.65622 15.545 6.54075 15.3436C6.52299 15.3111 6.42528 15.1542 6.32757 14.9943C6.2269 14.8344 6.14696 14.6952 6.14696 14.6863C6.14696 14.6745 6.05814 14.485 5.95155 14.2659C5.84199 14.0438 5.71468 13.7507 5.66731 13.6116C5.44228 12.972 5.28536 12.4539 5.25575 12.2792C5.23799 12.1726 5.20542 11.995 5.18173 11.8795C5.02777 11.1067 4.96855 10.2185 5.01592 9.45752C5.04849 8.98379 5.1462 8.19621 5.18173 8.13699C5.19061 8.12811 5.21134 8.00671 5.2291 7.87348C5.26167 7.61884 5.39787 7.13919 5.56664 6.66842C5.61993 6.52334 5.68211 6.34865 5.70284 6.28351C5.72356 6.21837 5.84199 5.96078 5.96339 5.70615C6.15288 5.31532 6.25059 5.14063 6.54075 4.65505C6.63254 4.50109 6.81315 4.23462 6.8546 4.19613C6.87829 4.17244 6.94046 4.08361 6.99672 3.99775C7.05001 3.91189 7.12403 3.81418 7.16252 3.77569C7.19805 3.7372 7.30464 3.6158 7.39643 3.50033C7.72212 3.09174 8.66663 2.21237 9.03377 1.97254C9.09891 1.92813 9.19365 1.86003 9.24103 1.81562C9.31801 1.74752 9.43644 1.66758 9.65554 1.54026C9.68811 1.51954 9.84208 1.42775 9.99604 1.333C10.15 1.23826 10.2892 1.15535 10.3069 1.14943C10.3217 1.14647 10.5171 1.05469 10.7362 0.948096C10.9553 0.841507 11.2485 0.714191 11.3876 0.666818C12.0272 0.441795 12.5453 0.284871 12.72 0.255262C12.8266 0.237497 13.0072 0.204928 13.1197 0.181242C13.8925 0.0272786 14.7807 -0.031938 15.5417 0.0154352C16.0154 0.0480044 16.803 0.145712 16.8622 0.181242C16.8711 0.190124 16.9925 0.21085 17.1257 0.228615C17.3803 0.261184 17.86 0.397382 18.3308 0.56615C18.4759 0.619444 18.6505 0.681622 18.7157 0.702348C18.7808 0.723073 19.0384 0.841507 19.293 0.962901C19.6839 1.15239 19.8586 1.2501 20.3441 1.54026C20.4981 1.63205 20.7646 1.81266 20.8031 1.85411C20.8268 1.8778 20.9185 1.94294 21.0103 1.99919C21.0991 2.05841 21.1939 2.12651 21.2176 2.15611C21.2413 2.18276 21.3419 2.26863 21.4396 2.34561C21.8719 2.6861 22.7128 3.57731 23.0266 4.03328C23.0859 4.11914 23.1628 4.21981 23.1984 4.2583C23.2546 4.32048 23.3227 4.42411 23.4589 4.65505C23.4797 4.68762 23.5714 4.84159 23.6662 4.99555C23.7609 5.14951 23.8438 5.28867 23.8498 5.30644C23.8527 5.32124 23.9445 5.51666 24.0511 5.73576C24.1577 5.95486 24.285 6.24798 24.3324 6.38714C24.5456 7.00003 24.7143 7.53594 24.7439 7.70175C24.7617 7.80242 24.7943 7.98303 24.815 8.10442C24.9749 8.95418 25.0311 9.78025 24.9838 10.5382C24.9512 11.0416 24.8712 11.6574 24.8002 11.9387C24.7854 12.0038 24.7706 12.0986 24.7706 12.1519C24.7706 12.2614 24.6018 12.8477 24.4478 13.2859C24.3857 13.4576 24.3176 13.6501 24.2968 13.7152C24.2761 13.7803 24.1577 14.0379 24.0363 14.2926C23.8468 14.6834 23.7491 14.8581 23.4589 15.3436C23.3671 15.4976 23.1865 15.7641 23.1451 15.8026C23.1214 15.8263 23.0563 15.918 23 16.0098C22.9408 16.0987 22.8727 16.1934 22.8431 16.2171C22.8164 16.2408 22.7306 16.3414 22.6536 16.4392C22.4611 16.6879 21.7505 17.4014 21.4841 17.6176C21.3627 17.7153 21.2383 17.8219 21.2087 17.8515C21.1791 17.8811 21.0873 17.9492 21.0014 18.0054C20.9185 18.0587 20.809 18.1387 20.7587 18.1831C20.6817 18.2512 20.5455 18.343 20.3441 18.4584C20.3116 18.4762 20.1546 18.5739 19.9948 18.6716C19.8349 18.7723 19.6957 18.8522 19.6868 18.8522C19.675 18.8522 19.4855 18.9411 19.2664 19.0476C19.0443 19.1572 18.7512 19.2845 18.6121 19.3319C18.0169 19.5391 17.4662 19.7138 17.3122 19.7405C17.2205 19.7553 17.0014 19.7967 16.8208 19.8263C15.9029 19.9921 15.1183 20.0395 14.2744 19.9744Z" fill="#1B1E36"/>
<path d="M14.3037 19.9745C13.5635 19.9242 12.6575 19.7554 12.0683 19.5629C10.9816 19.2047 10.4072 18.9382 9.51899 18.3697C8.77879 17.893 7.79579 17.0077 7.23324 16.306C6.96972 15.9714 6.65884 15.5451 6.58778 15.4178C6.55521 15.3615 6.46342 15.2076 6.38052 15.0773C6.1851 14.7664 5.80908 13.9966 5.68176 13.6413C5.35311 12.7501 5.23764 12.3 5.09256 11.3466C4.87938 9.95208 5.05111 8.13413 5.51596 6.83136C5.58998 6.62707 5.67288 6.38724 5.70249 6.29842C5.815 5.94608 6.24728 5.11704 6.62923 4.51896C7.10592 3.77875 7.99121 2.79575 8.69292 2.2332C9.0275 1.96968 9.45386 1.65879 9.58117 1.58773C9.63743 1.55517 9.79139 1.46338 9.92167 1.38048C10.2326 1.18506 11.0024 0.809037 11.3577 0.681721C12.2489 0.353069 12.7108 0.234636 13.6523 0.0925158C15.0617 -0.117703 16.8618 0.0481034 18.1676 0.515914C18.3719 0.589935 18.6117 0.672839 18.7005 0.702447C19.0529 0.814958 19.8819 1.24724 20.48 1.62919C21.2202 2.10588 22.2032 2.99117 22.7657 3.69288C23.0293 4.02746 23.3401 4.45382 23.4112 4.58113C23.4438 4.63739 23.5356 4.79135 23.6185 4.92163C23.9501 5.45162 24.2698 6.17702 24.5482 7.02382C24.7761 7.71961 24.9212 8.54568 24.9804 9.46058C25.0397 10.3577 24.9597 11.2519 24.7199 12.3681C24.6755 12.5872 24.5482 12.9869 24.3468 13.5673C24.2254 13.9137 23.8287 14.7368 23.6155 15.0773C23.5356 15.2076 23.4438 15.3615 23.4112 15.4178C23.201 15.7968 22.517 16.6258 21.987 17.1439C21.1462 17.9641 20.3704 18.5118 19.3075 19.03C18.7745 19.2876 17.8478 19.6192 17.3681 19.7199C16.1868 19.9715 15.2956 20.0455 14.3037 19.9745ZM15.79 15.6813C15.9677 15.6546 16.0387 15.6339 16.0476 15.5984C16.169 15.1809 16.4325 13.0165 16.3674 12.9573C16.3555 12.9455 16.0802 12.8004 15.7575 12.6346C15.4318 12.4688 15.1357 12.3119 15.0972 12.2882C15.035 12.2467 15.0202 12.2497 14.9018 12.3178C14.8337 12.3592 14.5228 12.5221 14.2149 12.679C13.904 12.8359 13.6434 12.9751 13.6345 12.984C13.6049 13.0136 13.6819 13.9433 13.7559 14.4407C13.8507 15.101 13.8329 15.0506 13.9662 15.0891C14.0313 15.1098 14.1468 15.1868 14.2297 15.2638C14.3481 15.3763 14.3866 15.4385 14.4132 15.5569C14.4488 15.702 14.4577 15.7109 14.5554 15.7257C14.7301 15.7464 15.5324 15.7198 15.79 15.6813ZM16.8826 15.4059C17.1698 15.3112 17.6613 15.0802 17.9781 14.8937C18.1765 14.7753 18.6443 14.4229 18.8634 14.2216L19.0381 14.0617L18.819 13.9966C18.7005 13.961 18.4607 13.8722 18.289 13.7982C18.1172 13.7242 17.836 13.6087 17.6642 13.5376C17.4925 13.4666 17.232 13.3511 17.0809 13.2771L16.8115 13.1439L16.7908 13.4162C16.7434 14.0854 16.6279 15.0003 16.5391 15.397C16.5214 15.477 16.5243 15.5066 16.551 15.5066C16.5717 15.5066 16.7197 15.4622 16.8826 15.4059ZM13.223 15.4178C13.223 15.403 13.2674 15.3378 13.3237 15.2786C13.377 15.2164 13.4184 15.1543 13.4125 15.1365C13.3799 15.0358 13.2733 14.1772 13.2348 13.7242C13.2111 13.4251 13.1875 13.1823 13.1845 13.1794C13.1815 13.1764 13.0513 13.2356 12.8973 13.3126C12.7433 13.3896 12.5686 13.4695 12.5124 13.4932C12.4561 13.514 12.1956 13.6205 11.935 13.7301C11.6745 13.8396 11.3695 13.9581 11.254 13.9936C10.9372 14.0972 10.9402 14.0824 11.1889 14.2986C11.6982 14.7427 12.5183 15.2372 12.995 15.3852C13.2171 15.4533 13.223 15.4563 13.223 15.4178ZM11.0794 13.585C11.3073 13.508 11.5649 13.4074 11.6538 13.3659C11.8847 13.2593 12.0327 13.2001 12.2015 13.1379C12.3199 13.0965 13.0927 12.7353 13.1282 12.7057C13.1342 12.7027 13.1223 12.3444 13.1016 11.9121L13.0631 11.1275L12.8677 10.9913C12.7581 10.9173 12.6604 10.8581 12.6516 10.8581C12.6397 10.8581 12.4739 10.7545 12.2844 10.6271C11.7219 10.2541 11.7751 10.2748 11.6064 10.3696C11.5264 10.4169 11.4287 10.4821 11.3873 10.5176C11.3458 10.5531 11.1475 10.7041 10.9432 10.8551C10.4072 11.2489 10.2385 11.3792 10.0608 11.5302C9.97496 11.6042 9.85357 11.7019 9.79435 11.7463C9.59005 11.8944 9.57525 11.927 9.62558 12.0691C9.67 12.1964 9.91279 12.6938 10.049 12.9307C10.1911 13.1823 10.6027 13.7301 10.65 13.7301C10.6589 13.7301 10.8543 13.665 11.0794 13.585ZM19.6243 13.36C19.953 12.9011 20.3882 12.0602 20.3882 11.8855C20.3882 11.8204 20.0003 11.5124 18.6561 10.5087C18.5584 10.4377 18.437 10.3577 18.3837 10.3311L18.2919 10.2867L17.8567 10.5739C17.6198 10.7308 17.4185 10.8581 17.4096 10.8581C17.4037 10.8581 17.2912 10.9262 17.1639 11.0091L16.9329 11.1601L16.9122 11.6398C16.9033 11.9003 16.8855 12.2438 16.8767 12.3977L16.8559 12.679L17.3445 12.9099C17.6109 13.0343 17.8389 13.1379 17.8537 13.1379C17.8656 13.1379 18.0521 13.212 18.2653 13.3067C18.7657 13.5199 19.2631 13.7005 19.3341 13.6916C19.3697 13.6886 19.4822 13.5613 19.6243 13.36ZM13.9898 12.2941C14.2001 12.1905 14.4162 12.078 14.4665 12.0483L14.5583 11.9891L14.3718 11.8885C14.2682 11.8292 14.1053 11.7404 14.0076 11.6871C13.9099 11.6338 13.7767 11.5539 13.7115 11.5095C13.6464 11.4651 13.5753 11.4207 13.5516 11.4058C13.5191 11.3881 13.5132 11.4414 13.5309 11.7345C13.5546 12.1934 13.5813 12.4865 13.5961 12.4865C13.602 12.4865 13.7796 12.4007 13.9898 12.2941ZM16.4325 12.303C16.471 11.9388 16.4858 11.4503 16.4562 11.4503C16.4414 11.4503 16.3822 11.4828 16.323 11.5213C16.2667 11.5598 16.0832 11.6664 15.9203 11.7582C15.4614 12.0128 15.491 11.9862 15.6005 12.0543C15.716 12.1224 16.3674 12.454 16.397 12.454C16.4088 12.4569 16.4236 12.3859 16.4325 12.303ZM15.411 11.5332C15.6153 11.4177 15.947 11.2282 16.1453 11.1127L16.5065 10.9025V9.99945L16.5095 9.0964L16.2963 8.97797C16.1779 8.91283 16.0358 8.82696 15.9795 8.78847C15.9203 8.74998 15.793 8.67596 15.6953 8.62267C15.5976 8.57233 15.4051 8.46574 15.2689 8.3858C15.0261 8.24664 15.0173 8.24664 14.9432 8.29401C14.9018 8.32066 14.733 8.41837 14.5702 8.50719C14.4073 8.59898 14.1024 8.77663 13.8892 8.90394L13.5043 9.13193V10.0024V10.8729L13.6375 10.944C13.7115 10.9824 13.8566 11.0713 13.9632 11.1394C14.0698 11.2075 14.3333 11.3585 14.5494 11.4769C14.7626 11.5953 14.9492 11.7049 14.958 11.7197C14.9876 11.7671 15.035 11.7493 15.411 11.5332ZM9.72921 11.2282C9.94239 11.0298 11.2096 10.0794 11.3073 10.0409C11.3784 10.0143 11.3695 9.99057 11.2748 9.93727C11.1652 9.8751 10.0519 9.04903 9.85653 8.88322L9.70553 8.7559L9.53084 8.79439L9.35911 8.83585L9.32358 9.02534C9.19626 9.72113 9.22883 10.6804 9.40352 11.3289L9.43609 11.4532L9.53084 11.3881C9.58413 11.3526 9.67296 11.2785 9.72921 11.2282ZM20.6073 11.1098C20.7524 10.3725 20.7524 9.62639 20.6073 8.88914C20.5806 8.75886 20.551 8.64043 20.5362 8.62859C20.5244 8.61378 20.4445 8.67004 20.3556 8.74998C20.1928 8.89506 19.4318 9.48131 18.9552 9.8218C18.8012 9.93431 18.7094 10.0172 18.7331 10.0261C18.7864 10.0439 19.7042 10.716 19.8108 10.8166C19.8434 10.8492 19.9233 10.9084 19.9885 10.9528C20.0536 10.9973 20.1987 11.1157 20.3112 11.2134C20.4267 11.3111 20.5274 11.3822 20.5392 11.3703C20.551 11.3555 20.5806 11.24 20.6073 11.1098ZM17.152 10.4939C17.4747 10.2926 17.8981 10.0143 17.8981 9.99945C17.9011 9.97281 17.0188 9.41025 16.9773 9.40729C16.9625 9.40729 16.9536 9.67376 16.9536 9.99945C16.9536 10.3251 16.9625 10.5916 16.9773 10.5916C16.9892 10.5887 17.0661 10.5472 17.152 10.4939ZM13.0453 9.99945C13.0453 9.69153 13.0365 9.43689 13.0246 9.43986C13.0098 9.43986 12.9239 9.49019 12.8322 9.54941C12.3022 9.8899 12.1601 9.98761 12.1601 9.99945C12.1601 10.0113 12.3022 10.109 12.8322 10.4495C12.9239 10.5087 13.0098 10.559 13.0246 10.559C13.0365 10.562 13.0453 10.3103 13.0453 9.99945ZM12.8558 9.00757L13.0631 8.87434L13.1016 8.08676C13.1223 7.65448 13.1371 7.29621 13.1312 7.29029C13.1253 7.28437 12.9861 7.21923 12.8233 7.14225C12.6604 7.06527 12.4591 6.97052 12.3762 6.93203C12.2933 6.89354 12.2163 6.86097 12.2015 6.86097C12.1897 6.86097 11.9972 6.78103 11.7751 6.68628C11.2067 6.44054 10.653 6.25696 10.6027 6.29842C10.502 6.38132 10.0964 6.97941 9.94239 7.27549L9.76474 7.6071L9.89502 7.72553C10.0579 7.87654 10.0964 7.99497 10.0756 8.26737L10.0579 8.48055L10.3273 8.68484C10.4753 8.79736 10.7448 8.99869 10.9254 9.13193C11.106 9.26813 11.3073 9.41913 11.3725 9.4665C11.4376 9.51684 11.5501 9.59678 11.6212 9.64119L11.7515 9.72706L12.1985 9.43393C12.4443 9.27405 12.7404 9.0816 12.8558 9.00757ZM18.4311 9.63823C18.5406 9.57309 18.5969 9.53164 19.1861 9.09344C20.0181 8.47166 20.3882 8.16966 20.3882 8.1134C20.3882 7.96832 19.953 7.09488 19.725 6.78103L19.5917 6.60042L19.4407 6.65668C19.3608 6.68628 19.2483 6.71293 19.195 6.71293C19.0914 6.71293 18.8663 6.62115 18.7834 6.54416C18.7331 6.49975 18.6976 6.50863 18.3008 6.6774C18.0669 6.77807 17.8656 6.86097 17.8537 6.86097C17.8389 6.86097 17.6109 6.9646 17.3445 7.08896L16.8559 7.3199L16.8767 7.60118C16.8855 7.75514 16.9033 8.09564 16.9122 8.35619L16.9329 8.83289L17.1639 8.98685C17.2882 9.07271 17.4007 9.14081 17.4096 9.14081C17.4185 9.14081 17.6169 9.26813 17.8478 9.42209C18.0817 9.57605 18.283 9.70337 18.2978 9.70337C18.3127 9.70337 18.3719 9.67376 18.4311 9.63823ZM13.7115 8.48943C13.7767 8.44502 13.9928 8.3177 14.1941 8.20815C14.4547 8.06603 14.5494 7.99793 14.5198 7.98017C14.431 7.92095 13.602 7.50939 13.5901 7.52124C13.5783 7.53308 13.522 8.33547 13.5191 8.51312C13.5191 8.61971 13.5132 8.61971 13.7115 8.48943ZM16.4562 8.0305C16.4384 7.77587 16.4207 7.55973 16.4118 7.55085C16.4029 7.54196 16.323 7.57453 16.2371 7.62191C16.1512 7.67224 16.0328 7.7285 15.9766 7.75218C15.9203 7.77291 15.79 7.84101 15.6864 7.90022L15.4999 8.00978L15.7752 8.16078C15.9262 8.24072 16.1453 8.36804 16.2578 8.4391C16.394 8.52496 16.4681 8.55753 16.474 8.53088C16.4799 8.51015 16.471 8.28513 16.4562 8.0305ZM15.1475 7.68704C15.2038 7.65151 15.4969 7.49755 15.7989 7.34359C16.1009 7.18962 16.3555 7.05343 16.3674 7.04454C16.4325 6.98237 16.169 4.818 16.0476 4.40052C16.0151 4.28505 14.7478 4.22287 14.206 4.3117C13.9987 4.34723 13.9602 4.36203 13.9484 4.41533C13.7944 5.11408 13.5694 6.9498 13.6345 7.01494C13.6434 7.02382 13.9336 7.17482 14.2741 7.34951C14.6175 7.5242 14.9166 7.68408 14.9403 7.70777C14.9965 7.76403 15.0261 7.76107 15.1475 7.68704ZM17.7323 6.43165C17.9455 6.34283 18.2149 6.23328 18.3275 6.18294L18.5347 6.09708L18.5821 5.91647C18.6117 5.81876 18.6502 5.71809 18.668 5.69441C18.6887 5.67072 18.6976 5.63519 18.6887 5.62039C18.6354 5.53748 17.907 5.06079 17.5665 4.88906C17.2349 4.72029 16.6546 4.49231 16.5539 4.49231C16.5332 4.49231 16.551 4.65812 16.6043 4.97492C16.6842 5.45162 16.7553 6.06451 16.7937 6.58562L16.8115 6.85801L17.075 6.72477C17.2201 6.65371 17.5162 6.52048 17.7323 6.43165ZM13.2348 6.27473C13.2792 5.75066 13.3622 5.12 13.4451 4.69068C13.4658 4.57521 13.4835 4.47454 13.4806 4.47158C13.4747 4.46862 13.3207 4.51303 13.1342 4.57225C12.7137 4.70549 12.089 5.0223 11.7011 5.29765C11.3902 5.51972 10.9609 5.88094 10.9816 5.90462C10.9905 5.91055 11.1593 5.97568 11.3606 6.04674C11.8196 6.20663 13.069 6.73958 13.146 6.80768C13.1608 6.81952 13.1786 6.82544 13.1815 6.82248C13.1875 6.81952 13.2111 6.57377 13.2348 6.27473Z" fill="#2D3047"/>
<path d="M14.7536 11.0356C14.6085 10.9971 14.3805 10.8816 14.2621 10.781C14.2088 10.7365 14.1199 10.6063 14.0578 10.4908C13.9571 10.2924 13.9512 10.2628 13.9512 9.9993C13.9512 9.79501 13.963 9.69434 13.9985 9.6292C14.0252 9.58183 14.0696 9.493 14.0963 9.43675C14.1614 9.29463 14.2798 9.17323 14.4219 9.10513C14.4871 9.07257 14.5818 9.02519 14.6292 8.99855C14.6943 8.96302 14.795 8.95117 14.9993 8.95117C15.2569 8.95117 15.2954 8.96005 15.4612 9.04296C15.7217 9.17916 15.8135 9.26502 15.929 9.49596C16.1155 9.87199 16.1007 10.2036 15.8816 10.5707C15.7632 10.7662 15.7395 10.7898 15.5115 10.9083C15.3161 11.0119 15.2332 11.0386 15.0674 11.0474C14.9579 11.0563 14.8157 11.0504 14.7536 11.0356Z" fill="#2D3047"/>
<path d="M14.763 18.6392C14.5291 18.5119 14.2567 18.1003 14.0317 17.5348C13.9695 17.3809 13.7948 16.7976 13.7001 16.4364C13.6734 16.3416 13.6498 16.309 13.5905 16.2942C13.5491 16.2824 13.4573 16.2202 13.3862 16.1551C13.1109 15.9004 13.105 15.5422 13.3714 15.255L13.4543 15.1662L13.4129 14.8849C13.3478 14.4556 13.2234 13.4045 13.2234 13.2801C13.2234 13.2061 13.2086 13.1676 13.1849 13.1676C13.1612 13.1676 12.9806 13.2416 12.7763 13.3334C11.4203 13.9493 10.0879 14.4082 9.13745 14.5918C8.72294 14.6747 8.05379 14.6865 7.82284 14.6214C7.60966 14.5592 7.43201 14.3786 7.40537 14.195C7.33727 13.7361 7.90871 12.8982 8.945 11.9448C9.40985 11.5155 10.3603 10.7486 10.9524 10.3252C11.1923 10.1535 11.3877 10.0084 11.3877 9.99951C11.3877 9.99063 11.2248 9.86627 11.0265 9.72712C10.8251 9.585 10.5172 9.35405 10.3366 9.21193C9.69113 8.70859 9.70889 8.72043 9.64375 8.753C9.49867 8.83294 9.1789 8.76188 9.00718 8.61088C8.90355 8.5191 8.84137 8.35329 8.84137 8.15788V7.96838L8.67556 7.8085C8.00049 7.15119 7.51196 6.46428 7.41721 6.04384C7.35207 5.74776 7.49419 5.49017 7.78435 5.3895C7.97385 5.32436 8.64299 5.31548 8.98941 5.37766C9.97241 5.54642 11.5032 6.07641 12.9332 6.73668C13.0754 6.80182 13.1968 6.84623 13.2056 6.83735C13.2145 6.82846 13.2234 6.77221 13.2234 6.71595C13.2234 6.55311 13.3626 5.43391 13.4603 4.80326C13.7712 2.80174 14.3426 1.41015 14.8963 1.30652C15.2308 1.24434 15.4973 1.47232 15.7964 2.07929C16.1961 2.89352 16.4892 4.16964 16.7172 6.07641C16.7497 6.35473 16.7764 6.62713 16.7764 6.68338C16.7794 6.89064 16.7853 6.89064 17.333 6.64193C17.6113 6.51758 17.9992 6.35177 18.2006 6.27183L18.5647 6.12675L18.6062 5.95502C18.6595 5.74184 18.7305 5.63821 18.8845 5.5405C19.1214 5.3895 19.4086 5.41615 19.6217 5.6086L19.7343 5.71223L20.0984 5.60564C20.7765 5.41319 21.1851 5.34213 21.6618 5.33917C22.1829 5.33621 22.3309 5.37174 22.5086 5.5405C22.6092 5.63821 22.6388 5.68854 22.6536 5.80106C22.7336 6.33401 21.9697 7.34661 20.6403 8.47468C20.1932 8.85367 19.4382 9.43991 19.0059 9.74784C18.8223 9.87516 18.6713 9.99063 18.6713 10.0025C18.6713 10.0114 18.8223 10.1268 19.0059 10.2541C19.3938 10.5265 20.1606 11.1187 20.5811 11.474C21.7239 12.4333 22.479 13.3304 22.624 13.9019C22.7129 14.2424 22.6151 14.4526 22.3072 14.5918C22.1651 14.6569 22.1118 14.6628 21.7062 14.6599C21.3686 14.6599 21.1791 14.6451 20.9216 14.5947C19.9652 14.4052 18.775 13.9966 17.3419 13.3601C16.9837 13.2031 16.8208 13.1439 16.806 13.1676C16.7942 13.1854 16.7764 13.3156 16.7645 13.4548C16.7557 13.591 16.7113 13.967 16.6728 14.2868C16.4092 16.3298 16.0332 17.6858 15.5506 18.3402C15.3019 18.6777 15.0325 18.7813 14.763 18.6392ZM15.1627 18.1921C15.6572 17.674 16.1072 15.9745 16.3619 13.665C16.4448 12.8834 16.4537 12.9426 16.2523 12.8508C16.1576 12.8064 15.8467 12.6495 15.5565 12.4985L15.0354 12.2231L14.3041 12.5962L13.5728 12.9663L13.5905 13.1794C13.6468 13.7835 13.7978 14.9589 13.8274 15.0507C13.8363 15.0685 13.8985 15.0981 13.9695 15.1158C14.1235 15.1543 14.3367 15.3586 14.3781 15.5067C14.4551 15.7761 14.39 16.0011 14.1916 16.1728L14.0732 16.2765L14.1087 16.4364C14.1975 16.8331 14.3929 17.4134 14.5439 17.7184C14.7009 18.0441 14.9111 18.3194 14.9999 18.3194C15.0206 18.3194 15.0946 18.2632 15.1627 18.1921ZM9.0131 14.2157C9.86878 14.0677 11.1597 13.6295 12.5246 13.0255L13.1731 12.7383L13.1523 12.4718C13.1435 12.3267 13.1257 11.9921 13.1168 11.7316C13.0961 11.0684 13.105 11.098 12.9036 10.9795C12.8118 10.9233 12.5128 10.7308 12.2404 10.5532L11.743 10.2305L11.441 10.4466C10.3603 11.2135 9.62599 11.8175 8.91243 12.531C8.39725 13.0432 8.13373 13.3541 7.96496 13.6591C7.84653 13.8723 7.76955 14.0943 7.79324 14.1595C7.811 14.2009 7.91759 14.2453 8.07155 14.2749C8.19295 14.2986 8.73774 14.2631 9.0131 14.2157ZM22.1562 14.2335C22.2717 14.192 22.2895 14.1506 22.248 14.0055C22.0437 13.2623 20.6284 11.8737 18.618 10.4466L18.316 10.2305L17.7742 10.5828C17.4781 10.7782 17.1702 10.9736 17.0932 11.021C17.0133 11.0654 16.9392 11.1305 16.9274 11.1661C16.9126 11.2016 16.8948 11.474 16.883 11.776C16.8741 12.078 16.8563 12.4126 16.8475 12.5192L16.8267 12.7146L17.5048 13.0136C18.3634 13.3926 19.1036 13.6769 19.7816 13.8871C20.5278 14.121 20.7883 14.1802 21.4397 14.2749C21.5877 14.2957 22.0556 14.269 22.1562 14.2335ZM14.239 12.2053C14.4285 12.1076 14.5854 12.0158 14.5854 11.9981C14.5824 11.9744 13.6261 11.4089 13.5106 11.3645C13.481 11.3526 13.5017 12.158 13.5372 12.4155L13.555 12.5399L13.7208 12.46C13.8156 12.4185 14.0465 12.303 14.239 12.2053ZM16.4951 11.9181C16.507 11.628 16.5099 11.3911 16.504 11.3911C16.4951 11.3911 16.2701 11.5184 16.0036 11.6724C15.7371 11.8263 15.5092 11.9537 15.4973 11.9537C15.4825 11.9537 15.4736 11.9714 15.4736 11.9921C15.4736 12.0484 16.427 12.5251 16.4537 12.4807C16.4655 12.46 16.4833 12.2053 16.4951 11.9181ZM15.2812 11.6428C15.4174 11.5688 15.7519 11.3763 16.0243 11.2164L16.5247 10.9233V9.99951V9.07277L16.051 8.79741C15.7904 8.64345 15.4529 8.451 15.3019 8.36809L15.0265 8.22005L14.7986 8.34441C14.5558 8.47765 14.2923 8.62865 13.78 8.93361L13.4603 9.12311V10.0025V10.8818L13.9577 11.172C14.4521 11.4622 15.0058 11.776 15.0236 11.776C15.0295 11.776 15.145 11.7168 15.2812 11.6428ZM17.4426 10.3459C17.7031 10.1772 17.9163 10.0202 17.9163 9.99951C17.9163 9.96102 17.0044 9.34813 16.9481 9.34813C16.9333 9.34813 16.9244 9.64125 16.9244 9.99951C16.9244 10.3578 16.9333 10.6509 16.9481 10.6509C16.96 10.6509 17.182 10.5147 17.4426 10.3459ZM13.0754 9.99951C13.0754 9.65902 13.0665 9.37774 13.0546 9.37774C12.9954 9.38366 12.1427 9.96398 12.1427 9.99951C12.1427 10.035 12.9954 10.6154 13.0546 10.6213C13.0665 10.6213 13.0754 10.343 13.0754 9.99951ZM12.3055 9.40142C12.5898 9.21489 12.8799 9.02836 12.951 8.98987C13.0191 8.95138 13.0813 8.89216 13.0902 8.85959C13.0961 8.82702 13.1079 8.56055 13.1168 8.26743C13.1257 7.9743 13.1435 7.62789 13.1523 7.49761L13.1731 7.26074L12.5246 6.97354C11.1005 6.34585 9.91023 5.94318 8.98941 5.77737C8.46238 5.68262 7.84357 5.71519 7.79324 5.83955C7.76659 5.91061 7.85541 6.15339 7.98569 6.3725C8.15742 6.65674 8.38244 6.93505 8.76143 7.32588C9.07824 7.64861 9.08416 7.65453 9.16114 7.61308C9.28253 7.55091 9.46907 7.53314 9.60822 7.57163C9.77107 7.61604 9.98425 7.81146 10.0287 7.95654C10.0612 8.06609 10.0553 8.31776 10.0139 8.40362C9.99017 8.45692 10.2685 8.69082 10.9436 9.19121C11.592 9.67086 11.7252 9.76264 11.7578 9.7508C11.7756 9.74488 12.0213 9.58796 12.3055 9.40142ZM18.624 9.54947C20.6077 8.14011 22.0171 6.76333 22.2421 6.0172C22.2628 5.94318 22.2747 5.86323 22.2658 5.83955C22.2332 5.7596 22.0407 5.72111 21.6914 5.72407C21.2354 5.73 20.7291 5.82178 20.0777 6.0172L19.8409 6.08826L19.7994 6.22742C19.6691 6.66562 19.1362 6.8255 18.7986 6.52646C18.7335 6.4702 18.7335 6.4702 18.4581 6.57679C18.3071 6.63897 17.8778 6.82254 17.5048 6.98835L16.8267 7.28739L16.8475 7.50945C16.8563 7.63381 16.8741 7.94766 16.883 8.20821C16.9067 8.92473 16.8475 8.81814 17.4367 9.19713C17.715 9.37774 18.0259 9.57907 18.1236 9.64421C18.2213 9.70935 18.3071 9.76264 18.3131 9.76264C18.319 9.76264 18.4581 9.6679 18.624 9.54947ZM13.9814 8.37106C14.233 8.22301 14.4729 8.08682 14.5114 8.06905C14.5528 8.05129 14.5854 8.02168 14.5854 8.00391C14.5854 7.98615 14.3544 7.85587 14.0761 7.71375C13.5757 7.46504 13.5639 7.45912 13.5461 7.52722C13.5165 7.62493 13.478 8.63753 13.5017 8.63753C13.5136 8.63753 13.7267 8.51614 13.9814 8.37106ZM16.4981 8.11346C16.4862 7.83811 16.4685 7.58644 16.4596 7.55091C16.4448 7.48873 16.4241 7.49761 15.9592 7.72856C15.6927 7.86179 15.4736 7.98319 15.4736 8.00095C15.4736 8.01576 15.5773 8.08682 15.7046 8.15491C15.8289 8.22597 16.0599 8.35625 16.2138 8.44508C16.3678 8.5339 16.4981 8.60792 16.504 8.60792C16.5129 8.60792 16.507 8.38586 16.4981 8.11346ZM15.7371 7.41175L16.427 7.06237L16.4092 6.81958C16.2434 4.80622 15.8112 2.84911 15.3641 2.08818C15.2368 1.87204 15.068 1.67958 15.0058 1.67958C14.9318 1.67958 14.7275 1.91645 14.6091 2.13851C14.3189 2.69515 14.0258 3.71367 13.8452 4.80326C13.7475 5.39542 13.5787 6.78109 13.5787 6.98243C13.5787 7.02388 13.709 7.10382 14.1353 7.317C14.4403 7.47096 14.763 7.63677 14.8519 7.6871C14.9407 7.73744 15.0236 7.77593 15.0325 7.77001C15.0413 7.76705 15.3582 7.60716 15.7371 7.41175Z" fill="#8188B7"/>
<path d="M14.6768 10.9884C14.4073 10.8907 14.1823 10.6953 14.0461 10.4377C13.9869 10.3281 13.978 10.2659 13.978 9.99947C13.978 9.64121 14.0224 9.51982 14.2386 9.29183C14.4902 9.03128 14.6975 8.94838 15.0676 8.9691C15.2719 8.97799 15.343 8.99575 15.4614 9.06385C15.6716 9.18524 15.8197 9.33921 15.9262 9.54054C16.0121 9.70339 16.021 9.74188 16.021 9.99947C16.021 10.2275 16.0091 10.3074 15.9559 10.414C15.8581 10.6183 15.6746 10.8078 15.4673 10.9173C15.3074 11.0032 15.2453 11.018 15.0439 11.0269C14.8811 11.0328 14.7656 11.021 14.6768 10.9884Z" fill="#8188B7"/>
<path d="M13.5995 16.2791C13.4218 16.208 13.3804 16.1755 13.2768 16.0126C13.2116 15.909 13.1938 15.8439 13.1938 15.7254C13.1938 15.5241 13.2264 15.4471 13.3745 15.2843C13.564 15.077 13.7683 15.0474 14.0732 15.1806C14.396 15.3227 14.4907 15.8409 14.242 16.1015C14.0406 16.3117 13.8304 16.3679 13.5995 16.2791Z" fill="#C9CBDB"/>
<path d="M14.7631 10.9942C14.55 10.9469 14.4463 10.8906 14.2776 10.7248C14.0703 10.5264 13.9815 10.3103 13.9785 10.0142C13.9785 9.67964 14.0466 9.50495 14.2598 9.28584C14.4937 9.04898 14.6447 8.98384 14.9852 8.98088C15.2161 8.97792 15.2754 8.98976 15.4204 9.05786C15.607 9.14372 15.832 9.35394 15.9179 9.52567C16.0511 9.78623 16.0511 10.183 15.9179 10.4613C15.829 10.6419 15.5389 10.8995 15.3642 10.9558C15.154 11.0239 14.9467 11.0357 14.7631 10.9942Z" fill="#C9CBDB"/>
<path d="M9.2885 8.75577C8.98353 8.68175 8.7822 8.3146 8.86806 7.99187C8.97169 7.61585 9.45726 7.44708 9.78591 7.67506C9.9606 7.7935 10.0702 8.0274 10.0465 8.22578C9.99909 8.60773 9.6586 8.84755 9.2885 8.75577Z" fill="#C9CBDB"/>
<path d="M18.9523 6.61206C18.7273 6.50251 18.6118 6.3219 18.6118 6.08208C18.6118 5.82152 18.7628 5.5817 18.976 5.50175C19.0915 5.45734 19.3343 5.4603 19.4497 5.50768C19.58 5.56393 19.7577 5.76823 19.7932 5.90739C19.8583 6.14129 19.7488 6.41961 19.5356 6.56765C19.4083 6.65351 19.0915 6.6772 18.9523 6.61206Z" fill="#C9CBDB"/>
</g>
<defs>
<clipPath id="clip0">
<rect width="30" height="20" fill="white"/>
</clipPath>
</defs>
</svg>
