<svg width="11" height="11" viewBox="0 0 11 11" fill="none" xmlns="http://www.w3.org/2000/svg">
<path d="M10.7583 1.65797C10.4251 1.03815 9.79333 0.65332 9.10951 0.65332C8.78773 0.65332 8.46898 0.740269 8.18844 0.904682L4.64023 2.98162L5.04841 3.74024L8.59681 1.6633C8.75373 1.57162 8.93105 1.52314 9.11009 1.52314C9.49218 1.52314 9.84496 1.73783 10.031 2.08364C10.1684 2.33915 10.2021 2.63545 10.1257 2.91815C10.0497 3.20084 9.87273 3.43586 9.6277 3.57917L6.4113 5.46133C6.35004 5.05264 6.16723 4.67571 5.88117 4.37723C5.37677 3.85183 4.57725 3.66593 3.90573 3.91729L3.61535 4.02631L3.89743 4.84447L4.18895 4.73603C4.56403 4.59369 5.01041 4.69975 5.29153 4.99232C5.45373 5.16165 5.55639 5.37615 5.58891 5.6086C5.5753 5.60525 5.56167 5.60168 5.54865 5.59775C5.27697 5.51811 5.05199 5.33339 4.91437 5.07689L4.76275 4.79754L4.0347 5.22416L4.18727 5.50351C4.43381 5.96226 4.83688 6.29346 5.32311 6.4358C5.33993 6.44034 5.35696 6.44526 5.37398 6.44941C5.34828 6.48332 5.32086 6.51565 5.29174 6.54601L2.63286 9.31885C2.43398 9.52604 2.1693 9.63999 1.88778 9.63999C1.60607 9.63999 1.3414 9.52604 1.14289 9.31885C0.944378 9.11165 0.83511 8.83604 0.83511 8.54209C0.83511 8.24833 0.944378 7.97254 1.14289 7.76554L3.45222 5.35762L2.86218 4.74234L0.553058 7.15026C0.196439 7.52243 0 8.01669 0 8.54206C0 9.06785 0.196439 9.56189 0.552988 9.93411C0.909746 10.3061 1.38352 10.5106 1.88773 10.5106C2.39195 10.5106 2.86572 10.3061 3.22248 9.93411L5.88194 7.16146C6.07666 6.95761 6.2264 6.71118 6.32017 6.4409C6.47426 6.39812 6.62076 6.33661 6.75689 6.25657L10.0361 4.33777C10.4751 4.08049 10.7923 3.65998 10.9286 3.15353C11.0651 2.64685 11.0046 2.11553 10.7583 1.65797Z" fill="#937906"/>
<path d="M4.02769 3.21369C4.13243 3.19378 4.20239 3.0889 4.18329 2.97947L3.78551 0.676812C3.76641 0.567211 3.66545 0.494257 3.56072 0.513781C3.4558 0.533693 3.38565 0.638564 3.40475 0.748383L3.80272 3.05063C3.82163 3.16048 3.9224 3.23321 4.02769 3.21369Z" fill="#937906"/>
<path d="M1.01314 4.42655L3.22114 4.01135C3.32624 3.99144 3.3962 3.88657 3.37711 3.77714C3.35801 3.66732 3.25744 3.5942 3.15269 3.61411L0.944502 4.0295C0.83977 4.04883 0.769623 4.15428 0.788718 4.26371C0.807441 4.37334 0.908405 4.44627 1.01314 4.42655Z" fill="#937906"/>
</svg>
