<svg width="20" height="20" viewBox="0 0 20 20" fill="none" xmlns="http://www.w3.org/2000/svg">
<path d="M16.244 7.02652C15.6856 3.01817 12.2456 0 8.16125 0C3.65389 0 0 3.65447 0 8.16245C0 12.2405 3.00775 15.6772 7.00704 16.2438C7.34881 16.2922 7.66512 16.0544 7.71354 15.7127C7.76196 15.3709 7.52416 15.0546 7.18239 15.0062C3.7975 14.5266 1.25 11.6158 1.25 8.16245C1.25 4.34479 4.34429 1.25 8.16125 1.25C11.6197 1.25 14.5333 3.8063 15.006 7.19899C15.0536 7.54087 15.3694 7.7794 15.7112 7.73177C16.0531 7.68415 16.2917 7.36839 16.244 7.02652Z" fill="#E84A4B"/>
<path d="M14.375 8.75C17.4816 8.75 20 11.2684 20 14.375C20 17.4816 17.4816 20 14.375 20C11.2684 20 8.75 17.4816 8.75 14.375C8.75 11.2684 11.2684 8.75 14.375 8.75ZM14.375 10C11.9588 10 10 11.9588 10 14.375C10 16.7912 11.9588 18.75 14.375 18.75C16.7912 18.75 18.75 16.7912 18.75 14.375C18.75 11.9588 16.7912 10 14.375 10Z" fill="#E84A4B"/>
<path d="M13.75 11.875V15C13.75 15.3452 14.0298 15.625 14.375 15.625C14.7202 15.625 15 15.3452 15 15V11.875C15 11.5298 14.7202 11.25 14.375 11.25C14.0298 11.25 13.75 11.5298 13.75 11.875Z" fill="#E84A4B"/>
<path d="M14.375 17.25C14.7202 17.25 15 16.9702 15 16.625C15 16.2798 14.7202 16 14.375 16C14.0298 16 13.75 16.2798 13.75 16.625C13.75 16.9702 14.0298 17.25 14.375 17.25Z" fill="#E84A4B"/>
<path d="M7.50018 8.02814V4.375C7.50018 4.02982 7.78001 3.75 8.12518 3.75C8.47036 3.75 8.75018 4.02982 8.75018 4.375V8.46591C8.75018 8.72873 8.58577 8.96346 8.33877 9.05328L5.83877 9.96237C5.51438 10.0803 5.15577 9.91299 5.03781 9.58859C4.91985 9.26419 5.0872 8.90559 5.41159 8.78763L7.50018 8.02814Z" fill="#E84A4B"/>
</svg>
