<svg width="16" height="16" viewBox="0 0 16 16" fill="none" xmlns="http://www.w3.org/2000/svg">
<path d="M15.2609 0.17749H10.5763C10.168 0.17749 9.83712 0.508384 9.83712 0.916642C9.83712 1.3249 10.168 1.65579 10.5763 1.65579H13.4764L6.38874 8.74344C6.10006 9.03212 6.10006 9.50008 6.38874 9.78876C6.53312 9.93306 6.72226 10.0053 6.9114 10.0053C7.10054 10.0053 7.28968 9.93306 7.43406 9.78876L14.5217 2.70112V5.6013C14.5217 6.00956 14.8526 6.34046 15.2609 6.34046C15.6691 6.34046 16 6.00956 16 5.6013V0.916724C16 0.508384 15.6691 0.17749 15.2609 0.17749Z" fill="#555555"/>
<path d="M12.2371 6.34036C11.8288 6.34036 11.4979 6.67126 11.4979 7.07952V14.3442H1.4783V4.32462H9.1801C9.58835 4.32462 9.91925 3.99372 9.91925 3.58546C9.91925 3.17721 9.58835 2.84631 9.1801 2.84631H0.739151C0.330893 2.84631 0 3.17721 0 3.58546V15.0834C0 15.4916 0.330893 15.8225 0.739151 15.8225H12.2371C12.6453 15.8225 12.9762 15.4916 12.9762 15.0834V7.07952C12.9762 6.67126 12.6453 6.34036 12.2371 6.34036Z" fill="#555555"/>
</svg>
