<svg width="30" height="30" viewBox="0 0 30 30" fill="none" xmlns="http://www.w3.org/2000/svg">
<path d="M25.6054 4.39548C31.4649 10.254 31.4649 19.746 25.6054 25.6045C19.7449 31.4652 10.2551 31.4652 4.39459 25.6045C-1.46486 19.746 -1.46486 10.254 4.39459 4.39548C10.2551 -1.46516 19.7459 -1.46516 25.6054 4.39548Z" fill="#E84A4B"/>
<path d="M25.5224 4.39066C22.1191 1.04797 17.5141 -0.381695 13.0771 0.0866453C16.4248 0.438169 19.6774 1.86784 22.2446 4.39066C28.2151 10.2519 28.2151 19.7484 22.2446 25.6096C19.6763 28.1324 16.4248 29.5599 13.0771 29.9136C17.5141 30.3809 22.1191 28.9534 25.5224 25.6096C31.4928 19.7484 31.4928 10.2508 25.5224 4.39066Z" fill="#DA2526"/>
<path d="M9.56035 21.5379C9.27897 21.5379 8.99759 21.4301 8.78326 21.2158C8.3535 20.786 8.3535 20.0913 8.78326 19.6614L19.6614 8.78329C20.0911 8.35349 20.7858 8.35349 21.2155 8.78329C21.6453 9.2131 21.6453 9.90782 21.2155 10.3376L10.3374 21.2158C10.1231 21.4312 9.84172 21.5379 9.56035 21.5379Z" fill="white"/>
<path d="M20.4385 21.5379C20.1571 21.5379 19.8757 21.4301 19.6614 21.2158L8.78326 10.3376C8.3535 9.90782 8.3535 9.2131 8.78326 8.78329C9.21302 8.35349 9.90767 8.35349 10.3374 8.78329L21.2155 19.6614C21.6453 20.0913 21.6453 20.786 21.2155 21.2158C21.0012 21.4312 20.7198 21.5379 20.4385 21.5379Z" fill="white"/>
</svg>
