<svg width="20" height="20" viewBox="0 0 20 20" fill="none" xmlns="http://www.w3.org/2000/svg">
<path d="M10 20C4.48593 20 0 15.5141 0 10C0 4.48593 4.48593 0 10 0C15.5141 0 20 4.48593 20 10C20 15.5141 15.5141 20 10 20ZM10 1.42853C5.27374 1.42853 1.42853 5.27374 1.42853 10C1.42853 14.7263 5.27374 18.5715 10 18.5715C14.7263 18.5715 18.5715 14.7263 18.5715 10C18.5715 5.27374 14.7263 1.42853 10 1.42853Z" fill="#E84A4B"/>
<path d="M13.5715 14.2857C13.3887 14.2857 13.2059 14.216 13.0664 14.0764L5.92361 6.93359C5.64452 6.65451 5.64452 6.20254 5.92361 5.92361C6.20254 5.64468 6.65466 5.64453 6.93359 5.92361L14.0764 13.0664C14.3555 13.3455 14.3555 13.7975 14.0764 14.0764C13.9369 14.216 13.7543 14.2857 13.5715 14.2857Z" fill="#E84A4B"/>
<path d="M6.42852 14.2857C6.24572 14.2857 6.06307 14.216 5.92361 14.0764C5.64452 13.7974 5.64452 13.3453 5.92361 13.0664L13.0664 5.92361C13.3455 5.64452 13.7974 5.64452 14.0764 5.92361C14.3553 6.20254 14.3555 6.65466 14.0764 6.93359L6.93359 14.0764C6.79412 14.216 6.61132 14.2857 6.42852 14.2857Z" fill="#E84A4B"/>
</svg>
