<svg width="30" height="12" viewBox="0 0 30 12" fill="none" xmlns="http://www.w3.org/2000/svg">
<path d="M2.26399 3.78959C2.20557 3.78959 2.19096 3.76037 2.22017 3.71655L2.52691 3.32218C2.55612 3.27836 2.62916 3.24915 2.68758 3.24915H7.90211C7.96053 3.24915 7.97514 3.29297 7.94593 3.33678L7.69762 3.71655C7.6684 3.76037 7.59537 3.80419 7.55155 3.80419L2.26399 3.78959Z" fill="#2DBCAF"/>
<path d="M0.0584261 5.13346C0 5.13346 -0.0146065 5.10425 0.0146065 5.06043L0.321343 4.66605C0.350556 4.62223 0.423589 4.59302 0.482015 4.59302H7.14259C7.20101 4.59302 7.23023 4.63684 7.21562 4.68066L7.09877 5.03121C7.08416 5.08964 7.02574 5.11885 6.96731 5.11885L0.0584261 5.13346Z" fill="#2DBCAF"/>
<path d="M3.59309 6.47721C3.53467 6.47721 3.52006 6.43339 3.54927 6.38957L3.75377 6.02441C3.78298 5.98059 3.84141 5.93677 3.89983 5.93677H6.82113C6.87956 5.93677 6.90877 5.98059 6.90877 6.03901L6.87956 6.38957C6.87956 6.448 6.82113 6.49182 6.77732 6.49182L3.59309 6.47721Z" fill="#2DBCAF"/>
<path d="M18.7549 3.52668C17.8347 3.76039 17.2066 3.93567 16.301 4.16937C16.0819 4.2278 16.0673 4.2424 15.8774 4.0233C15.6583 3.77499 15.4977 3.61432 15.1909 3.46826C14.2707 3.01545 13.3797 3.14691 12.5472 3.68735C11.5539 4.33004 11.0427 5.27947 11.0573 6.46259C11.0719 7.63111 11.8753 8.59514 13.0292 8.75582C14.0224 8.88728 14.855 8.53672 15.5123 7.79179C15.6437 7.63111 15.7606 7.45584 15.9067 7.25135C15.3808 7.25135 14.7235 7.25135 13.0876 7.25135C12.7809 7.25135 12.7078 7.06146 12.8101 6.81315C13 6.36035 13.3505 5.60081 13.555 5.22104C13.5988 5.1334 13.7011 4.98733 13.9202 4.98733C14.6651 4.98733 17.4111 4.98733 19.2369 4.98733C19.2077 5.38171 19.2077 5.77609 19.1493 6.17046C18.9886 7.22213 18.5943 8.18616 17.9516 9.03334C16.8999 10.421 15.5269 11.2827 13.7887 11.5164C12.3573 11.7063 11.0281 11.4288 9.85956 10.5524C8.77868 9.73445 8.1652 8.65357 8.00453 7.30977C7.81465 5.71766 8.28205 4.28622 9.24608 3.03006C10.2831 1.67165 11.6562 0.80987 13.3359 0.503134C14.7089 0.254823 16.0235 0.415494 17.2066 1.21885C17.9808 1.73008 18.5358 2.43119 18.901 3.27837C18.9886 3.40983 18.9302 3.48286 18.7549 3.52668Z" fill="#2DBCAF"/>
<path d="M23.5896 11.6041C22.2604 11.5749 21.048 11.1951 20.0256 10.3187C19.1638 9.57378 18.6234 8.62436 18.4481 7.49965C18.1852 5.84912 18.638 4.38847 19.6312 3.08849C20.6975 1.68626 21.9828 0.955936 23.721 0.649199C25.2109 0.386281 26.6131 0.532347 27.8839 1.39413C29.0378 2.18288 29.7535 3.24916 29.9434 4.65138C30.1917 6.62326 29.6221 8.22998 28.2637 9.60299C27.2996 10.5816 26.1165 11.1951 24.7581 11.4726C24.3637 11.5457 23.9693 11.5603 23.5896 11.6041ZM27.0659 5.70305C27.0513 5.51317 27.0513 5.3671 27.0221 5.22104C26.7592 3.77499 25.43 2.95703 24.0424 3.27837C22.684 3.58511 21.8076 4.44689 21.4862 5.81991C21.2233 6.95921 21.7784 8.11313 22.83 8.58054C23.6334 8.93109 24.4367 8.88727 25.2109 8.4929C26.3648 7.89403 26.9929 6.95921 27.0659 5.70305Z" fill="#2DBCAF"/>
</svg>
