<svg width="21" height="20" viewBox="0 0 21 20" fill="none" xmlns="http://www.w3.org/2000/svg">
<path d="M20.2198 11.0871C20.145 10.9313 19.9704 10.8297 19.7767 10.8297H14.5208V0.41654C14.5208 0.186617 14.3059 0 14.0411 0H6.36682C6.10206 0 5.88717 0.186617 5.88717 0.41654V10.8297H0.611122C0.417362 10.8297 0.242757 10.9314 0.167933 11.0863C0.0940534 11.2421 0.134343 11.4212 0.271536 11.5403L9.84039 19.8775C9.93054 19.9558 10.0524 20 10.18 20C10.3075 20 10.4294 19.9558 10.5196 19.8784L20.1162 11.5412C20.2534 11.422 20.2947 11.2429 20.2198 11.0871Z" fill="#5269FF"/>
</svg>
