<svg width="50" height="50" viewBox="0 0 50 50" fill="none" xmlns="http://www.w3.org/2000/svg">
<circle cx="25" cy="25" r="25" fill="#EBEDFF"/>
<path d="M32.5 16.4999V18.5V20.5L36 22.5V18.5L32.5 16.4999Z" fill="#CED4FD"/>
<path d="M36 22.5L39.5 20.5V16.4999L36 18.5V22.5Z" fill="#CED4FD"/>
<path d="M25 18.4999L28.5 16.4999V12.4999L25 14.4999V18.4999Z" fill="#CED4FD"/>
<path d="M25 14.4999L21.5 12.4999V16.4999L25 18.4999V14.4999Z" fill="#CED4FD"/>
<path d="M10.5 16.4999V20.5L14 22.5V18.5L10.5 16.4999Z" fill="#CED4FD"/>
<path d="M17.5 18.5V16.4999L14 18.5V22.5L17.5 20.5V18.5Z" fill="#CED4FD"/>
<path d="M25 29.0001L28.5 27V23L25 25V29.0001Z" fill="#CED4FD"/>
<path d="M21.5 23V27L25 29.0001V25L21.5 23Z" fill="#CED4FD"/>
<path d="M36 35.5001L39.5 33.5001V29.5001L36 31.5001V35.5001Z" fill="#CED4FD"/>
<path d="M32.5 29.5001V33.5001L36 35.5001V31.5001L32.5 29.5001Z" fill="#CED4FD"/>
<path d="M25 35.5001V39.5002L28.5 37.5002V36.0001V33.5001L25 35.5001Z" fill="#CED4FD"/>
<path d="M21.5 33.5001V36.0001V37.5002L25 39.5002V35.5001L21.5 33.5001Z" fill="#CED4FD"/>
<path d="M14 31.5001V35.0001V31.5001L10.5 29.5001V33.5001L14 35.5001L17.5 33.5001V29.5001L14 31.5001Z" fill="#CED4FD"/>
<path d="M39.75 20.934C39.8262 20.89 39.8894 20.8267 39.9333 20.7505C39.9772 20.6743 40.0002 20.5879 40 20.5V16.4999C40.0002 16.412 39.9772 16.3255 39.9333 16.2493C39.8894 16.1731 39.8262 16.1099 39.75 16.0659L36.25 14.0659C36.1745 14.0227 36.089 14 36.002 14C35.915 14 35.8295 14.0227 35.754 14.0659L32.254 16.0659C32.1771 16.1094 32.1131 16.1724 32.0685 16.2487C32.0239 16.3249 32.0002 16.4116 32 16.4999V17.6909L29 16.1909V12.4999C29.0002 12.4119 28.9772 12.3255 28.9333 12.2493C28.8894 12.1731 28.8262 12.1098 28.75 12.0659L25.25 10.0658C25.1745 10.0227 25.089 10 25.002 10C24.915 10 24.8295 10.0227 24.754 10.0658L21.254 12.0659C21.1771 12.1093 21.1131 12.1724 21.0685 12.2486C21.0239 12.3248 21.0002 12.4115 21 12.4999V16.1909L18 17.6909V16.4999C18.0002 16.412 17.9772 16.3255 17.9333 16.2493C17.8894 16.1731 17.8262 16.1099 17.75 16.0659L14.25 14.0659C14.1745 14.0227 14.089 14 14.002 14C13.915 14 13.8295 14.0227 13.754 14.0659L10.254 16.0659C10.1771 16.1094 10.1131 16.1724 10.0685 16.2487C10.0239 16.3249 10.0002 16.4116 10 16.4999V20.5C9.99983 20.5879 10.0228 20.6743 10.0667 20.7505C10.1106 20.8267 10.1738 20.89 10.25 20.934L13.5 22.79V27.21L10.25 29.066C10.1738 29.11 10.1106 29.1733 10.0667 29.2495C10.0228 29.3257 9.99983 29.4121 10 29.5V33.5001C9.99983 33.588 10.0228 33.6745 10.0667 33.7507C10.1106 33.8269 10.1738 33.8901 10.25 33.9341L13.75 35.9341C13.8255 35.9773 13.911 36 13.998 36C14.085 36 14.1705 35.9773 14.246 35.9341L17.4865 34.0841L21 36.2776V37.5001C20.9998 37.5881 21.0228 37.6745 21.0667 37.7507C21.1106 37.8269 21.1738 37.8902 21.25 37.9341L24.75 39.9342C24.8255 39.9773 24.911 40 24.998 40C25.085 40 25.1705 39.9773 25.246 39.9342L28.746 37.9341C28.8229 37.8907 28.8869 37.8276 28.9315 37.7514C28.9761 37.6752 28.9998 37.5885 29 37.5001V36.2776L32.5115 34.0826L35.752 35.9326C35.8275 35.9758 35.913 35.9985 36 35.9985C36.087 35.9985 36.1725 35.9758 36.248 35.9326L39.748 33.9326C39.8243 33.889 39.8878 33.8261 39.932 33.7502C39.9763 33.6742 39.9997 33.588 40 33.5001V29.5C40.0002 29.4121 39.9772 29.3257 39.9333 29.2495C39.8894 29.1733 39.8262 29.11 39.75 29.066L36.5 27.21V22.79L39.75 20.934ZM36.5 21.6385V18.7884L39 17.3599V20.2099L36.5 21.6385ZM36 30.9241L33.5075 29.5L36 28.076L38.4925 29.5L36 30.9241ZM33 17.3614L35.5 18.7899V21.64L33 20.2099V17.3614ZM36 15.0759L38.4925 16.4999L36 17.9239L33.5075 16.4999L36 15.0759ZM25 34.9261L22.5075 33.5001L25 32.0761L27.4925 33.5001L25 34.9261ZM22 23.8615L24.5 25.29V28.14L22 26.71V23.8615ZM25.5 25.29L28 23.8615V26.7115L25.5 28.14V25.29ZM25 24.424L22.5075 23L25 21.576L27.4925 23L25 24.424ZM22 13.3614L24.5 14.7899V17.6399L22 16.2099V13.3614ZM25.5 14.7899L28 13.3614V16.2114L25.5 17.6399V14.7899ZM25 11.0759L27.4925 12.4999L25 13.9239L22.5075 12.4999L25 11.0759ZM14.5 18.7899L17 17.3614V20.2114L14.5 21.64V18.7899ZM14 15.0759L16.4925 16.4999L14 17.9239L11.5075 16.4999L14 15.0759ZM11 17.3614L13.5 18.7899V21.64L11 20.2099V17.3614ZM14 30.9241L11.5075 29.5L14 28.076L16.4925 29.5L14 30.9241ZM11 30.3616L13.5 31.7901V34.6401L11 33.2101V30.3616ZM14.5 34.6386V31.7886L17 30.3601V33.2101L14.5 34.6386ZM18 33.2226V29.5C18.0002 29.4121 17.9772 29.3257 17.9333 29.2495C17.8894 29.1733 17.8262 29.11 17.75 29.066L14.5 27.21V22.79L17.75 20.934C17.8262 20.89 17.8894 20.8267 17.9333 20.7505C17.9772 20.6743 18.0002 20.5879 18 20.5V18.8089L21.4845 17.0669L24.5 18.7899V20.71L21.25 22.566C21.1738 22.6099 21.1106 22.6732 21.0667 22.7494C21.0228 22.8256 20.9998 22.912 21 23V27C20.9998 27.088 21.0228 27.1744 21.0667 27.2506C21.1106 27.3268 21.1738 27.3901 21.25 27.434L24.5 29.29V31.2101L21.25 33.0661C21.1738 33.1101 21.1106 33.1733 21.0667 33.2495C21.0228 33.3257 20.9998 33.4122 21 33.5001V35.1001L18 33.2226ZM22 34.3616L24.5 35.7901V38.6401L22 37.2101V34.3616ZM25.5 38.6386V35.7886L28 34.3601V37.2101L25.5 38.6386ZM28.75 33.0661L25.5 31.2101V29.29L28.75 27.434C28.8262 27.3901 28.8894 27.3268 28.9333 27.2506C28.9772 27.1744 29.0002 27.088 29 27V23C29.0002 22.912 28.9772 22.8256 28.9333 22.7494C28.8894 22.6732 28.8262 22.6099 28.75 22.566L25.5 20.71V18.7899L28.5155 17.0669L32 18.8089V20.5C31.9998 20.5879 32.0228 20.6743 32.0667 20.7505C32.1106 20.8267 32.1738 20.89 32.25 20.934L35.5 22.79V27.21L32.25 29.066C32.1738 29.11 32.1106 29.1733 32.0667 29.2495C32.0228 29.3257 31.9998 29.4121 32 29.5V33.2226L29 35.1001V33.5001C29.0002 33.4122 28.9772 33.3257 28.9333 33.2495C28.8894 33.1733 28.8262 33.1101 28.75 33.0661ZM33 30.3616L35.5 31.7901V34.6401L33 33.2101V30.3616ZM36.5 34.6386V31.7886L39 30.3601V33.2101L36.5 34.6386Z" fill="#5269FF"/>
</svg>
