<svg width="20" height="20" viewBox="0 0 20 20" fill="none" xmlns="http://www.w3.org/2000/svg">
<path d="M10 19.994C15.5228 19.994 20 15.5197 20 10.0005C20 4.48129 15.5228 0.00708008 10 0.00708008C4.47715 0.00708008 0 4.48129 0 10.0005C0 15.5197 4.47715 19.994 10 19.994Z" fill="#524356"/>
<path d="M15.3168 12.6832C15.217 12.5512 15.0494 12.5024 14.9019 12.5592C14.4884 12.7184 14.0399 12.8 13.5676 12.8C11.308 12.8 9.47004 10.8256 9.47004 8.4C9.47004 6.94 10.1413 5.5808 11.2655 4.7632C11.3929 4.6704 11.454 4.5032 11.4197 4.3424C11.3854 4.1816 11.2625 4.06 11.1098 4.036C10.9355 4.0088 10.7619 4 10.5875 4C7.5062 4 5 6.6912 5 10C5 13.3088 7.5062 16 10.5875 16C12.5432 16 14.3223 14.9328 15.3452 13.1456C15.4278 13.0008 15.4159 12.816 15.3168 12.6832Z" fill="white"/>
</svg>
