<?xml version="1.0" encoding="utf-8"?>
<!-- Generator: Adobe Illustrator 19.0.0, SVG Export Plug-In . SVG Version: 6.00 Build 0)  -->
<svg version="1.1" id="Layer_1" xmlns="http://www.w3.org/2000/svg" xmlns:xlink="http://www.w3.org/1999/xlink" x="0px" y="0px"
	 viewBox="0 0 96 96" style="enable-background:new 0 0 96 96;" xml:space="preserve">
<style type="text/css">
	.st0{fill:#333333;}
</style>
<g id="XMLID_6_">
	<path id="XMLID_12_" class="st0" d="M48,15.5C30,15.5,15.5,30,15.5,48C15.5,66,30,80.5,48,80.5C66,80.5,80.5,66,80.5,48
		C80.5,30,66,15.5,48,15.5z M48,20.9c14.9,0,27.1,12.1,27.1,27.1c0,14.9-12.1,27.1-27.1,27.1S20.9,62.9,20.9,48
		C20.9,33.1,33.1,20.9,48,20.9z M48,30.8c-2.2,0-3.9,1.7-3.9,3.9c0,2.2,1.7,3.9,3.9,3.9c2.2,0,3.9-1.7,3.9-3.9
		C51.9,32.6,50.2,30.8,48,30.8z M44.9,40.8v24.5h6.1V40.8H44.9z"/>
</g>
</svg>
