<svg width="30" height="30" viewBox="0 0 30 30" fill="none" xmlns="http://www.w3.org/2000/svg">
<path d="M4.00456 29.8694C2.45239 29.5955 0.939343 28.3564 0.391517 26.8955C0.156734 26.2824 0.0915166 25.852 0.0784732 24.5216L0.0654297 22.8911L3.6263 22.852L7.17413 22.8259L7.14804 26.3738L7.10891 29.9346L5.86978 29.9477C5.19152 29.9607 4.34369 29.9216 4.00456 29.8694Z" fill="#9FABF9"/>
<path d="M11.4785 26.4129V22.8259H15.0003H18.522V26.4129V29.9998H15.0003H11.4785V26.4129Z" fill="#9FABF9"/>
<path d="M22.9305 29.9346C22.8653 29.8694 22.8262 28.252 22.8262 26.3216V22.8259H26.4131H30.0001V24.3129C30.0001 26.6346 29.4914 27.8607 28.0957 28.9433C27.1697 29.6477 26.3479 29.8825 24.587 29.9607C23.7262 29.9998 22.9827 29.9868 22.9305 29.9346Z" fill="#9FABF9"/>
<path d="M0 15V11.4783H3.58696H7.17391V15V18.5217H3.58696H0V15Z" fill="#9FABF9"/>
<path d="M11.4785 9.26087V0H18.6394C25.4481 0 25.8394 0.0130435 26.622 0.26087C28.1742 0.743478 29.2698 1.86522 29.7655 3.41739C29.9872 4.13478 30.0003 4.76087 30.0003 11.3609V18.5217H20.7394H11.4785V9.26087Z" fill="#9FABF9"/>
<path d="M0 5.68696C0 3.32609 0.613043 1.87826 2.03478 0.9C3 0.234783 3.96522 0 5.68696 0H7.17391V3.58696V7.17391H3.58696H0V5.68696Z" fill="#9FABF9"/>
</svg>
