<svg width="106" height="25" viewBox="0 0 106 25" fill="none" xmlns="http://www.w3.org/2000/svg">
<rect x="24" width="82" height="25" rx="4" fill="#555555"/>
<rect x="63" y="8" width="7" height="10" fill="white"/>
<rect x="53" y="8" width="7" height="10" fill="white"/>
<rect x="73" y="8" width="7" height="10" fill="white"/>
<rect x="83" y="8" width="7" height="10" fill="white"/>
<rect x="93" y="8" width="7" height="10" fill="white"/>
<path d="M55.7315 15.1818H56.6562L56.5753 13.3835L58.0923 14.3594L58.5568 13.5497L56.946 12.7273L58.5568 11.9048L58.0923 11.0952L56.5753 12.071L56.6562 10.2727H55.7315L55.8125 12.071L54.2954 11.0952L53.831 11.9048L55.4417 12.7273L53.831 13.5497L54.2954 14.3594L55.8125 13.3835L55.7315 15.1818ZM65.8851 15.1818H66.8098L66.7289 13.3835L68.2459 14.3594L68.7104 13.5497L67.0996 12.7273L68.7104 11.9048L68.2459 11.0952L66.7289 12.071L66.8098 10.2727H65.8851L65.9661 12.071L64.449 11.0952L63.9845 11.9048L65.5953 12.7273L63.9845 13.5497L64.449 14.3594L65.9661 13.3835L65.8851 15.1818ZM76.0387 15.1818H76.9634L76.8825 13.3835L78.3995 14.3594L78.864 13.5497L77.2532 12.7273L78.864 11.9048L78.3995 11.0952L76.8825 12.071L76.9634 10.2727H76.0387L76.1197 12.071L74.6026 11.0952L74.1381 11.9048L75.7489 12.7273L74.1381 13.5497L74.6026 14.3594L76.1197 13.3835L76.0387 15.1818ZM86.1923 15.1818H87.117L87.0361 13.3835L88.5531 14.3594L89.0176 13.5497L87.4068 12.7273L89.0176 11.9048L88.5531 11.0952L87.0361 12.071L87.117 10.2727H86.1923L86.2733 12.071L84.7562 11.0952L84.2917 11.9048L85.9025 12.7273L84.2917 13.5497L84.7562 14.3594L86.2733 13.3835L86.1923 15.1818ZM96.3459 15.1818H97.2706L97.1896 13.3835L98.7067 14.3594L99.1712 13.5497L97.5604 12.7273L99.1712 11.9048L98.7067 11.0952L97.1896 12.071L97.2706 10.2727H96.3459L96.4269 12.071L94.9098 11.0952L94.4453 11.9048L96.0561 12.7273L94.4453 13.5497L94.9098 14.3594L96.4269 13.3835L96.3459 15.1818Z" fill="#5269FF"/>
<rect width="36" height="25" rx="4" fill="url(#paint0_linear)"/>
<circle cx="33.5" cy="12.5" r="12.5" fill="url(#paint1_linear)"/>
<circle cx="34" cy="13" r="7" fill="#333333"/>
<circle cx="34" cy="13" r="5" fill="#EEEEEE"/>
<defs>
<linearGradient id="paint0_linear" x1="18" y1="0" x2="18" y2="25" gradientUnits="userSpaceOnUse">
<stop stop-color="#AAAAAA"/>
<stop offset="1" stop-color="#888888"/>
</linearGradient>
<linearGradient id="paint1_linear" x1="33.5" y1="0" x2="33.5" y2="25" gradientUnits="userSpaceOnUse">
<stop stop-color="#AAAAAA"/>
<stop offset="1" stop-color="#888888"/>
</linearGradient>
</defs>
</svg>
