<svg width="106" height="25" viewBox="0 0 106 25" fill="none" xmlns="http://www.w3.org/2000/svg">
<rect x="24" width="82" height="25" rx="4" fill="#555555"/>
<rect x="53" y="8" width="47" height="10" fill="white"/>
<path d="M63.3712 12.2188C63.2093 10.875 62.1923 10.1023 60.8457 10.1023C59.3087 10.1023 58.1354 11.1875 58.1354 13.0909C58.1354 14.9886 59.2888 16.0795 60.8457 16.0795C62.3371 16.0795 63.2377 15.0881 63.3712 14.017L62.1269 14.0114C62.0104 14.6335 61.5218 14.9915 60.8656 14.9915C59.982 14.9915 59.3826 14.3352 59.3826 13.0909C59.3826 11.8807 59.9735 11.1903 60.8741 11.1903C61.5474 11.1903 62.0332 11.5795 62.1269 12.2188H63.3712ZM69.8399 13.0909C69.8399 11.1875 68.6581 10.1023 67.1155 10.1023C65.5644 10.1023 64.3911 11.1875 64.3911 13.0909C64.3911 14.9858 65.5644 16.0795 67.1155 16.0795C68.6581 16.0795 69.8399 14.9943 69.8399 13.0909ZM68.5928 13.0909C68.5928 14.3239 68.0075 14.9915 67.1155 14.9915C66.2206 14.9915 65.6382 14.3239 65.6382 13.0909C65.6382 11.858 66.2206 11.1903 67.1155 11.1903C68.0075 11.1903 68.5928 11.858 68.5928 13.0909ZM74.1474 11.8551H75.3264C75.3093 10.8182 74.4571 10.1023 73.1616 10.1023C71.886 10.1023 70.9514 10.8068 70.9571 11.8636C70.9542 12.7216 71.5593 13.2131 72.5423 13.4489L73.1758 13.608C73.8093 13.7614 74.1616 13.9432 74.1644 14.3352C74.1616 14.7614 73.7582 15.0511 73.1332 15.0511C72.494 15.0511 72.0338 14.7557 71.994 14.1733H70.8036C70.8349 15.4318 71.7355 16.0824 73.1474 16.0824C74.5679 16.0824 75.4031 15.4034 75.4059 14.3381C75.4031 13.3693 74.673 12.8551 73.6616 12.6278L73.1389 12.5028C72.6332 12.3864 72.2099 12.1989 72.2184 11.7812C72.2184 11.4062 72.5508 11.1307 73.1531 11.1307C73.7411 11.1307 74.1019 11.3977 74.1474 11.8551ZM76.4733 10.1818V16H77.6665V12.1989H77.7148L79.2205 15.9716H80.033L81.5387 12.2131H81.587V16H82.7802V10.1818H81.2631L79.6608 14.0909H79.5927L77.9904 10.1818H76.4733ZM89.3802 13.0909C89.3802 11.1875 88.1984 10.1023 86.6558 10.1023C85.1047 10.1023 83.9314 11.1875 83.9314 13.0909C83.9314 14.9858 85.1047 16.0795 86.6558 16.0795C88.1984 16.0795 89.3802 14.9943 89.3802 13.0909ZM88.1331 13.0909C88.1331 14.3239 87.5479 14.9915 86.6558 14.9915C85.7609 14.9915 85.1785 14.3239 85.1785 13.0909C85.1785 11.858 85.7609 11.1903 86.6558 11.1903C87.5479 11.1903 88.1331 11.858 88.1331 13.0909ZM93.6877 11.8551H94.8667C94.8496 10.8182 93.9974 10.1023 92.7019 10.1023C91.4263 10.1023 90.4917 10.8068 90.4974 11.8636C90.4945 12.7216 91.0996 13.2131 92.0826 13.4489L92.7161 13.608C93.3496 13.7614 93.7019 13.9432 93.7048 14.3352C93.7019 14.7614 93.2985 15.0511 92.6735 15.0511C92.0343 15.0511 91.5741 14.7557 91.5343 14.1733H90.344C90.3752 15.4318 91.2758 16.0824 92.6877 16.0824C94.1082 16.0824 94.9434 15.4034 94.9462 14.3381C94.9434 13.3693 94.2133 12.8551 93.2019 12.6278L92.6792 12.5028C92.1735 12.3864 91.7502 12.1989 91.7587 11.7812C91.7587 11.4062 92.0911 11.1307 92.6934 11.1307C93.2815 11.1307 93.6423 11.3977 93.6877 11.8551Z" fill="#5269FF"/>
<rect width="36" height="25" rx="4" fill="url(#paint0_linear)"/>
<circle cx="33.5" cy="12.5" r="12.5" fill="url(#paint1_linear)"/>
<circle cx="34" cy="13" r="7" fill="#333333"/>
<circle cx="34" cy="13" r="5" fill="#EEEEEE"/>
<defs>
<linearGradient id="paint0_linear" x1="18" y1="0" x2="18" y2="25" gradientUnits="userSpaceOnUse">
<stop stop-color="#AAAAAA"/>
<stop offset="1" stop-color="#888888"/>
</linearGradient>
<linearGradient id="paint1_linear" x1="33.5" y1="0" x2="33.5" y2="25" gradientUnits="userSpaceOnUse">
<stop stop-color="#AAAAAA"/>
<stop offset="1" stop-color="#888888"/>
</linearGradient>
</defs>
</svg>
