<svg width="30" height="30" viewBox="0 0 30 30" fill="none" xmlns="http://www.w3.org/2000/svg">
<path d="M4.00432 29.8694C2.45214 29.5955 0.939099 28.3564 0.391273 26.8955C0.15649 26.2824 0.0912725 25.852 0.078229 24.5216L0.0651855 22.8911L3.62606 22.852L7.17388 22.8259L7.14779 26.3738L7.10866 29.9346L5.86953 29.9477C5.19127 29.9607 4.34345 29.9216 4.00432 29.8694Z" fill="#5269FF"/>
<path d="M11.4783 26.4129V22.8259H15H18.5217V26.4129V29.9998H15H11.4783V26.4129Z" fill="#5269FF"/>
<path d="M22.9303 29.9346C22.8651 29.8694 22.8259 28.252 22.8259 26.3216V22.8259H26.4129H29.9998V24.3129C29.9998 26.6346 29.4911 27.8607 28.0955 28.9433C27.1694 29.6477 26.3477 29.8825 24.5868 29.9607C23.7259 29.9998 22.9824 29.9868 22.9303 29.9346Z" fill="#5269FF"/>
<path d="M0 15V11.4783H3.58696H7.17391V15V18.5217H3.58696H0V15Z" fill="#5269FF"/>
<path d="M11.4783 9.26087V0H18.6391C25.4478 0 25.8391 0.0130435 26.6218 0.26087C28.1739 0.743478 29.2696 1.86522 29.7652 3.41739C29.987 4.13478 30 4.76087 30 11.3609V18.5217H20.7391H11.4783V9.26087Z" fill="#5269FF"/>
<path d="M0 5.68696C0 3.32609 0.613043 1.87826 2.03478 0.9C3 0.234783 3.96522 0 5.68696 0H7.17391V3.58696V7.17391H3.58696H0V5.68696Z" fill="#5269FF"/>
</svg>
