<svg width="106" height="25" viewBox="0 0 106 25" fill="none" xmlns="http://www.w3.org/2000/svg">
<rect x="24" width="82" height="25" rx="4" fill="#555555"/>
<rect x="53" y="8" width="47" height="10" fill="white"/>
<path d="M65.1574 16H67.6432C68.95 16 69.646 15.3182 69.646 14.392C69.646 13.5312 69.0296 13.0114 68.3676 12.9801V12.9233C68.9727 12.7869 69.4188 12.358 69.4188 11.6733C69.4188 10.8011 68.771 10.1818 67.4869 10.1818H65.1574V16ZM66.3875 14.9943V13.4489H67.4188C68.0097 13.4489 68.3762 13.7898 68.3762 14.2699C68.3762 14.7074 68.0779 14.9943 67.3904 14.9943H66.3875ZM66.3875 12.6165V11.1761H67.3222C67.8676 11.1761 68.1773 11.4574 68.1773 11.8778C68.1773 12.3381 67.8023 12.6165 67.2994 12.6165H66.3875ZM71.6893 16L72.1211 14.6733H74.2206L74.6524 16H75.9706L73.9649 10.1818H72.3796L70.3711 16H71.6893ZM72.4336 13.7131L73.1495 11.5114H73.195L73.9109 13.7131H72.4336ZM81.7773 10.1818H80.5529V13.8409H80.5017L77.9904 10.1818H76.9108V16H78.141V12.3381H78.1836L80.7148 16H81.7773V10.1818ZM85.0962 16C86.8689 16 87.9427 14.9034 87.9427 13.0852C87.9427 11.2727 86.8689 10.1818 85.1132 10.1818H83.0337V16H85.0962ZM84.2638 14.946V11.2358H85.0479C86.1388 11.2358 86.7155 11.7926 86.7155 13.0852C86.7155 14.3835 86.1388 14.946 85.045 14.946H84.2638Z" fill="#5269FF"/>
<rect width="36" height="25" rx="4" fill="url(#paint0_linear)"/>
<circle cx="33.5" cy="12.5" r="12.5" fill="url(#paint1_linear)"/>
<circle cx="34" cy="13" r="7" fill="#333333"/>
<circle cx="34" cy="13" r="5" fill="#EEEEEE"/>
<defs>
<linearGradient id="paint0_linear" x1="18" y1="0" x2="18" y2="25" gradientUnits="userSpaceOnUse">
<stop stop-color="#AAAAAA"/>
<stop offset="1" stop-color="#888888"/>
</linearGradient>
<linearGradient id="paint1_linear" x1="33.5" y1="0" x2="33.5" y2="25" gradientUnits="userSpaceOnUse">
<stop stop-color="#AAAAAA"/>
<stop offset="1" stop-color="#888888"/>
</linearGradient>
</defs>
</svg>
