<?xml version="1.0" encoding="UTF-8"?>
<svg width="249px" height="40px" viewBox="0 0 249 40" version="1.1" xmlns="http://www.w3.org/2000/svg" xmlns:xlink="http://www.w3.org/1999/xlink">
    <title>Ledger_band</title>
    <g id="Validator" stroke="none" stroke-width="1" fill="none" fill-rule="evenodd">
        <g id="Ledger_band" transform="translate(0.000000, 1.000000)">
            <g id="Ledger2-Copy">
                <path d="M40.5,0 L161.25,0 L161.25,0 L161.25,37.5 L40.5,37.5 C38.8431458,37.5 37.5,36.1568542 37.5,34.5 L37.5,3 C37.5,1.34314575 38.8431458,3.04359188e-16 40.5,0 Z" id="Rectangle" fill="#555555"></path>
                <path d="M72.2950994,22 C72.7958097,22 73.2112926,21.9222301 73.5415483,21.7666903 C73.871804,21.6111506 74.1189631,21.3986151 74.2830256,21.1290838 C74.4470881,20.8595526 74.5291193,20.5553977 74.5291193,20.2166193 C74.5291193,19.884233 74.4609375,19.6008523 74.3245739,19.3664773 C74.1882102,19.1321023 74.0129616,18.9504616 73.7988281,18.8215554 C73.5846946,18.6926491 73.3615057,18.621804 73.1292614,18.6090199 L73.1292614,18.6090199 L73.1292614,18.5450994 C73.3423295,18.4939631 73.5351562,18.4098011 73.7077415,18.2926136 C73.8803267,18.1754261 74.0177557,18.0225497 74.1200284,17.8339844 C74.2223011,17.645419 74.2734375,17.4179688 74.2734375,17.1516335 C74.2734375,16.8277699 74.1951349,16.5379972 74.0385298,16.2823153 C73.8819247,16.0266335 73.6464844,15.8247514 73.3322088,15.676669 C73.0179332,15.5285866 72.6242898,15.4545455 72.1512784,15.4545455 L72.1512784,15.4545455 L69.6455966,15.4545455 L69.6455966,22 L72.2950994,22 Z M72.0042614,18.2382812 L70.831321,18.2382812 L70.831321,16.4325284 L72.0298295,16.4325284 C72.3792614,16.4325284 72.6429332,16.5145597 72.8208452,16.6786222 C72.9987571,16.8426847 73.0877131,17.0514915 73.0877131,17.3050426 C73.0877131,17.496804 73.0403054,17.6624645 72.9454901,17.8020241 C72.8506747,17.9415838 72.7212358,18.0491832 72.5571733,18.1248224 C72.3931108,18.2004616 72.2088068,18.2382812 72.0042614,18.2382812 L72.0042614,18.2382812 Z M72.1065341,21.009233 L70.831321,21.009233 L70.831321,19.0916193 L72.1384943,19.0916193 C72.3835227,19.0916193 72.5944602,19.1368963 72.7713068,19.2274503 C72.9481534,19.3180043 73.084517,19.4415838 73.1803977,19.5981889 C73.2762784,19.754794 73.3242188,19.9300426 73.3242188,20.1239347 C73.3242188,20.3838778 73.2288707,20.5964134 73.0381747,20.7615412 C72.8474787,20.926669 72.5369318,21.009233 72.1065341,21.009233 L72.1065341,21.009233 Z M76.9235833,22.0990767 C77.1792651,22.0990767 77.402454,22.0633878 77.5931501,21.9920099 C77.7838461,21.9206321 77.9425819,21.8258168 78.0693574,21.7075639 C78.196133,21.5893111 78.294677,21.4620028 78.3649895,21.3256392 L78.3649895,21.3256392 L78.4033418,21.3256392 L78.4033418,22 L79.5155577,22 L79.5155577,18.7144886 C79.5155577,18.3884943 79.4564313,18.1168324 79.3381785,17.8995028 C79.2199256,17.6821733 79.0638532,17.5101207 78.8699611,17.3833452 C78.6760691,17.2565696 78.4619356,17.165483 78.2275606,17.1100852 C77.9931856,17.0546875 77.7577452,17.0269886 77.5212395,17.0269886 C77.1781998,17.0269886 76.8649895,17.0775923 76.5816089,17.1787997 C76.2982282,17.2800071 76.0585265,17.4312855 75.8625037,17.6326349 C75.666481,17.8339844 75.525856,18.0838068 75.4406287,18.3821023 L75.4406287,18.3821023 L76.5208844,18.5355114 C76.5784128,18.3671875 76.689741,18.2212358 76.8548688,18.0976562 C77.0199966,17.9740767 77.2442509,17.9122869 77.5276316,17.9122869 C77.7960975,17.9122869 78.0017083,17.9783381 78.144464,18.1104403 C78.2872197,18.2425426 78.3585975,18.4289773 78.3585975,18.6697443 L78.3585975,18.6697443 L78.3585975,18.6889205 C78.3585975,18.7997159 78.3175819,18.8812145 78.2355506,18.9334162 C78.1535194,18.9856179 78.0230151,19.0239702 77.8440378,19.048473 C77.6650606,19.0729759 77.4317509,19.100142 77.1441089,19.1299716 C76.9054725,19.1555398 76.6748262,19.1965554 76.4521699,19.2530185 C76.2295137,19.3094815 76.0297623,19.3920455 75.8529157,19.5007102 C75.6760691,19.609375 75.5365094,19.7542614 75.4342367,19.9353693 C75.331964,20.1164773 75.2808276,20.3455256 75.2808276,20.6225142 C75.2808276,20.9442472 75.3527381,21.2148438 75.4965591,21.434304 C75.6403802,21.6537642 75.8364029,21.8194247 76.0846273,21.9312855 C76.3328518,22.0431463 76.6125037,22.0990767 76.9235833,22.0990767 Z M77.2240094,21.2489347 C76.9832424,21.2489347 76.785089,21.1946023 76.6295492,21.0859375 C76.4740094,20.9772727 76.3962395,20.8164062 76.3962395,20.6033381 C76.3962395,20.4541903 76.4356572,20.3322088 76.5144924,20.2373935 C76.5933276,20.1425781 76.700927,20.0685369 76.8372907,20.0152699 C76.9736543,19.9620028 77.1281287,19.9236506 77.300714,19.9002131 C77.3774185,19.8895597 77.4679725,19.8767756 77.5723759,19.8618608 C77.6767793,19.846946 77.7822481,19.8299006 77.8887822,19.8107244 C77.9953162,19.7915483 78.0917296,19.7691761 78.1780222,19.743608 C78.2643148,19.7180398 78.3255719,19.6903409 78.3617935,19.6605114 L78.3617935,19.6605114 L78.3617935,20.2389915 C78.3617935,20.4200994 78.3154512,20.587358 78.2227665,20.740767 C78.1300819,20.8941761 77.9985123,21.017223 77.8280577,21.1099077 C77.6576032,21.2025923 77.4562537,21.2489347 77.2240094,21.2489347 Z M81.8403506,22 L81.8403506,19.1235795 C81.8403506,18.8870739 81.8845622,18.6857244 81.9729855,18.5195312 C82.0614088,18.3533381 82.183923,18.2260298 82.3405281,18.1376065 C82.4971333,18.0491832 82.6766432,18.0049716 82.879058,18.0049716 C83.1773534,18.0049716 83.4111958,18.0976562 83.580585,18.2830256 C83.7499742,18.4683949 83.8346688,18.725142 83.8346688,19.053267 L83.8346688,19.053267 L83.8346688,22 L84.991629,22 L84.991629,18.8742898 C84.9937597,18.4822443 84.9250452,18.1487926 84.7854855,17.8739347 C84.6459259,17.5990767 84.4499031,17.3892045 84.1974173,17.2443182 C83.9449316,17.0994318 83.6492994,17.0269886 83.310521,17.0269886 C82.9440438,17.0269886 82.6366929,17.1079545 82.3884685,17.2698864 C82.1402441,17.4318182 81.9596688,17.6502131 81.8467426,17.925071 L81.8467426,17.925071 L81.7892142,17.925071 L81.7892142,17.0909091 L80.6833904,17.0909091 L80.6833904,22 L81.8403506,22 Z M87.9920686,22.0862926 C88.2733186,22.0862926 88.5066282,22.0394176 88.6919975,21.9456676 C88.8773668,21.8519176 89.0265146,21.7384588 89.1394407,21.6052912 C89.2523668,21.4721236 89.3386595,21.3458807 89.3983186,21.2265625 L89.3983186,21.2265625 L89.4686311,21.2265625 L89.4686311,22 L90.6064151,22 L90.6064151,15.4545455 L89.4462589,15.4545455 L89.4462589,17.9026989 L89.3983186,17.9026989 C89.3386595,17.7833807 89.2544975,17.6560724 89.1458328,17.5207741 C89.037168,17.3854759 88.8901509,17.2693537 88.7047816,17.1724077 C88.5194123,17.0754616 88.2829066,17.0269886 87.9952646,17.0269886 C87.6181339,17.0269886 87.2761595,17.123402 86.9693413,17.3162287 C86.6625231,17.5090554 86.4190927,17.7935014 86.2390501,18.1695668 C86.0590075,18.5456321 85.9689862,19.006392 85.9689862,19.5518466 C85.9689862,20.0909091 86.0574095,20.5490057 86.2342561,20.9261364 C86.4111026,21.303267 86.6518697,21.5909091 86.9565572,21.7890625 C87.2612447,21.9872159 87.6064151,22.0862926 87.9920686,22.0862926 Z M88.3148668,21.1370739 C88.0613157,21.1370739 87.8477149,21.0683594 87.6740643,20.9309304 C87.5004137,20.7935014 87.3693768,20.6049361 87.2809535,20.3652344 C87.1925302,20.1255327 87.1483186,19.8522727 87.1483186,19.5454545 C87.1483186,19.240767 87.1919975,18.9701705 87.2793555,18.7336648 C87.3667134,18.4971591 87.496685,18.3117898 87.6692703,18.1775568 C87.8418555,18.0433239 88.0570543,17.9762074 88.3148668,17.9762074 C88.5641566,17.9762074 88.7745614,18.0411932 88.9460813,18.1711648 C89.1176012,18.3011364 89.2475728,18.4833097 89.3359961,18.7176847 C89.4244194,18.9520597 89.4686311,19.227983 89.4686311,19.5454545 C89.4686311,19.8629261 89.4238867,20.1409801 89.3343981,20.3796165 C89.2449095,20.6182528 89.1138725,20.8041548 88.9412873,20.9373224 C88.7687021,21.0704901 88.5598953,21.1370739 88.3148668,21.1370739 Z" id="Band" fill="#FFFFFF" fill-rule="nonzero"></path>
                <path d="M244.5,0 C246.156854,0 247.5,1.34314575 247.5,3 L247.5,34.5 C247.5,36.1568542 246.156854,37.5 244.5,37.5 L142.5,37.5 C132.144661,37.5 123.75,29.1053391 123.75,18.75 C123.75,8.50721897 131.96316,0.182724278 142.163029,0.00296716071 L142.5,0 L244.5,0 Z" id="Path" stroke="#EDEDED" stroke-width="1.5" fill="#EDEDED"></path>
                <circle id="Oval" fill="#555555" cx="142.5" cy="18.75" r="9"></circle>
                <path d="M21,11.25 L37.5,11.25 L37.5,11.25 L37.5,26.25 L21,26.25 C20.1715729,26.25 19.5,25.5784271 19.5,24.75 L19.5,12.75 C19.5,11.9215729 20.1715729,11.25 21,11.25 Z" id="Rectangle" fill="#555555"></path>
                <path d="M16.5,15.75 L19.5,15.75 L19.5,15.75 L19.5,21.75 L16.5,21.75 C15.6715729,21.75 15,21.0784271 15,20.25 L15,17.25 C15,16.4215729 15.6715729,15.75 16.5,15.75 Z" id="Rectangle" fill="#555555"></path>
                <path d="M1.5,17.25 L15,17.25 L15,17.25 L15,20.25 L1.5,20.25 C0.671572875,20.25 1.01453063e-16,19.5784271 0,18.75 C-1.01453063e-16,17.9215729 0.671572875,17.25 1.5,17.25 Z" id="Rectangle" fill="#555555"></path>
            </g>
            <path d="M55.999988,12 C52.1339352,12 49,15.133943 49,19 C49,22.866057 52.1339352,26 55.999988,26 C59.8660676,26 63,22.866057 63,19 C63,15.1340142 59.8659786,12 55.999988,12 Z M58.8788789,21.9235593 L55.9540385,23.6150872 L55.9540385,23.6157104 L55.9528277,23.6157104 L53.0261711,21.9235593 L53.0261711,16.0702352 L53.0291982,16.0720514 L55.9516168,14.3841738 L57.8273733,15.4308396 L57.8279787,15.4308396 L57.8279787,18.0732699 L56.9152476,17.5490289 L56.9152476,15.9575112 L55.9528277,15.4090266 L53.9382879,16.5738741 L53.9382879,21.4259568 L55.9528277,22.5908576 L57.9673675,21.4296071 L57.977072,19.4356982 L55.1146432,17.7750913 L56.0340428,17.2914491 L58.8861795,18.9544866 L58.8788789,21.9235593 Z M56.5044443,18.8098355 L55.8502181,19.1587627 L55.8502181,18.4369408 L55.1144562,18.0030055 L55.1144562,20.4078527 L57.2090004,19.2151292 L56.5044443,18.8098355 Z" id="Shape" fill="#FFFFFF"></path>
        </g>
    </g>
</svg>