<?xml version="1.0" encoding="UTF-8"?>
<svg width="249px" height="40px" viewBox="0 0 249 40" version="1.1" xmlns="http://www.w3.org/2000/svg" xmlns:xlink="http://www.w3.org/1999/xlink">
    <title>370E36F4-E053-4E8C-8000-541627BE74C9</title>
    <g id="Validator" stroke="none" stroke-width="1" fill="none" fill-rule="evenodd">
        <g id="Popup_Connect1" transform="translate(-846.000000, -625.000000)">
            <g id="Ledger2" transform="translate(846.000000, 626.000000)">
                <path d="M40.5,0 L161.25,0 L161.25,0 L161.25,37.5 L40.5,37.5 C38.8431458,37.5 37.5,36.1568542 37.5,34.5 L37.5,3 C37.5,1.34314575 38.8431458,3.04359188e-16 40.5,0 Z" id="Rectangle" fill="#555555"></path>
                <path d="M244.5,0 C246.156854,-3.04359188e-16 247.5,1.34314575 247.5,3 L247.5,34.5 C247.5,36.1568542 246.156854,37.5 244.5,37.5 L142.5,37.5 C132.144661,37.5 123.75,29.1053391 123.75,18.75 C123.75,8.39466094 132.144661,0 142.5,0 L142.5,0 L244.5,0 Z" id="Combined-Shape" stroke="#EDEDED" stroke-width="1.5" fill="#EDEDED"></path>
                <circle id="Oval" fill="#555555" cx="142.5" cy="18.75" r="9"></circle>
                <path d="M21,11.25 L37.5,11.25 L37.5,11.25 L37.5,26.25 L21,26.25 C20.1715729,26.25 19.5,25.5784271 19.5,24.75 L19.5,12.75 C19.5,11.9215729 20.1715729,11.25 21,11.25 Z" id="Rectangle" fill="#555555"></path>
                <path d="M16.5,15.75 L19.5,15.75 L19.5,15.75 L19.5,21.75 L16.5,21.75 C15.6715729,21.75 15,21.0784271 15,20.25 L15,17.25 C15,16.4215729 15.6715729,15.75 16.5,15.75 Z" id="Rectangle" fill="#555555"></path>
                <path d="M1.5,17.25 L15,17.25 L15,17.25 L15,20.25 L1.5,20.25 C0.671572875,20.25 1.01453063e-16,19.5784271 0,18.75 C-1.01453063e-16,17.9215729 0.671572875,17.25 1.5,17.25 Z" id="Rectangle" fill="#555555"></path>
                <g id="cosmos-plain-copy" transform="translate(49.500000, 12.000000)">
                    <rect id="a5a36894-1795-476e-b00b-c9b04c2d4991" fill="#FFFFFF" fill-rule="nonzero" x="0.0344117647" y="0.0344117647" width="13.3438235" height="13.3438235"></rect>
                    <circle id="Oval" stroke="#555555" cx="6.63617647" cy="6.51441176" r="2.60735294"></circle>
                    <line x1="2.63911765" y1="10.5194118" x2="10.5670588" y2="2.59147059" id="Path" stroke="#555555"></line>
                </g>
                <path d="M75.2482244,17.4129972 L74.0529119,17.4129972 C74.0188209,17.2169735 73.9559664,17.042792 73.8643466,16.8904474 C73.7727268,16.7381029 73.6587365,16.6086653 73.5223722,16.5021307 C73.3860078,16.3955961 73.2310023,16.3151636 73.0573509,16.260831 C72.8836994,16.2064983 72.696734,16.1793324 72.4964489,16.1793324 C72.1406232,16.1793324 71.8252855,16.2682875 71.5504261,16.4462003 C71.2755668,16.6241131 71.0603701,16.8840537 70.9048295,17.2260298 C70.749289,17.568006 70.6715199,17.9850828 70.6715199,18.4772727 C70.6715199,18.9779855 70.7498217,19.3993236 70.9064276,19.7412997 C71.0630335,20.0832759 71.2782302,20.3410858 71.5520241,20.5147372 C71.8258181,20.6883887 72.1395579,20.7752131 72.4932528,20.7752131 C72.6892765,20.7752131 72.873046,20.7491125 73.0445668,20.6969105 C73.2160875,20.6447085 73.3705604,20.5674721 73.5079901,20.4651989 C73.6454197,20.3629256 73.7615407,20.2372167 73.8563565,20.0880682 C73.9511723,19.9389197 74.0166902,19.7684669 74.0529119,19.5767045 L75.2482244,19.5830966 C75.2034799,19.8941777 75.1070675,20.1860782 74.9589844,20.4588068 C74.8109012,20.7315355 74.6175438,20.9717674 74.3789062,21.1795099 C74.1402687,21.3872525 73.8611522,21.5491827 73.5415483,21.6653054 C73.2219444,21.7814281 72.8671894,21.8394886 72.4772727,21.8394886 C71.9019858,21.8394886 71.3884966,21.7063224 70.9367898,21.4399858 C70.485083,21.1736492 70.1292627,20.789065 69.8693182,20.2862216 C69.6093737,19.7833782 69.4794034,19.1804012 69.4794034,18.4772727 C69.4794034,17.7720135 69.610439,17.1685039 69.8725142,16.6667259 C70.1345894,16.1649478 70.491475,15.7808962 70.9431818,15.5145597 C71.3948886,15.2482231 71.9062471,15.1150568 72.4772727,15.1150568 C72.8416211,15.1150568 73.1803962,15.1661927 73.493608,15.2684659 C73.8068197,15.3707391 74.0859363,15.520418 74.3309659,15.7175071 C74.5759955,15.9145962 74.7778756,16.1553608 74.9366122,16.4398082 C75.0953488,16.7242557 75.1992185,17.0486487 75.2482244,17.4129972 Z M78.4295545,21.8458807 C77.9501487,21.8458807 77.5346699,21.740413 77.1831056,21.5294744 C76.8315414,21.3185359 76.5593495,21.0234394 76.3665218,20.6441761 C76.1736942,20.2649129 76.0772818,19.8217355 76.0772818,19.3146307 C76.0772818,18.8075259 76.1736942,18.3632832 76.3665218,17.9818892 C76.5593495,17.6004953 76.8315414,17.3043334 77.1831056,17.0933949 C77.5346699,16.8824563 77.9501487,16.7769886 78.4295545,16.7769886 C78.9089603,16.7769886 79.3244391,16.8824563 79.6760034,17.0933949 C80.0275676,17.3043334 80.2997595,17.6004953 80.4925872,17.9818892 C80.6854148,18.3632832 80.7818272,18.8075259 80.7818272,19.3146307 C80.7818272,19.8217355 80.6854148,20.2649129 80.4925872,20.6441761 C80.2997595,21.0234394 80.0275676,21.3185359 79.6760034,21.5294744 C79.3244391,21.740413 78.9089603,21.8458807 78.4295545,21.8458807 Z M78.4359466,20.9190341 C78.695891,20.9190341 78.9132184,20.8471243 79.0879352,20.7033026 C79.262652,20.5594808 79.3931549,20.3661234 79.479448,20.1232244 C79.565741,19.8803255 79.6088869,19.6097316 79.6088869,19.3114347 C79.6088869,19.011007 79.565741,18.7388151 79.479448,18.4948509 C79.3931549,18.2508866 79.262652,18.0564638 79.0879352,17.9115767 C78.9132184,17.7666896 78.695891,17.6942472 78.4359466,17.6942472 C78.16961,17.6942472 77.948554,17.7666896 77.7727718,17.9115767 C77.5969897,18.0564638 77.4659541,18.2508866 77.379661,18.4948509 C77.293368,18.7388151 77.2502221,19.011007 77.2502221,19.3114347 C77.2502221,19.6097316 77.293368,19.8803255 77.379661,20.1232244 C77.4659541,20.3661234 77.5969897,20.5594808 77.7727718,20.7033026 C77.948554,20.8471243 78.16961,20.9190341 78.4359466,20.9190341 Z M85.639788,18.1384943 L84.5851005,18.2535511 C84.5552708,18.1470165 84.5036023,18.0468755 84.4300934,17.953125 C84.3565845,17.8593745 84.2580415,17.7837361 84.1344613,17.7262074 C84.0108812,17.6686787 83.8596043,17.6399148 83.6806261,17.6399148 C83.4398578,17.6399148 83.2379778,17.692116 83.0749798,17.7965199 C82.9119818,17.9009238 82.8315494,18.0362208 82.8336801,18.2024148 C82.8315494,18.3451712 82.8842832,18.4612922 82.9918832,18.5507813 C83.0994832,18.6402703 83.277926,18.7137781 83.527217,18.7713068 L84.364575,18.9502841 C84.8290659,19.0504266 85.1747656,19.2091608 85.4016843,19.4264915 C85.6286031,19.6438221 85.7431261,19.9282653 85.7452568,20.2798295 C85.7431261,20.58878 85.6531057,20.8609718 85.4751929,21.0964134 C85.29728,21.3318549 85.0506561,21.5156243 84.7353136,21.6477273 C84.4199711,21.7798302 84.0577588,21.8458807 83.6486659,21.8458807 C83.0478106,21.8458807 82.5641506,21.719639 82.1976715,21.467152 C81.8311924,21.2146649 81.6127997,20.8625733 81.5424869,20.4108665 L82.6706829,20.3022017 C82.7218195,20.5237937 82.8304832,20.6910506 82.9966772,20.8039773 C83.1628712,20.916904 83.3791333,20.9733665 83.6454698,20.9733665 C83.9203292,20.9733665 84.1413852,20.916904 84.3086446,20.8039773 C84.4759039,20.6910506 84.5595323,20.5514923 84.5595323,20.3852983 C84.5595323,20.2446726 84.5057332,20.1285516 84.3981332,20.0369318 C84.2905332,19.945312 84.123809,19.8750002 83.8979556,19.8259943 L83.0605977,19.6502131 C82.5897146,19.5522012 82.2413517,19.3865424 82.0154982,19.1532315 C81.7896448,18.9199207 81.6777852,18.6242916 81.6799159,18.2663352 C81.6777852,17.9637769 81.7603483,17.701173 81.9276076,17.4785156 C82.094867,17.2558583 82.3281743,17.0832748 82.6275366,16.9607599 C82.9268989,16.8382451 83.2725986,16.7769886 83.664646,16.7769886 C84.2399329,16.7769886 84.693231,16.8995016 85.0245536,17.1445313 C85.3558763,17.3895609 85.5609524,17.7208786 85.639788,18.1384943 Z M86.6996035,21.75 L86.6996035,16.8409091 L87.8054274,16.8409091 L87.8054274,17.675071 L87.8629558,17.675071 C87.965229,17.3938196 88.1346165,17.1738289 88.3711234,17.0150923 C88.6076303,16.8563557 88.8899428,16.7769886 89.2180694,16.7769886 C89.5504574,16.7769886 89.831172,16.8574211 90.0602214,17.0182884 C90.2892709,17.1791556 90.4506684,17.398081 90.5444189,17.675071 L90.5955552,17.675071 C90.7042205,17.4023424 90.88799,17.1844823 91.1468691,17.0214844 C91.4057483,16.8584864 91.7130961,16.7769886 92.0689217,16.7769886 C92.5206285,16.7769886 92.8892328,16.9197429 93.1747456,17.2052557 C93.4602584,17.4907685 93.6030126,17.9073126 93.6030126,18.4549006 L93.6030126,21.75 L92.4428564,21.75 L92.4428564,18.6338778 C92.4428564,18.3291888 92.3618913,18.1060021 92.1999586,17.9643111 C92.038026,17.82262 91.8398746,17.7517756 91.6054984,17.7517756 C91.3263777,17.7517756 91.1085176,17.8386 90.9519118,18.0122514 C90.7953059,18.1859029 90.7170041,18.4112202 90.7170041,18.6882102 L90.7170041,21.75 L89.582416,21.75 L89.582416,18.5859375 C89.582416,18.3323851 89.5062449,18.1299723 89.3539004,17.9786932 C89.2015559,17.827414 89.0028718,17.7517756 88.7578422,17.7517756 C88.5916481,17.7517756 88.4403712,17.7938561 88.3040069,17.8780185 C88.1676426,17.9621808 88.0589789,18.0804325 87.9780126,18.232777 C87.8970463,18.3851215 87.8565637,18.562499 87.8565637,18.7649148 L87.8565637,21.75 L86.6996035,21.75 Z M96.9204998,21.8458807 C96.441094,21.8458807 96.0256152,21.740413 95.6740509,21.5294744 C95.3224867,21.3185359 95.0502948,21.0234394 94.8574671,20.6441761 C94.6646395,20.2649129 94.5682271,19.8217355 94.5682271,19.3146307 C94.5682271,18.8075259 94.6646395,18.3632832 94.8574671,17.9818892 C95.0502948,17.6004953 95.3224867,17.3043334 95.6740509,17.0933949 C96.0256152,16.8824563 96.441094,16.7769886 96.9204998,16.7769886 C97.3999056,16.7769886 97.8153844,16.8824563 98.1669487,17.0933949 C98.5185129,17.3043334 98.7907048,17.6004953 98.9835325,17.9818892 C99.1763601,18.3632832 99.2727725,18.8075259 99.2727725,19.3146307 C99.2727725,19.8217355 99.1763601,20.2649129 98.9835325,20.6441761 C98.7907048,21.0234394 98.5185129,21.3185359 98.1669487,21.5294744 C97.8153844,21.740413 97.3999056,21.8458807 96.9204998,21.8458807 Z M96.9268918,20.9190341 C97.1868363,20.9190341 97.4041637,20.8471243 97.5788805,20.7033026 C97.7535973,20.5594808 97.8841002,20.3661234 97.9703933,20.1232244 C98.0566863,19.8803255 98.0998322,19.6097316 98.0998322,19.3114347 C98.0998322,19.011007 98.0566863,18.7388151 97.9703933,18.4948509 C97.8841002,18.2508866 97.7535973,18.0564638 97.5788805,17.9115767 C97.4041637,17.7666896 97.1868363,17.6942472 96.9268918,17.6942472 C96.6605553,17.6942472 96.4394993,17.7666896 96.2637171,17.9115767 C96.087935,18.0564638 95.9568994,18.2508866 95.8706063,18.4948509 C95.7843133,18.7388151 95.7411674,19.011007 95.7411674,19.3114347 C95.7411674,19.6097316 95.7843133,19.8803255 95.8706063,20.1232244 C95.9568994,20.3661234 96.087935,20.5594808 96.2637171,20.7033026 C96.4394993,20.8471243 96.6605553,20.9190341 96.9268918,20.9190341 Z M104.130733,18.1384943 L103.076046,18.2535511 C103.046216,18.1470165 102.994548,18.0468755 102.921039,17.953125 C102.84753,17.8593745 102.748987,17.7837361 102.625407,17.7262074 C102.501826,17.6686787 102.35055,17.6399148 102.171571,17.6399148 C101.930803,17.6399148 101.728923,17.692116 101.565925,17.7965199 C101.402927,17.9009238 101.322495,18.0362208 101.324625,18.2024148 C101.322495,18.3451712 101.375229,18.4612922 101.482828,18.5507813 C101.590428,18.6402703 101.768871,18.7137781 102.018162,18.7713068 L102.85552,18.9502841 C103.320011,19.0504266 103.665711,19.2091608 103.89263,19.4264915 C104.119548,19.6438221 104.234071,19.9282653 104.236202,20.2798295 C104.234071,20.58878 104.144051,20.8609718 103.966138,21.0964134 C103.788225,21.3318549 103.541601,21.5156243 103.226259,21.6477273 C102.910916,21.7798302 102.548704,21.8458807 102.139611,21.8458807 C101.538756,21.8458807 101.055096,21.719639 100.688617,21.467152 C100.322138,21.2146649 100.103745,20.8625733 100.033432,20.4108665 L101.161628,20.3022017 C101.212765,20.5237937 101.321429,20.6910506 101.487623,20.8039773 C101.653817,20.916904 101.870079,20.9733665 102.136415,20.9733665 C102.411274,20.9733665 102.63233,20.916904 102.79959,20.8039773 C102.966849,20.6910506 103.050478,20.5514923 103.050478,20.3852983 C103.050478,20.2446726 102.996678,20.1285516 102.889078,20.0369318 C102.781479,19.945312 102.614754,19.8750002 102.388901,19.8259943 L101.551543,19.6502131 C101.08066,19.5522012 100.732297,19.3865424 100.506444,19.1532315 C100.28059,18.9199207 100.16873,18.6242916 100.170861,18.2663352 C100.16873,17.9637769 100.251294,17.701173 100.418553,17.4785156 C100.585812,17.2558583 100.81912,17.0832748 101.118482,16.9607599 C101.417844,16.8382451 101.763544,16.7769886 102.155591,16.7769886 C102.730878,16.7769886 103.184176,16.8995016 103.515499,17.1445313 C103.846822,17.3895609 104.051898,17.7208786 104.130733,18.1384943 Z" id="Cosmos" fill="#FFFFFF" fill-rule="nonzero"></path>
            </g>
        </g>
    </g>
</svg>