<svg width="16" height="16" viewBox="0 0 16 16" fill="none" xmlns="http://www.w3.org/2000/svg">
<path d="M15.261 0.17749H10.5764C10.1682 0.17749 9.83726 0.515891 9.83726 0.933412C9.83726 1.35093 10.1682 1.68933 10.5764 1.68933H13.4765L6.38887 8.93778C6.10019 9.23301 6.10019 9.71159 6.38887 10.0068C6.53325 10.1544 6.72239 10.2282 6.91154 10.2282C7.10068 10.2282 7.28982 10.1544 7.4342 10.0068L14.5218 2.75837V5.72436C14.5218 6.14188 14.8527 6.48028 15.261 6.48028C15.6692 6.48028 16.0001 6.14188 16.0001 5.72436V0.933496C16.0001 0.515891 15.6692 0.17749 15.261 0.17749Z" fill="#5269FF"/>
<path d="M12.2371 6.48031C11.8288 6.48031 11.4979 6.81871 11.4979 7.23623V14.6658H1.4783V4.41882H9.1801C9.58835 4.41882 9.91925 4.08042 9.91925 3.6629C9.91925 3.24538 9.58835 2.90698 9.1801 2.90698H0.739151C0.330893 2.90698 0 3.24538 0 3.6629V15.4217C0 15.8392 0.330893 16.1776 0.739151 16.1776H12.2371C12.6453 16.1776 12.9762 15.8392 12.9762 15.4217V7.23623C12.9762 6.81871 12.6453 6.48031 12.2371 6.48031Z" fill="#5269FF"/>
</svg>
