<?xml version="1.0" encoding="UTF-8"?>
<svg width="26px" height="13px" viewBox="0 0 26 13" version="1.1" xmlns="http://www.w3.org/2000/svg" xmlns:xlink="http://www.w3.org/1999/xlink">
    <!-- Generator: sketchtool 59.1 (101010) - https://sketch.com -->
    <title>FB8A1189-CED4-4FD1-A7B0-7C586CC12B06</title>
    <desc>Created with sketchtool.</desc>
    <defs>
        <filter x="-8.5%" y="-4.7%" width="116.9%" height="109.4%" filterUnits="objectBoundingBox" id="filter-1">
            <feOffset dx="0" dy="2" in="SourceAlpha" result="shadowOffsetOuter1"></feOffset>
            <feGaussianBlur stdDeviation="2" in="shadowOffsetOuter1" result="shadowBlurOuter1"></feGaussianBlur>
            <feColorMatrix values="0 0 0 0 0   0 0 0 0 0   0 0 0 0 0  0 0 0 0.08 0" type="matrix" in="shadowBlurOuter1" result="shadowMatrixOuter1"></feColorMatrix>
            <feMerge>
                <feMergeNode in="shadowMatrixOuter1"></feMergeNode>
                <feMergeNode in="SourceGraphic"></feMergeNode>
            </feMerge>
        </filter>
    </defs>
    <g id="Mobile-UI" stroke="none" stroke-width="1" fill="none" fill-rule="evenodd">
        <g id="Validator-Home---Sort-by" transform="translate(-223.000000, -498.000000)">
            <g id="Group-12" filter="url(#filter-1)" transform="translate(218.000000, 424.000000)">
                <g id="icon/descending-copy-3" transform="translate(8.000000, 74.000000)">
                    <g id="Group-12">
                        <rect id="Rectangle" x="0" y="0" width="20" height="12"></rect>
                        <polygon id="" fill="#142AB8" fill-rule="nonzero" transform="translate(5.000000, 5.800000) scale(1, -1) translate(-5.000000, -5.800000) " points="0.992 5.8 5 1.792 9.008 5.8 8.276 6.508 5.492 3.712 5.492 9.808 4.508 9.808 4.508 3.712 1.7 6.508"></polygon>
                        <path d="M10.008,2.536 L18.992,2.536 L18.992,3.544 L10.008,3.544 L10.008,2.536 Z M10.008,5.044 L15.668,5.044 L15.668,6.052 L10.008,6.052 L10.008,5.044 Z M10.008,7.552 L12.334667,7.552 L12.334667,8.536 L10.008,8.536 L10.008,7.552 Z" id="" fill="#142AB8" fill-rule="nonzero" transform="translate(14.500000, 5.536000) scale(1, -1) translate(-14.500000, -5.536000) "></path>
                    </g>
                </g>
            </g>
        </g>
    </g>
</svg>