<svg width="640" height="425" viewBox="0 0 640 425" fill="none" xmlns="http://www.w3.org/2000/svg">
<path d="M244.994 79.8705L389.028 -77.9092L250.141 -46.378L244.994 79.8705Z" fill="#5269FF" fill-opacity="0.1"/>
<path d="M246.053 79.2756L344.919 -30.0699L183.704 -100.541L246.053 79.2756Z" fill="#5269FF" fill-opacity="0.1"/>
<path d="M169.727 76.4318L346.135 -67.8723L185.538 -99.6517L169.727 76.4318Z" fill="#5269FF" fill-opacity="0.1"/>
<path d="M166.493 75.0496L201.762 -48.1363L38.9852 -42.2112L166.493 75.0496Z" fill="#5269FF" fill-opacity="0.1"/>
<path d="M110 66L270.675 26.2163L215.777 -11.8376L110 66Z" fill="#5269FF" fill-opacity="0.3"/>
<path d="M20.3127 2.72235L-49.5049 236.06L64.3268 104.477L20.3127 2.72235Z" fill="#5269FF" fill-opacity="0.1"/>
<path d="M19.5756 4.01424L-27.9383 164.97L145.471 95.1796L19.5756 4.01424Z" fill="#5269FF" fill-opacity="0.1"/>
<path d="M89.9061 -52.6648L-14.4646 195.185L143.465 95.9059L89.9061 -52.6648Z" fill="#5269FF" fill-opacity="0.3"/>
<path d="M93.3715 -54.0885L108.883 68.5244L254.25 -61.6382L93.3715 -54.0885Z" fill="#5269FF" fill-opacity="0.1"/>
<path d="M160.797 -60.0266L9.53198 26.2102L59.0229 50.4712L160.797 -60.0266Z" fill="#5269FF" fill-opacity="0.3"/>
<path d="M592.005 251.994L747.015 331.279L671.409 180.538L592.005 251.994Z" fill="#5269FF" fill-opacity="0.1"/>
<path d="M592.798 252.923L660.5 327L677.651 65.7807L592.798 252.923Z" fill="#5269FF" fill-opacity="0.1"/>
<path d="M563.602 157.659L723.483 284.91L677.85 68.5754L563.602 157.659Z" fill="#5269FF" fill-opacity="0.1"/>
<path d="M563.138 152.846L652.877 120.183L583.269 -75.5996L563.138 152.846Z" fill="#5269FF" fill-opacity="0.1"/>
<path d="M569.601 57.3412L607.006 265.311L632.122 192.742L569.601 57.3412Z" fill="#5269FF" fill-opacity="0.3"/>
<path d="M548.169 -70.8007L376.987 -12.6233L503.697 45.7962L548.169 -70.8007Z" fill="#5269FF" fill-opacity="0.3"/>
<path d="M547.092 -70.9089L429.259 -29.9844L542.289 139.488L547.092 -70.9089Z" fill="#5269FF" fill-opacity="0.1"/>
<path d="M610.311 -19.6513L416.215 5.13449L541.031 137.478L610.311 -19.6513Z" fill="#5269FF" fill-opacity="0.1"/>
<path d="M612.588 -16.2821L543.783 78.2432L682.421 176.174L612.588 -16.2821Z" fill="#5269FF" fill-opacity="0.3"/>
<path d="M396.715 -92.5341L260.369 17.3057L504.805 46.0831L396.715 -92.5341Z" fill="#5269FF" fill-opacity="0.1"/>
<path d="M643.554 62.6697L529.427 -69.5422L534.629 6.03645L643.554 62.6697Z" fill="#5269FF" fill-opacity="0.1"/>
</svg>
