<svg width="150" height="150" viewBox="0 0 150 150" fill="none" xmlns="http://www.w3.org/2000/svg">
<path d="M106.105 28.3411L114.542 19.4756C114.89 19.1106 115.054 18.5944 114.984 18.0832C114.915 17.572 114.62 17.1244 114.19 16.8755L104.047 11.0231C103.29 10.587 102.341 10.8775 101.925 11.6722C101.51 12.4674 101.786 13.4654 102.543 13.9015L110.861 18.7008L103.62 26.3086L77.5781 11.2822L84.8181 3.67441L92.1369 7.89776C92.8931 8.33389 93.8434 8.04399 94.2585 7.24871C94.6741 6.45406 94.3976 5.45547 93.6408 5.01934L85.2942 0.202737C84.6851 -0.148728 83.9283 -0.0352077 83.4375 0.481087L75 9.34723L66.5625 0.481087C66.0711 -0.0352077 65.3143 -0.148087 64.7058 0.202737L35.8104 16.8755C35.3795 17.1244 35.0847 17.5714 35.0157 18.0832C34.9462 18.5944 35.1097 19.1106 35.4576 19.4756L43.8946 28.3411L35.4576 37.206C35.1097 37.5715 34.9462 38.0872 35.0157 38.599C35.0847 39.1101 35.3795 39.5578 35.8104 39.806L44.5421 44.8445V61.6853C44.5421 62.285 44.8528 62.8366 45.3527 63.1252L74.248 79.7973C74.4824 79.9327 74.7412 80 75 80C75.2588 80 75.5176 79.9327 75.752 79.7973L104.647 63.1252C105.147 62.8366 105.458 62.285 105.458 61.6853V44.8445L114.19 39.8067C114.62 39.5578 114.915 39.1101 114.984 38.599C115.054 38.0878 114.89 37.5715 114.542 37.2066L106.105 28.3411ZM75 43.1398L49.3511 28.3404L75 13.5404L100.649 28.3404L75 43.1398ZM65.1825 3.67441L72.4219 11.2822L46.3799 26.3086L39.1399 18.7008L65.1825 3.67441ZM46.3811 30.3729L72.4231 45.3993L65.1825 53.0078L39.1399 37.9814L46.3811 30.3729ZM102.333 60.7143L76.5625 75.5836V58.7999C76.5625 57.893 75.863 57.158 75 57.158C74.137 57.158 73.4375 57.893 73.4375 58.7999V75.5836L47.6671 60.7143V46.648L64.7058 56.4794C64.942 56.6154 65.2008 56.6821 65.4571 56.6821C65.8618 56.6821 66.2622 56.5166 66.5625 56.2011L75 47.3349L83.4375 56.2011C83.7378 56.5173 84.1382 56.6821 84.5429 56.6821C84.7992 56.6821 85.058 56.6154 85.2942 56.4794L102.333 46.648V60.7143ZM84.8181 53.0078L77.5775 45.3987L103.619 30.3729L110.861 37.9807L84.8181 53.0078Z" fill="#CED4FD"/>
<path d="M21.5757 115.273H20.5359V122.142H20.4507L15.678 115.273H14.6553V124H15.7121V117.148H15.7973L20.553 124H21.5757V115.273ZM32.2541 119.636C32.2541 116.875 30.6347 115.153 28.4018 115.153C26.1688 115.153 24.5495 116.875 24.5495 119.636C24.5495 122.398 26.1688 124.119 28.4018 124.119C30.6347 124.119 32.2541 122.398 32.2541 119.636ZM31.2313 119.636C31.2313 121.903 29.987 123.131 28.4018 123.131C26.8165 123.131 25.5722 121.903 25.5722 119.636C25.5722 117.369 26.8165 116.142 28.4018 116.142C29.987 116.142 31.2313 117.369 31.2313 119.636ZM39.3288 116.21H42.0731V124H43.1299V116.21H45.8742V115.273H39.3288V116.21ZM48.7053 124H49.7621V120.591H51.6712C51.7479 120.591 51.8203 120.591 51.8928 120.587L53.7337 124H54.9609L52.9879 120.395C54.1001 120.016 54.62 119.108 54.62 117.949C54.62 116.406 53.6996 115.273 51.6541 115.273H48.7053V124ZM49.7621 119.636V116.21H51.62C53.0348 116.21 53.5803 116.901 53.5803 117.949C53.5803 118.997 53.0348 119.636 51.6371 119.636H49.7621ZM57.939 124L58.8168 121.528H62.3452L63.2231 124H64.331L61.1265 115.273H60.0356L56.831 124H57.939ZM59.1492 120.591L60.5469 116.653H60.6151L62.0129 120.591H59.1492ZM73.8109 115.273H72.7711V122.142H72.6859L67.9131 115.273H66.8904V124H67.9472V117.148H68.0325L72.7881 124H73.8109V115.273ZM81.8983 117.455H82.921C82.8742 116.138 81.6597 115.153 79.9722 115.153C78.3017 115.153 76.9892 116.125 76.9892 117.591C76.9892 118.767 77.8415 119.466 79.2051 119.858L80.279 120.165C81.1994 120.42 82.0176 120.744 82.0176 121.614C82.0176 122.568 81.0972 123.199 79.8869 123.199C78.8472 123.199 77.9267 122.739 77.8415 121.75H76.7506C76.8528 123.182 78.0119 124.153 79.8869 124.153C81.8983 124.153 83.0403 123.045 83.0403 121.631C83.0403 119.994 81.4892 119.466 80.5858 119.227L79.6994 118.989C79.0517 118.818 78.0119 118.477 78.0119 117.54C78.0119 116.705 78.779 116.091 79.9381 116.091C80.9949 116.091 81.796 116.594 81.8983 117.455ZM86.3359 124L87.2137 121.528H90.7421L91.62 124H92.7279L89.5234 115.273H88.4325L85.2279 124H86.3359ZM87.5461 120.591L88.9438 116.653H89.012L90.4097 120.591H87.5461ZM101.9 118C101.576 116.21 100.144 115.153 98.3885 115.153C96.1555 115.153 94.5362 116.875 94.5362 119.636C94.5362 122.398 96.1555 124.119 98.3885 124.119C100.144 124.119 101.576 123.062 101.9 121.273H100.843C100.587 122.483 99.5476 123.131 98.3885 123.131C96.8033 123.131 95.5589 121.903 95.5589 119.636C95.5589 117.369 96.8033 116.142 98.3885 116.142C99.5476 116.142 100.587 116.79 100.843 118H101.9ZM104.33 116.21H107.075V124H108.131V116.21H110.876V115.273H104.33V116.21ZM114.764 115.273H113.707V124H114.764V115.273ZM125.446 119.636C125.446 116.875 123.827 115.153 121.594 115.153C119.361 115.153 117.742 116.875 117.742 119.636C117.742 122.398 119.361 124.119 121.594 124.119C123.827 124.119 125.446 122.398 125.446 119.636ZM124.424 119.636C124.424 121.903 123.179 123.131 121.594 123.131C120.009 123.131 118.764 121.903 118.764 119.636C118.764 117.369 120.009 116.142 121.594 116.142C123.179 116.142 124.424 117.369 124.424 119.636ZM135.344 115.273H134.304V122.142H134.219L129.446 115.273H128.423V124H129.48V117.148H129.565L134.321 124H135.344V115.273Z" fill="#7183F4"/>
</svg>
