<svg width="81" height="80" viewBox="0 0 81 80" fill="none" xmlns="http://www.w3.org/2000/svg">
<g clip-path="url(#clip0)">
<path d="M74.7935 80.0001H39.5402C36.3935 80.0001 33.8335 77.4501 33.8335 74.3201C33.8335 73.2034 34.1468 72.1501 34.7402 71.2667L52.3102 42.7167C53.2935 41.0534 55.1602 40.0001 57.1668 40.0001C59.1735 40.0001 61.0402 41.0534 62.0435 42.7567L79.6468 71.3501C80.1868 72.1501 80.5002 73.2034 80.5002 74.3201C80.5002 77.4501 77.9402 80.0001 74.7935 80.0001ZM57.1668 45.0001C56.8735 45.0001 56.6768 45.1601 56.5935 45.2967L38.8335 74.3201C38.8335 74.6867 39.1568 75.0001 39.5402 75.0001H74.7935C75.1768 75.0001 75.5002 74.6867 75.5002 74.3201C75.5002 74.2101 75.4802 74.1101 75.4435 74.0601L57.7602 45.3401C57.6568 45.1601 57.4602 45.0001 57.1668 45.0001Z" fill="#CED4FD"/>
<path d="M57.1665 65.0001C55.7865 65.0001 54.6665 63.8801 54.6665 62.5001V55.8334C54.6665 54.4534 55.7865 53.3334 57.1665 53.3334C58.5465 53.3334 59.6665 54.4534 59.6665 55.8334V62.5001C59.6665 63.8801 58.5465 65.0001 57.1665 65.0001Z" fill="#CED4FD"/>
<path d="M57.1665 73.3334C58.5472 73.3334 59.6665 72.2141 59.6665 70.8334C59.6665 69.4527 58.5472 68.3334 57.1665 68.3334C55.7858 68.3334 54.6665 69.4527 54.6665 70.8334C54.6665 72.2141 55.7858 73.3334 57.1665 73.3334Z" fill="#CED4FD"/>
<path d="M28.2667 70.0001H9.66667C4.61 70.0001 0.5 65.8901 0.5 60.8334V9.16673C0.5 4.11006 4.61 6.10352e-05 9.66667 6.10352e-05H48C53.0567 6.10352e-05 57.1667 4.11006 57.1667 9.16673V32.7667C57.1667 34.1467 56.0467 35.2667 54.6667 35.2667C53.2867 35.2667 52.1667 34.1467 52.1667 32.7667V9.16673C52.1667 6.87006 50.2967 5.00006 48 5.00006H9.66667C7.37 5.00006 5.5 6.87006 5.5 9.16673V60.8334C5.5 63.1301 7.37 65.0001 9.66667 65.0001H28.2667C29.6467 65.0001 30.7667 66.1201 30.7667 67.5001C30.7667 68.8801 29.6467 70.0001 28.2667 70.0001Z" fill="#CED4FD"/>
<path d="M44.6667 31.6667H13C11.62 31.6667 10.5 30.5467 10.5 29.1667C10.5 27.7867 11.62 26.6667 13 26.6667H44.6667C46.0467 26.6667 47.1667 27.7867 47.1667 29.1667C47.1667 30.5467 46.0467 31.6667 44.6667 31.6667Z" fill="#CED4FD"/>
<path d="M31.3333 45.0001H13C11.62 45.0001 10.5 43.8801 10.5 42.5001C10.5 41.1201 11.62 40.0001 13 40.0001H31.3333C32.7133 40.0001 33.8333 41.1201 33.8333 42.5001C33.8333 43.8801 32.7133 45.0001 31.3333 45.0001Z" fill="#CED4FD"/>
<path d="M28 18.3334H13C11.62 18.3334 10.5 17.2134 10.5 15.8334C10.5 14.4534 11.62 13.3334 13 13.3334H28C29.38 13.3334 30.5 14.4534 30.5 15.8334C30.5 17.2134 29.38 18.3334 28 18.3334Z" fill="#CED4FD"/>
</g>
<defs>
<clipPath id="clip0">
<rect x="0.5" y="6.10352e-05" width="80" height="80" fill="white"/>
</clipPath>
</defs>
</svg>
