<svg width="184" height="162" viewBox="0 0 184 162" fill="none" xmlns="http://www.w3.org/2000/svg">
<g clip-path="url(#clip0)">
<path d="M23.8768 63.9863C20.9221 63.9863 18.5184 61.5825 18.5184 58.6278C18.5184 55.6731 20.9221 53.2694 23.8768 53.2694H40.8892L38.7537 57.0351C37.764 58.7798 36.8764 60.595 36.1149 62.4311L35.4693 63.9863H23.8768Z" fill="#E2E3E9"/>
<path d="M111.976 159.177C108.76 159.177 106.144 156.561 106.144 153.346C106.144 150.131 108.76 147.515 111.976 147.515H119.089C119.074 147.35 119.068 147.194 119.068 147.042C119.068 143.827 121.684 141.211 124.899 141.211H147.594C150.809 141.211 153.425 143.827 153.425 147.042C153.425 150.257 150.809 152.873 147.594 152.873H140.481C140.495 153.038 140.501 153.194 140.501 153.346C140.501 156.561 137.886 159.177 134.67 159.177H111.976Z" fill="#E2E3E9"/>
<path d="M120.801 57.367C116.022 57.367 112.133 53.4787 112.133 48.699C112.133 47.4325 112.4 46.2146 112.928 45.0742H108.824C104.044 45.0742 100.156 41.1858 100.156 36.4061C100.156 31.6264 104.044 27.7381 108.824 27.7381H113.08C112.46 26.5245 112.133 25.1682 112.133 23.798C112.133 22.3021 112.518 20.8367 113.248 19.5428H79.5099C74.7305 19.5428 70.8419 15.6545 70.8419 10.8748C70.8419 6.09505 74.7305 2.20673 79.5099 2.20673H135.616C140.395 2.20673 144.284 6.09505 144.284 10.8748C144.284 12.3732 143.898 13.8405 143.166 15.136C147.804 15.2955 151.534 19.1258 151.534 23.798C151.534 28.5778 147.645 32.4661 142.865 32.4661H132.305C132.925 33.6796 133.252 35.0362 133.252 36.4061C133.252 37.6726 132.985 38.8905 132.458 40.0309H150.43C155.21 40.0309 159.098 43.9193 159.098 48.699C159.098 53.4787 155.21 57.367 150.43 57.367H120.801Z" fill="#E2E3E9"/>
<path d="M85.2986 10.8748C85.2986 6.09505 89.1872 2.20673 93.9666 2.20673H79.5099C74.7305 2.20673 70.8419 6.09505 70.8419 10.8748C70.8419 15.6545 74.7305 19.5428 79.5099 19.5428H93.9666C89.1872 19.5428 85.2986 15.6545 85.2986 10.8748Z" fill="#C5C7D3"/>
<path d="M126.59 48.699C126.59 47.4325 126.857 46.2146 127.384 45.0742H123.28C118.501 45.0742 114.612 41.1858 114.612 36.4061C114.612 31.6264 118.501 27.7381 123.28 27.7381H127.537C126.917 26.5245 126.59 25.1682 126.59 23.798C126.59 22.3021 126.975 20.8367 127.705 19.5428H113.248C112.518 20.8367 112.133 22.3021 112.133 23.798C112.133 25.1682 112.46 26.5245 113.08 27.7381H108.824C104.044 27.7381 100.156 31.6264 100.156 36.4061C100.156 41.1858 104.044 45.0742 108.824 45.0742H112.928C112.4 46.2146 112.133 47.4325 112.133 48.699C112.133 53.4787 116.022 57.367 120.801 57.367H135.258C130.479 57.367 126.59 53.4787 126.59 48.699Z" fill="#C5C7D3"/>
<path d="M40.8892 53.2694H33.2865C31.32 56.6676 29.7175 60.2634 28.5059 63.9863H35.4693L36.1145 62.4307C36.8761 60.595 37.7637 58.7794 38.7534 57.0348L40.8892 53.2694Z" fill="#C5C7D3"/>
<path d="M81.4011 130.494C54.2011 130.494 32.0721 108.365 32.0721 81.1647C32.0721 70.0882 35.8718 59.2002 42.771 50.5057C49.6209 41.8733 59.257 35.7215 69.9032 33.1828C72.011 32.6801 73.7291 34.895 72.7186 36.8118C69.5909 42.7439 68.0051 49.1822 68.0051 55.9483C68.0051 78.6296 86.4576 97.0821 109.139 97.0821C114.513 97.0821 119.758 96.0514 124.728 94.019C126.735 93.1985 128.773 95.1247 128.067 97.1741C124.739 106.834 118.531 115.136 110.114 121.182C101.634 127.274 91.7054 130.494 81.4011 130.494Z" fill="#E2E3E9"/>
<path d="M62.8042 79.1159H75.168C71.0124 73.0417 68.441 65.8028 68.0561 57.9974H62.8042C56.9818 57.9974 52.245 62.7343 52.245 68.5567C52.245 74.3791 56.9818 79.1159 62.8042 79.1159Z" fill="#C5C7D3"/>
<path d="M62.8042 74.3879C59.5889 74.3879 56.973 71.7721 56.973 68.5567C56.973 65.3413 59.5889 62.7255 62.8042 62.7255H105.987C109.202 62.7255 111.818 65.3413 111.818 68.5567C111.818 71.7721 109.202 74.3879 105.987 74.3879H62.8042Z" fill="#E2E3E9"/>
<path d="M73.3644 68.5567C73.3644 65.3413 75.9803 62.7255 79.1957 62.7255H62.8042C59.5889 62.7255 56.973 65.3413 56.973 68.5567C56.973 71.7721 59.5889 74.3879 62.8042 74.3879H79.1957C75.9803 74.3879 73.3644 71.7721 73.3644 68.5567Z" fill="#C5C7D3"/>
<path d="M97.3898 126.642C95.0292 126.992 92.634 127.17 90.2183 127.17C78.4874 127.17 67.7006 123.052 59.2248 116.188C58.3653 115.492 58.8507 114.103 59.9567 114.103H63.6458C72.1894 114.103 79.3451 107.344 79.5074 98.8025C79.6729 90.0616 72.6108 82.8983 63.9075 82.8983H45.8981C43.1328 82.8983 40.8905 80.6572 40.8892 77.892V77.8409C40.8892 66.7644 44.689 55.8764 51.5881 47.1819C54.6478 43.326 58.2638 39.9663 62.2772 37.2017C62.9789 36.7185 62.3794 35.6383 61.5996 35.9812C54.2948 39.1969 47.7862 44.1859 42.771 50.5057C35.8715 59.1999 32.0721 70.0882 32.0721 81.1647C32.0721 83.4439 32.2309 85.6863 32.5316 87.8842C32.5443 87.9772 32.5622 88.0676 32.5389 88.1862C32.4733 88.5222 32.5581 88.8541 32.7025 89.1645C32.7406 89.2468 32.7523 89.3354 32.7671 89.4233C33.0993 91.3858 33.5479 93.3085 34.1051 95.1855C34.1133 95.2136 34.1218 95.2413 34.13 95.2694C34.2675 95.7289 34.4106 96.1857 34.5609 96.6395C34.5612 96.6402 34.5612 96.6411 34.5615 96.6421C35.023 98.0353 35.5453 99.4004 36.1246 100.736C36.1379 100.766 36.1514 100.797 36.165 100.828C36.3431 101.236 36.5259 101.641 36.7156 102.044C36.7311 102.077 36.7465 102.11 36.762 102.143C37.3785 103.45 38.0502 104.726 38.7752 105.967C38.784 105.982 38.7931 105.997 38.802 106.012C39.0283 106.399 39.2603 106.782 39.497 107.162C39.5241 107.205 39.5512 107.249 39.5786 107.292C39.8131 107.667 40.0524 108.038 40.2966 108.405C40.3108 108.427 40.3247 108.448 40.3389 108.469C41.1285 109.653 41.9682 110.8 42.8542 111.909C42.8854 111.948 42.9169 111.987 42.9481 112.025C43.2019 112.341 43.4578 112.654 43.7204 112.962C43.7683 113.018 43.8156 113.075 43.8635 113.131C44.7798 114.206 45.7411 115.241 46.7447 116.233C46.7747 116.263 46.8049 116.292 46.8349 116.321C47.134 116.615 47.4372 116.906 47.7439 117.193C47.794 117.239 47.8441 117.286 47.8943 117.333C48.2019 117.618 48.513 117.899 48.8279 118.177C48.8597 118.205 48.8913 118.233 48.9231 118.261C49.6389 118.889 50.3721 119.496 51.1232 120.082C51.1254 120.084 51.1276 120.085 51.1301 120.087C51.4879 120.366 51.8497 120.639 52.2154 120.908C52.2693 120.948 52.3238 120.987 52.378 121.027C52.7049 121.265 53.0349 121.5 53.3677 121.731C53.4223 121.769 53.4768 121.807 53.532 121.845C61.4665 127.297 71.067 130.494 81.4012 130.494C86.9846 130.494 92.4575 129.547 97.6498 127.711C98.2821 127.488 98.0533 126.544 97.3898 126.642Z" fill="#C5C7D3"/>
<path d="M13.16 125.451C7.16391 125.451 2.28554 120.572 2.28554 114.576C2.28554 108.58 7.16391 103.702 13.16 103.702H26.2172C25.3492 102.111 24.8918 100.319 24.8918 98.5008C24.8918 92.5047 29.7702 87.6264 35.7663 87.6264H63.9075C69.9035 87.6264 74.7819 92.5047 74.7819 98.5008C74.7819 104.497 69.9035 109.375 63.9075 109.375H50.8502C51.7183 110.966 52.1757 112.758 52.1757 114.576C52.1757 120.572 47.2973 125.451 41.3012 125.451H13.16Z" fill="#E2E3E9"/>
<path d="M13.375 114.576C13.375 108.58 18.2533 103.702 24.2494 103.702H13.16C7.16391 103.702 2.28554 108.58 2.28554 114.576C2.28554 120.572 7.16391 125.451 13.16 125.451H24.2494C18.2533 125.451 13.375 120.572 13.375 114.576Z" fill="#C5C7D3"/>
<path d="M51.6754 98.8113H35.9907C35.9875 98.7079 35.9809 98.6045 35.9809 98.5008C35.9809 92.5047 40.8593 87.6264 46.8554 87.6264H35.7663C29.7702 87.6264 24.8918 92.5047 24.8918 98.5008C24.8918 100.319 25.3492 102.111 26.2172 103.702H30.9512H37.3066H51.6757C53.0261 103.702 54.1211 102.607 54.1211 101.256C54.1208 99.906 53.0261 98.8113 51.6754 98.8113Z" fill="#C5C7D3"/>
<path d="M150.214 37.8245H135.367C135.428 37.358 135.458 36.8846 135.458 36.4061C135.458 35.8242 135.411 35.2443 135.319 34.6725H142.657C148.603 34.6725 153.606 29.9864 153.737 24.0417C153.846 19.1041 150.634 14.8744 146.184 13.4427C146.387 12.6065 146.49 11.7444 146.49 10.8745C146.49 4.87838 141.612 0 135.616 0L79.7265 0.000315202C73.6421 0.000315202 68.5333 4.97924 68.637 11.0629C68.7379 16.9727 73.5766 21.7492 79.5099 21.7492H110.121C109.992 22.4209 109.927 23.1071 109.927 23.798C109.927 24.3799 109.974 24.9599 110.066 25.5316H109.04C102.956 25.5316 97.8471 30.5106 97.9508 36.5943C98.0517 42.504 102.89 47.2806 108.824 47.2806H110.018C109.953 47.7776 109.923 48.2826 109.927 48.7929C109.977 54.7972 115.01 59.5734 121.014 59.5734H127.434C128.739 59.5734 129.798 58.515 129.798 57.2094C129.798 55.9039 128.739 54.8454 127.434 54.8454H120.948C117.595 54.8454 114.746 52.222 114.657 48.8704C114.63 47.8539 114.843 46.8799 115.29 45.9782C115.564 45.4256 115.621 44.7791 115.43 44.1932C115.103 43.193 114.185 42.5525 113.178 42.5525H108.975C105.646 42.5525 102.807 39.9695 102.682 36.6431C102.55 33.1463 105.356 30.2597 108.824 30.2597H113.275C113.938 30.2597 114.59 30.0141 115.047 29.5338C115.777 28.7672 115.902 27.6448 115.413 26.7553C114.917 25.8547 114.655 24.8319 114.655 23.7977C114.655 22.6911 114.951 21.6096 115.511 20.6659C115.852 20.0919 115.984 19.4044 115.804 18.7617C115.511 17.709 114.567 17.0212 113.523 17.0212H79.6609C76.3324 17.0212 73.4937 14.4378 73.3679 11.1118C73.2358 7.61496 76.0424 4.72834 79.5099 4.72834H135.479C138.462 4.72834 141.112 6.80142 141.657 9.73406C141.934 11.2265 141.658 12.7439 140.903 14.0123C140.564 14.5822 140.435 15.2665 140.611 15.9057C140.901 16.9588 141.843 17.6491 142.886 17.6522C146.349 17.6636 149.15 20.5606 149.007 24.0537C148.871 27.3727 146.034 29.9445 142.713 29.9445H132.11C131.447 29.9445 130.795 30.1903 130.337 30.6707C129.608 31.4373 129.483 32.5594 129.973 33.4486C130.469 34.3491 130.731 35.3719 130.731 36.4061C130.731 37.3571 130.518 38.2693 130.1 39.1178C129.825 39.6738 129.763 40.3228 129.956 40.9122C130.283 41.9124 131.201 42.5525 132.208 42.5525H150.28C153.608 42.5525 156.447 45.1356 156.573 48.4619C156.704 51.9588 153.898 54.8454 150.43 54.8454H141.196C139.89 54.8454 138.832 55.9039 138.832 57.2094C138.832 58.515 139.89 59.5734 141.196 59.5734H150.43C156.364 59.5734 161.202 54.7969 161.303 48.8871C161.407 42.8034 156.298 37.8245 150.214 37.8245Z" fill="#F9F9FB"/>
<path d="M147.593 139.004H124.899C121.062 139.004 117.844 141.707 117.05 145.308H111.976C107.544 145.308 103.938 148.914 103.938 153.346C103.938 157.778 107.544 161.384 111.976 161.384H134.67C138.507 161.384 141.725 158.681 142.519 155.08H147.593C152.026 155.08 155.631 151.474 155.631 147.042C155.631 142.61 152.026 139.004 147.593 139.004ZM147.593 150.352H140.307C139.635 150.352 138.995 150.637 138.547 151.138C138.098 151.638 137.884 152.306 137.957 152.974C137.973 153.114 137.98 153.235 137.98 153.346C137.98 155.171 136.495 156.656 134.67 156.656H111.976C110.151 156.656 108.666 155.171 108.666 153.346C108.666 151.521 110.151 150.037 111.976 150.037H119.262C119.934 150.037 120.574 149.751 121.023 149.25C121.471 148.75 121.686 148.082 121.612 147.414C121.597 147.275 121.589 147.153 121.589 147.042C121.589 145.217 123.074 143.733 124.899 143.733H147.593C149.419 143.733 150.903 145.217 150.903 147.042C150.903 148.867 149.419 150.352 147.593 150.352Z" fill="#F9F9FB"/>
<path d="M130.795 90.043C130.044 89.4864 129.037 89.4227 128.224 89.8817C122.428 93.149 115.829 94.876 109.139 94.876C95.2552 94.876 83.0547 87.5643 76.1628 76.5943H105.987C110.419 76.5943 114.025 72.9887 114.025 68.5567C114.025 64.1246 110.419 60.519 105.987 60.519H70.4863C70.3092 59.019 70.2115 57.4953 70.2115 55.9486C70.2115 47.9523 72.6196 40.2686 77.1756 33.7285C77.7089 32.9625 77.742 31.9542 77.2594 31.1549C76.7765 30.3555 75.8662 29.9149 74.9424 30.0315C60.3019 31.8631 47.7152 39.7879 39.5915 51.063H23.8768C19.7058 51.063 16.312 54.4565 16.312 58.6278C16.312 62.7992 19.7058 66.1927 23.8768 66.1927H32.0901C30.6433 70.9462 29.8657 75.9759 29.8657 81.1648C29.8657 83.0292 29.9678 84.8699 30.162 86.6839C25.746 88.7866 22.6854 93.2924 22.6854 98.5008C22.6854 99.5123 22.8033 100.518 23.0334 101.495H13.16C5.94723 101.495 0.0791245 107.363 0.0791245 114.576C0.0791245 121.789 5.94723 127.657 13.16 127.657H41.3012C45.3172 127.657 48.9146 125.836 51.3158 122.979C59.7875 129.092 70.1797 132.7 81.4012 132.7C93.1828 132.7 104.701 128.621 113.835 121.215C122.836 113.916 129.177 103.703 131.692 92.4568C131.896 91.5456 131.544 90.5997 130.795 90.043ZM105.987 65.2471C107.812 65.2471 109.296 66.7317 109.296 68.5567C109.296 70.3817 107.812 71.8663 105.987 71.8663H62.8042C60.9792 71.8663 59.4946 70.3817 59.4946 68.5567C59.4946 66.7317 60.9792 65.2471 62.8042 65.2471H105.987ZM23.8768 61.4646C22.3125 61.4646 21.04 60.1919 21.04 58.6278C21.04 57.0638 22.3125 55.791 23.8768 55.791H36.5599C35.5239 57.6179 34.5956 59.5117 33.7852 61.4646H23.8768ZM81.4012 127.972C71.0263 127.972 61.4319 124.576 53.6643 118.841C54.1271 117.503 54.3821 116.069 54.3821 114.576C54.3821 113.565 54.2642 112.559 54.0341 111.582H55.4405C56.7451 111.582 57.8029 110.524 57.8029 109.219V109.216C57.8029 107.911 56.7451 106.854 55.4405 106.854H50.6488C49.9771 106.854 49.3161 107.106 48.8582 107.597C48.1297 108.379 48.0219 109.515 48.5348 110.402C49.267 111.667 49.654 113.111 49.654 114.576C49.654 119.182 45.9069 122.929 41.3012 122.929H13.3378C8.79256 122.929 4.94584 119.372 4.81093 114.829C4.67098 110.108 8.47011 106.223 13.16 106.223H26.4183C27.0903 106.223 27.751 105.971 28.2093 105.479C28.9377 104.698 29.0452 103.561 28.5324 102.675C27.8002 101.41 27.4131 99.9662 27.4131 98.5005C27.4131 93.8948 31.1602 90.1477 35.7659 90.1477H63.7284C68.2799 90.1477 72.1301 93.7139 72.2568 98.2635C72.346 101.466 70.6219 104.281 68.0385 105.757C67.2987 106.179 66.8366 106.96 66.8366 107.812C66.8366 109.637 68.8101 110.76 70.3934 109.853C74.3101 107.608 76.9615 103.397 76.988 98.5733C77.028 91.3388 70.9084 85.42 63.673 85.42H35.7663C35.4388 85.42 35.115 85.436 34.7935 85.46C34.6634 84.0451 34.5937 82.6131 34.5937 81.1648C34.5937 59.3364 49.7029 40.592 70.4882 35.6361C67.2013 41.8695 65.4835 48.7983 65.4835 55.9486C65.4835 57.4925 65.5695 59.0162 65.7271 60.519H62.9871C58.4907 60.519 54.6919 64.1987 54.7679 68.6944C54.8416 73.0631 58.4182 76.5943 62.8042 76.5943H70.6966C78.0742 90.2782 92.5334 99.604 109.139 99.604C114.827 99.604 120.457 98.4901 125.683 96.3534C119.278 114.946 101.409 127.972 81.4012 127.972Z" fill="#F9F9FB"/>
</g>
<g clip-path="url(#clip1)">
<path d="M156.088 109.978C149.881 116.296 141.125 120.175 131.593 120.175C112.418 120.175 96.9004 104.658 96.9004 85.483C96.9004 66.3081 112.418 50.7908 131.593 50.7908C150.768 50.7908 166.285 66.3081 166.285 85.483C166.285 95.0149 162.405 103.771 156.088 109.978Z" fill="#E2E3E9"/>
<path d="M110.529 89.3623C108.841 89.3623 107.396 88.0834 107.224 86.3676C106.536 79.4801 108.904 72.7667 113.723 67.9474C115.021 66.6484 117.127 66.6484 118.425 67.9474C119.724 69.2454 119.724 71.3513 118.425 72.6492C115.022 76.052 113.351 80.8113 113.841 85.7059C114.024 87.5325 112.69 89.163 110.863 89.3458C110.752 89.3567 110.64 89.3623 110.529 89.3623Z" fill="white"/>
<path d="M131.593 123.5C110.63 123.5 93.5753 106.446 93.5753 85.483C93.5753 64.5204 110.63 47.4658 131.593 47.4658C152.555 47.4658 169.61 64.5202 169.61 85.483C169.61 95.5692 165.531 105.362 158.419 112.35C151.47 119.421 141.678 123.5 131.593 123.5ZM131.593 54.1161C114.296 54.1161 100.226 68.1869 100.226 85.483C100.226 102.779 114.296 116.85 131.593 116.85C139.907 116.85 147.97 113.496 153.717 107.648C159.604 101.86 162.96 93.7968 162.96 85.4828C162.96 68.1869 148.888 54.1161 131.593 54.1161Z" fill="#A9ACBC"/>
<path d="M180.25 137.466C179.399 137.466 178.549 137.141 177.899 136.492L153.737 112.329C152.438 111.031 152.438 108.925 153.737 107.627C155.036 106.328 157.14 106.328 158.439 107.627L182.601 131.79C183.9 133.088 183.9 135.194 182.601 136.492C181.952 137.141 181.101 137.466 180.25 137.466Z" fill="#A9ACBC"/>
</g>
<defs>
<clipPath id="clip0">
<rect width="161.384" height="161.384" fill="white"/>
</clipPath>
<clipPath id="clip1">
<rect x="93.5753" y="47.4658" width="90" height="90" fill="white"/>
</clipPath>
</defs>
</svg>
