<svg width="50" height="50" viewBox="0 0 50 50" fill="none" xmlns="http://www.w3.org/2000/svg">
<circle cx="25" cy="25" r="25" fill="#FFEBF0"/>
<g clip-path="url(#clip0)">
<path d="M17 40H35C36.38 39.9983 37.4984 38.88 37.5 37.5V14.5C37.4979 13.2961 36.6379 12.2646 35.454 12.046C35.2354 10.8621 34.2039 10.0021 33 10H19.5C19.3674 10 19.2402 10.0527 19.1465 10.1465L12.6465 16.6465C12.5527 16.7402 12.5 16.8674 12.5 17V35.5C12.5021 36.7039 13.3621 37.7354 14.546 37.954C14.7646 39.1379 15.7961 39.9979 17 40ZM36.5 14.5V37.5C36.5 38.3284 35.8284 39 35 39H17C16.3666 38.9974 15.8031 38.5972 15.592 38H33C34.38 37.9983 35.4984 36.88 35.5 35.5V13.092C36.0972 13.3031 36.4974 13.8666 36.5 14.5ZM19 11.707V15C19 15.8284 18.3284 16.5 17.5 16.5H14.207L19 11.707ZM13.5 35.5V17.5H17.5C18.88 17.4983 19.9983 16.38 20 15V11H33C33.8284 11 34.5 11.6716 34.5 12.5V35.5C34.5 36.3284 33.8284 37 33 37H15C14.1716 37 13.5 36.3284 13.5 35.5Z" fill="#EB4773"/>
<path d="M27 13H30C30.2761 13 30.5 12.7761 30.5 12.5C30.5 12.2239 30.2761 12 30 12H27C26.7239 12 26.5 12.2239 26.5 12.5C26.5 12.7761 26.7239 13 27 13Z" fill="#EB4773"/>
<path d="M32 13H33C33.2761 13 33.5 12.7761 33.5 12.5C33.5 12.2239 33.2761 12 33 12H32C31.7239 12 31.5 12.2239 31.5 12.5C31.5 12.7761 31.7239 13 32 13Z" fill="#EB4773"/>
<path d="M17.5 22.5C18.0725 22.5 18.5 22.79 18.5 23.05V24.45C18.5 25.3195 19.3785 26 20.5 26C20.7761 26 21 25.7761 21 25.5C21 25.2239 20.7761 25 20.5 25C19.9275 25 19.5 24.71 19.5 24.45V23.05C19.4909 22.639 19.298 22.2537 18.9745 22C19.298 21.7463 19.4909 21.361 19.5 20.95V19.55C19.5 19.29 19.9275 19 20.5 19C20.7761 19 21 18.7761 21 18.5C21 18.2239 20.7761 18 20.5 18C19.3785 18 18.5 18.6805 18.5 19.55V20.95C18.5 21.21 18.0725 21.5 17.5 21.5C17.2239 21.5 17 21.7239 17 22C17 22.2761 17.2239 22.5 17.5 22.5Z" fill="#EB4773"/>
<path d="M30.5 19.55C30.5 18.6805 29.6215 18 28.5 18C28.2239 18 28 18.2239 28 18.5C28 18.7761 28.2239 19 28.5 19C29.0725 19 29.5 19.29 29.5 19.55V20.95C29.5091 21.361 29.702 21.7463 30.0255 22C29.702 22.2537 29.5091 22.639 29.5 23.05V24.45C29.5 24.71 29.0725 25 28.5 25C28.2239 25 28 25.2239 28 25.5C28 25.7761 28.2239 26 28.5 26C29.6215 26 30.5 25.3195 30.5 24.45V23.05C30.5 22.79 30.9275 22.5 31.5 22.5C31.7761 22.5 32 22.2761 32 22C32 21.7239 31.7761 21.5 31.5 21.5C30.9275 21.5 30.5 21.21 30.5 20.95V19.55Z" fill="#EB4773"/>
<path d="M22.5 24C22.7761 24 23 23.7761 23 23.5C23 23.2239 22.7761 23 22.5 23C22.2239 23 22 23.2239 22 23.5C22 23.7761 22.2239 24 22.5 24Z" fill="#EB4773"/>
<path d="M24.5 24C24.7761 24 25 23.7761 25 23.5C25 23.2239 24.7761 23 24.5 23C24.2239 23 24 23.2239 24 23.5C24 23.7761 24.2239 24 24.5 24Z" fill="#EB4773"/>
<path d="M26.5 24C26.7761 24 27 23.7761 27 23.5C27 23.2239 26.7761 23 26.5 23C26.2239 23 26 23.2239 26 23.5C26 23.7761 26.2239 24 26.5 24Z" fill="#EB4773"/>
<path d="M15.5 29.5H16C16.2761 29.5 16.5 29.2761 16.5 29C16.5 28.7239 16.2761 28.5 16 28.5H15.5C15.2239 28.5 15 28.7239 15 29C15 29.2761 15.2239 29.5 15.5 29.5Z" fill="#EB4773"/>
<path d="M18 29.5H22.5C22.7761 29.5 23 29.2761 23 29C23 28.7239 22.7761 28.5 22.5 28.5H18C17.7239 28.5 17.5 28.7239 17.5 29C17.5 29.2761 17.7239 29.5 18 29.5Z" fill="#EB4773"/>
<path d="M32.5 28.5H25C24.7239 28.5 24.5 28.7239 24.5 29C24.5 29.2761 24.7239 29.5 25 29.5H32.5C32.7761 29.5 33 29.2761 33 29C33 28.7239 32.7761 28.5 32.5 28.5Z" fill="#EB4773"/>
<path d="M15.5 32H16C16.2761 32 16.5 31.7761 16.5 31.5C16.5 31.2239 16.2761 31 16 31H15.5C15.2239 31 15 31.2239 15 31.5C15 31.7761 15.2239 32 15.5 32Z" fill="#EB4773"/>
<path d="M32.5 31H28C27.7239 31 27.5 31.2239 27.5 31.5C27.5 31.7761 27.7239 32 28 32H32.5C32.7761 32 33 31.7761 33 31.5C33 31.2239 32.7761 31 32.5 31Z" fill="#EB4773"/>
<path d="M18 32H25.5C25.7761 32 26 31.7761 26 31.5C26 31.2239 25.7761 31 25.5 31H18C17.7239 31 17.5 31.2239 17.5 31.5C17.5 31.7761 17.7239 32 18 32Z" fill="#EB4773"/>
<path d="M15.5 34.5H16C16.2761 34.5 16.5 34.2761 16.5 34C16.5 33.7239 16.2761 33.5 16 33.5H15.5C15.2239 33.5 15 33.7239 15 34C15 34.2761 15.2239 34.5 15.5 34.5Z" fill="#EB4773"/>
<path d="M22.5 33.5H18C17.7239 33.5 17.5 33.7239 17.5 34C17.5 34.2761 17.7239 34.5 18 34.5H22.5C22.7761 34.5 23 34.2761 23 34C23 33.7239 22.7761 33.5 22.5 33.5Z" fill="#EB4773"/>
<path d="M32.5 33.5H25C24.7239 33.5 24.5 33.7239 24.5 34C24.5 34.2761 24.7239 34.5 25 34.5H32.5C32.7761 34.5 33 34.2761 33 34C33 33.7239 32.7761 33.5 32.5 33.5Z" fill="#EB4773"/>
</g>
<defs>
<clipPath id="clip0">
<rect x="10" y="10" width="30" height="30" fill="white"/>
</clipPath>
</defs>
</svg>
