<svg width="30" height="20" viewBox="0 0 30 20" fill="none" xmlns="http://www.w3.org/2000/svg">
<path d="M6 9.94897V0H8.50039H11.0008L11.0069 3.57119L11.0162 7.14238L14.4365 3.57119L17.8599 0H20.8078H23.7589L23.7003 0.0675548C23.6138 0.165816 16.7609 7.26521 16.3812 7.64904L16.0571 7.97453L20.1195 13.9194C22.3544 17.1896 24.1818 19.8703 24.1818 19.8795C24.1818 19.8918 22.8791 19.8949 21.2894 19.8918L18.3939 19.8826L15.5848 15.6973C14.0383 13.3973 12.7572 11.4997 12.7387 11.4812C12.7171 11.4597 12.4454 11.7208 11.8528 12.3318L11.0008 13.2162V16.5571V19.8979H8.50039H6V9.94897Z" fill="#888888"/>
<path d="M10.9702 10.2164V7.2102L12.2081 5.91745C13.7299 4.32684 13.9521 4.10575 13.9985 4.13339C14.0201 4.14567 14.0262 4.1426 14.017 4.12418C14.0046 4.10575 14.0262 4.06583 14.0602 4.03513C14.1188 3.97985 14.1219 3.98292 14.0818 4.05662C14.0602 4.09654 14.0293 4.15181 14.0108 4.17638C13.9738 4.23165 13.9614 4.2992 13.9892 4.28999C14.0015 4.28692 14.0108 4.2992 14.0108 4.31456C14.0108 4.33298 13.9985 4.34219 13.9861 4.33605C13.9707 4.33298 13.9676 4.34219 13.9799 4.36062C13.9892 4.37904 14.017 4.38211 14.0355 4.36983C14.0602 4.35448 14.0602 4.36369 14.0355 4.39747C14.0139 4.42203 14.0077 4.45274 14.0201 4.46502C14.0448 4.49266 14.0571 9.91546 14.0293 9.93081C14.0201 9.93696 14.0108 8.71483 14.0108 7.21634C14.0108 5.71785 14.0046 4.49266 13.9954 4.4988C13.9707 4.51415 13.9768 9.9431 14.0015 9.96766C14.017 9.97995 14.0108 10.0107 13.9892 10.0383C13.9521 10.0936 14.5634 9.4825 15.4555 8.57358C15.7765 8.24502 16.0481 7.99015 16.0605 8.0055C16.113 8.06385 16.4649 8.59814 16.4649 8.61657C16.4649 8.62578 16.4433 8.61964 16.4186 8.59814C16.3939 8.57665 16.3723 8.56437 16.3692 8.57051C16.3476 8.67798 16.3507 8.68412 16.397 8.6657C16.4433 8.65034 16.4433 8.65342 16.397 8.70255C16.3661 8.73018 16.3414 8.7701 16.3414 8.78545C16.3414 8.80081 16.326 8.81309 16.3074 8.81309C16.2827 8.81309 16.2827 8.80081 16.3074 8.7701C16.3321 8.73939 16.3352 8.72097 16.3105 8.70562C16.292 8.69333 16.2797 8.6964 16.2827 8.71176C16.2858 8.72404 16.2827 8.74246 16.2797 8.75168C16.2488 8.82844 16.2611 8.86836 16.3044 8.84994C16.3507 8.83459 16.3507 8.83766 16.3013 8.88679C16.2735 8.91749 16.2581 8.95434 16.2673 8.97277C16.2797 8.99426 16.2735 8.99733 16.2519 8.98505C16.2334 8.97277 16.2241 8.95127 16.2334 8.93592C16.2426 8.92056 16.2334 8.89907 16.2117 8.88679C16.1901 8.8745 16.1809 8.8745 16.1932 8.88986C16.2056 8.90214 16.1994 8.93592 16.1778 8.96048C16.1469 9.0004 16.15 9.00347 16.184 8.98505C16.2117 8.96662 16.221 8.96969 16.2117 9.0004C16.2025 9.02497 16.1778 9.04032 16.1562 9.03418C16.1253 9.02804 16.1253 9.03725 16.1593 9.07717C16.1871 9.11402 16.1871 9.12323 16.1654 9.10787C16.1407 9.09559 16.1253 9.1048 16.1253 9.13551C16.1253 9.16622 16.1099 9.17543 16.0883 9.16315C16.0636 9.14779 16.0667 9.16315 16.0944 9.19692C16.1222 9.2307 16.1253 9.24605 16.1037 9.2307C16.079 9.21842 16.0636 9.22763 16.0636 9.25834C16.0636 9.28904 16.0481 9.29826 16.0265 9.28597C16.0018 9.27062 16.0049 9.28597 16.0327 9.31975C16.0605 9.35353 16.0636 9.36888 16.042 9.35353C16.0173 9.34125 16.0018 9.35046 16.0018 9.38116C16.0018 9.41187 15.9864 9.42108 15.9648 9.4088C15.9401 9.39345 15.9432 9.4088 15.971 9.44258C15.9988 9.47636 16.0018 9.49171 15.9802 9.47636C15.9555 9.46407 15.9401 9.47328 15.9401 9.50399C15.9401 9.5347 15.9247 9.54391 15.9031 9.53163C15.8784 9.51627 15.8815 9.53163 15.9092 9.5654C15.9463 9.61146 15.9463 9.61761 15.9123 9.59611C15.8784 9.57769 15.8722 9.58383 15.8876 9.62375C15.9031 9.65752 15.8969 9.66981 15.8722 9.65445C15.8475 9.6391 15.8444 9.64831 15.8568 9.68516C15.8722 9.71894 15.866 9.73122 15.8413 9.71587C15.8166 9.70051 15.8135 9.70973 15.8259 9.74657C15.8413 9.78035 15.8351 9.79263 15.8105 9.77728C15.7858 9.76193 15.7827 9.77114 15.795 9.80799C15.8105 9.84177 15.8043 9.85405 15.7796 9.83869C15.7549 9.82334 15.7518 9.83255 15.7641 9.8694C15.7796 9.90318 15.7734 9.91546 15.7487 9.90011C15.7271 9.88475 15.7209 9.89397 15.7333 9.92774C15.7456 9.96152 15.7364 9.9738 15.6932 9.96459C15.6499 9.95538 15.6407 9.96766 15.653 10.0014C15.6685 10.0383 15.6623 10.0444 15.6283 10.026C15.5944 10.0045 15.5944 10.0107 15.6314 10.0567C15.6592 10.0905 15.6623 10.1058 15.6407 10.0905C15.616 10.0782 15.6005 10.0874 15.6005 10.1181C15.6005 10.1488 15.5851 10.158 15.5635 10.1458C15.5388 10.1304 15.5419 10.1458 15.5697 10.1795C15.5975 10.2133 15.6005 10.2287 15.5789 10.2133C15.5542 10.201 15.5388 10.2102 15.5388 10.241C15.5388 10.2717 15.5234 10.2809 15.5018 10.2686C15.4771 10.2532 15.4802 10.2686 15.5079 10.3024C15.5357 10.3361 15.5388 10.3515 15.5172 10.3361C15.4925 10.3239 15.4771 10.3331 15.4771 10.3638C15.4771 10.3945 15.4616 10.4037 15.44 10.3914C15.4153 10.3761 15.4184 10.3914 15.4462 10.4252C15.474 10.459 15.4771 10.4743 15.4555 10.459C15.4184 10.4375 15.3999 10.4927 15.4122 10.5726C15.4153 10.5879 15.403 10.591 15.3845 10.5787C15.3659 10.5695 15.3629 10.5419 15.3752 10.5235C15.3875 10.502 15.3752 10.505 15.3443 10.5296C15.2888 10.5726 15.2733 10.6094 15.3196 10.5818C15.3351 10.5726 15.3567 10.5849 15.3659 10.6125C15.3783 10.6432 15.3721 10.6524 15.3474 10.6371C15.3227 10.6217 15.3196 10.6309 15.332 10.6678C15.3474 10.7016 15.3412 10.7138 15.3166 10.6985C15.2919 10.6831 15.2888 10.6923 15.3011 10.7292C15.3166 10.763 15.3104 10.7752 15.2857 10.7599C15.261 10.7445 15.2579 10.7538 15.2702 10.7906C15.2857 10.8244 15.2795 10.8367 15.2548 10.8213C15.2301 10.806 15.227 10.8152 15.2394 10.852C15.2548 10.8858 15.2486 10.8981 15.2239 10.8827C15.2023 10.8674 15.1962 10.8766 15.2085 10.9104C15.2209 10.9441 15.2116 10.9564 15.1684 10.9472C15.1252 10.938 15.1159 10.9503 15.1283 10.9841C15.1437 11.0209 15.1375 11.027 15.1036 11.0086C15.0696 10.9871 15.0696 10.9933 15.1066 11.0393C15.1344 11.0731 15.1375 11.0885 15.1159 11.0731C15.0912 11.0608 15.0758 11.07 15.0758 11.1007C15.0758 11.1314 15.0603 11.1407 15.0387 11.1284C15.014 11.113 15.0171 11.1284 15.0449 11.1622C15.0727 11.1959 15.0758 11.2113 15.0542 11.1959C15.0295 11.1836 15.014 11.1929 15.014 11.2236C15.014 11.2543 14.9986 11.2635 14.977 11.2512C14.9523 11.2358 14.9554 11.2512 14.9832 11.285C15.0109 11.3188 15.014 11.3341 14.9924 11.3188C14.9677 11.3065 14.9523 11.3157 14.9523 11.3464C14.9523 11.3771 14.9369 11.3863 14.9153 11.374C14.8906 11.3587 14.8936 11.374 14.9214 11.4078C14.9492 11.4416 14.9523 11.4569 14.9307 11.4416C14.8936 11.4201 14.8751 11.4754 14.8875 11.5552C14.8906 11.5706 14.8782 11.5736 14.8597 11.5613C14.8412 11.5521 14.835 11.5276 14.8443 11.5122C14.8751 11.4662 14.8381 11.4815 14.7949 11.5368C14.7702 11.5644 14.7671 11.5798 14.7856 11.5675C14.8072 11.5552 14.8319 11.5675 14.8412 11.5951C14.8535 11.6258 14.8473 11.635 14.8226 11.6197C14.798 11.6043 14.7949 11.6135 14.8072 11.6504C14.8226 11.6842 14.8165 11.6965 14.7918 11.6811C14.7671 11.6657 14.764 11.675 14.7763 11.7118C14.7918 11.7456 14.7856 11.7579 14.7609 11.7425C14.7362 11.7272 14.7331 11.7364 14.7455 11.7732C14.7609 11.807 14.7547 11.8193 14.73 11.8039C14.7053 11.7886 14.7023 11.7978 14.7146 11.8346C14.73 11.8684 14.7239 11.8807 14.6992 11.8653C14.6776 11.85 14.6714 11.8592 14.6837 11.893C14.6961 11.9268 14.6868 11.939 14.6436 11.9298C14.6004 11.9206 14.5911 11.9329 14.6035 11.9667C14.6189 12.0035 14.6127 12.0097 14.5788 11.9912C14.5448 11.9697 14.5448 11.9759 14.5819 12.0219C14.6097 12.0557 14.6127 12.0711 14.5911 12.0557C14.5664 12.0434 14.551 12.0526 14.551 12.0834C14.551 12.1141 14.5356 12.1233 14.514 12.111C14.4893 12.0956 14.4924 12.111 14.5201 12.1448C14.5479 12.1785 14.551 12.1939 14.5294 12.1785C14.5047 12.1663 14.4893 12.1755 14.4893 12.2062C14.4893 12.2369 14.4738 12.2461 14.4522 12.2338C14.4275 12.2185 14.4306 12.2338 14.4584 12.2676C14.4862 12.3014 14.4893 12.3167 14.4677 12.3014C14.443 12.2891 14.4275 12.2983 14.4275 12.329C14.4275 12.3566 14.4152 12.3689 14.3967 12.3597C14.3781 12.3474 14.3751 12.3628 14.3874 12.3935C14.4028 12.4334 14.3967 12.4396 14.3627 12.4211C14.3287 12.3996 14.3287 12.4058 14.3658 12.4518C14.4028 12.4979 14.4028 12.504 14.3689 12.4825C14.3349 12.4641 14.3287 12.4703 14.3442 12.5102C14.3596 12.544 14.3534 12.5562 14.3287 12.5409C14.3041 12.5255 14.301 12.5347 14.3133 12.5716C14.3287 12.6054 14.3226 12.6177 14.2979 12.6023C14.2732 12.5869 14.2701 12.5962 14.2824 12.633C14.2979 12.6668 14.2917 12.6791 14.267 12.6637C14.2423 12.6484 14.2392 12.6576 14.2516 12.6944C14.267 12.7282 14.2608 12.7405 14.2361 12.7251C14.2114 12.7098 14.2084 12.719 14.2207 12.7558C14.2361 12.7896 14.23 12.8019 14.2053 12.7865C14.1806 12.7712 14.1775 12.7804 14.1898 12.8172C14.2053 12.851 14.1991 12.8633 14.1744 12.848C14.1528 12.8326 14.1466 12.8418 14.159 12.8756C14.1713 12.9094 14.1621 12.9216 14.1188 12.9124C14.0756 12.9032 14.0664 12.9155 14.0787 12.9493C14.0941 12.9861 14.088 12.9923 14.054 12.9738C14.0201 12.9524 14.0201 12.9585 14.0571 13.0046C14.0849 13.0383 14.088 13.0537 14.0664 13.0383C14.0417 13.0261 14.0262 13.0353 14.0262 13.066C14.0262 13.0936 14.0139 13.109 13.9985 13.0997C13.983 13.0875 13.9768 13.109 13.9861 13.1427C14.0386 13.3362 13.8534 13.109 13.3193 12.3075L12.7236 11.4109L12.1031 12.0557C11.7605 12.4088 11.3653 12.8142 11.2264 12.9585L10.9702 13.2195V10.2164Z" fill="#888888"/>
</svg>
