<svg width="19" height="20" viewBox="0 0 19 20" fill="none" xmlns="http://www.w3.org/2000/svg">
<path d="M14.525 1.90886L16.6463 3.67789C16.7924 3.79972 16.9698 3.85918 17.1463 3.85918C17.37 3.85918 17.5922 3.76355 17.7467 3.57828C18.023 3.24691 17.9784 2.75425 17.647 2.47793L15.5257 0.708865C15.1944 0.432537 14.7017 0.477108 14.4253 0.808514C14.149 1.13988 14.1936 1.6325 14.525 1.90886Z" fill="#F4D23E"/>
<path d="M1.29127 3.85924C1.46768 3.85924 1.64514 3.79978 1.79119 3.67795L3.91248 1.90896C4.24385 1.63263 4.2885 1.13998 4.01217 0.808611C3.73588 0.477282 3.24318 0.432634 2.91182 0.708962L0.790488 2.47799C0.459121 2.75431 0.414473 3.24697 0.690801 3.57834C0.845371 3.76361 1.06748 3.85924 1.29127 3.85924Z" fill="#F4D23E"/>
<path d="M15.7374 4.26262C14.1817 2.70691 12.1677 1.77633 10 1.59559V0.78125C10 0.349766 9.65023 0 9.21875 0C8.78727 0 8.4375 0.349766 8.4375 0.78125V1.59559C6.26977 1.77633 4.25582 2.70688 2.70012 4.26258C0.958906 6.00379 0 8.31883 0 10.7812C0 13.2437 0.958906 15.5587 2.70012 17.2999C4.44129 19.0411 6.75633 20 9.21875 20C11.2013 20 13.0905 19.3801 14.6822 18.2073C15.0296 17.9513 15.1036 17.4623 14.8477 17.1149C14.5917 16.7675 14.1026 16.6934 13.7553 16.9494C12.4341 17.9229 10.8654 18.4375 9.21875 18.4375C4.99707 18.4375 1.5625 15.0029 1.5625 10.7812C1.5625 6.55957 4.99707 3.125 9.21875 3.125C13.4404 3.125 16.875 6.55957 16.875 10.7812C16.875 12.0707 16.5487 13.3452 15.9312 14.467C15.7232 14.845 15.8609 15.3201 16.2389 15.5282C16.6168 15.7361 17.092 15.5985 17.3001 15.2204C18.0442 13.8684 18.4375 12.3334 18.4375 10.7812C18.4375 8.31883 17.4786 6.00379 15.7374 4.26262Z" fill="#F4D23E"/>
<path d="M13.0248 6.07814C12.6895 5.80677 12.1975 5.85853 11.926 6.19396L9.46269 9.23791C9.38316 9.22537 9.30172 9.21873 9.21875 9.21873C8.35719 9.21873 7.65625 9.91966 7.65625 10.7812C7.65625 11.6428 8.35719 12.3437 9.21875 12.3437C10.0803 12.3437 10.7812 11.6428 10.7812 10.7812C10.7812 10.5839 10.7441 10.3951 10.677 10.2211L13.1406 7.17689C13.412 6.84146 13.3602 6.34951 13.0248 6.07814Z" fill="#F4D23E"/>
</svg>
