<svg width="20" height="20" viewBox="0 0 20 20" fill="none" xmlns="http://www.w3.org/2000/svg">
<path d="M10 20C10.4475 20 10.8915 19.9706 11.33 19.9123C11.6721 19.8668 11.9126 19.5525 11.8671 19.2103C11.8216 18.8682 11.5074 18.6277 11.1652 18.6732C10.7813 18.7242 10.3923 18.75 10 18.75C9.65482 18.75 9.375 19.0298 9.375 19.375C9.375 19.7202 9.65482 20 10 20ZM13.9202 19.2022C14.3299 19.0275 14.727 18.8255 15.1093 18.5979C15.4059 18.4213 15.5031 18.0377 15.3265 17.7412C15.1499 17.4446 14.7664 17.3473 14.4698 17.5239C14.1354 17.723 13.788 17.8996 13.4298 18.0524C13.1123 18.1878 12.9647 18.555 13.1001 18.8725C13.2356 19.19 13.6027 19.3376 13.9202 19.2022ZM17.2104 16.9289C17.5186 16.6083 17.8053 16.2675 18.0683 15.9089C18.2724 15.6306 18.2123 15.2395 17.934 15.0353C17.6557 14.8312 17.2645 14.8913 17.0604 15.1696C16.8301 15.4835 16.5791 15.7819 16.3092 16.0627C16.07 16.3116 16.0779 16.7072 16.3267 16.9464C16.5756 17.1856 16.9712 17.1778 17.2104 16.9289ZM19.3886 13.4505C19.5419 13.0335 19.6673 12.606 19.7637 12.1704C19.8383 11.8334 19.6256 11.4997 19.2885 11.4251C18.9515 11.3505 18.6178 11.5632 18.5432 11.9002C18.4589 12.281 18.3493 12.6547 18.2153 13.0192C18.0962 13.3431 18.2623 13.7023 18.5863 13.8214C18.9103 13.9405 19.2695 13.7744 19.3886 13.4505Z" fill="#F4D23E"/>
<path d="M20 10C20 4.47715 15.5228 0 10 0C4.47715 0 0 4.47715 0 10C0 15.5228 4.47715 20 10 20C10.3452 20 10.625 19.7202 10.625 19.375C10.625 19.0298 10.3452 18.75 10 18.75C5.16751 18.75 1.25 14.8325 1.25 10C1.25 5.16751 5.16751 1.25 10 1.25C14.8325 1.25 18.75 5.16751 18.75 10C18.75 10.3452 19.0298 10.625 19.375 10.625C19.7202 10.625 20 10.3452 20 10Z" fill="#F4D23E"/>
<path d="M10.625 4.375C10.625 4.02982 10.3452 3.75 10 3.75C9.65482 3.75 9.375 4.02982 9.375 4.375V10C9.375 10.2791 9.55999 10.5243 9.8283 10.601L14.2033 11.851C14.5352 11.9458 14.8811 11.7536 14.976 11.4217C15.0708 11.0898 14.8786 10.7439 14.5467 10.649L10.625 9.52856V4.375Z" fill="#F4D23E"/>
</svg>
