<svg width="50" height="50" viewBox="0 0 50 50" fill="none" xmlns="http://www.w3.org/2000/svg">
<circle cx="25" cy="25" r="25" fill="#FFF1EB"/>
<g clip-path="url(#clip0)">
<path d="M35.6696 10.0886C35.4653 9.96861 35.214 9.97063 35.0116 10.0939L23.0081 17.3983C22.6967 17.5878 22.5935 18.0011 22.7776 18.3215C22.9617 18.6419 23.3634 18.7481 23.6748 18.5587L32.2872 13.3179L16.2453 30.4467L8.26661 27.9348L18.6792 21.5986C18.9906 21.409 19.0937 20.9957 18.9096 20.6752C18.7255 20.3549 18.3238 20.2486 18.0124 20.4381L6.32165 27.5521C6.09829 27.6881 5.9739 27.9468 6.00462 28.2121C6.03534 28.4773 6.21527 28.6988 6.4634 28.7769L15.9919 31.7768L20.1957 39.6507C20.2001 39.6589 20.2046 39.6658 20.2092 39.6719C20.2794 39.7923 20.3845 39.8906 20.5157 39.9474C20.5977 39.9829 20.684 40.0002 20.7697 40.0002C20.9376 40.0002 21.1028 39.9338 21.2276 39.8082L26.0613 34.9469L35.1534 37.8093C35.2163 37.8291 35.2808 37.8389 35.345 37.8389C35.4836 37.8389 35.6205 37.7936 35.7346 37.7067C35.9015 37.5795 36 37.3785 36 37.1648V10.6741C36 10.432 35.8739 10.2085 35.6696 10.0886ZM20.2314 32.1922C20.1555 32.305 20.1148 32.4389 20.1148 32.576V36.6994L17.2443 31.3227L29.9466 17.7598L20.2314 32.1922ZM21.4249 37.7249V33.4872L24.6338 34.4975L21.4249 37.7249ZM34.69 36.2537L21.8189 32.2015L34.69 13.0808V36.2537Z" fill="#EB7E47"/>
<path d="M21.0329 19.1883C20.9111 19.063 20.7421 18.9908 20.5698 18.9908C20.3975 18.9908 20.2285 19.063 20.1067 19.1883C19.9849 19.3137 19.9148 19.4876 19.9148 19.6656C19.9148 19.8429 19.9849 20.0161 20.1067 20.1415C20.2285 20.2675 20.3975 20.339 20.5698 20.339C20.7421 20.339 20.9111 20.2675 21.0329 20.1415C21.1547 20.0161 21.2248 19.8429 21.2248 19.6656C21.2248 19.4876 21.1547 19.3137 21.0329 19.1883Z" fill="#EB7E47"/>
</g>
<defs>
<clipPath id="clip0">
<rect x="6" y="10" width="30" height="30" fill="white"/>
</clipPath>
</defs>
</svg>
