<svg width="12" height="14" viewBox="0 0 12 14" fill="none" xmlns="http://www.w3.org/2000/svg">
<path d="M1.12118 8.50405L5.5265 12.9094C5.65215 13.035 5.81979 13.104 6.00211 13.104C6.18086 13.104 6.34839 13.035 6.47404 12.9094L10.8795 8.50405C11.1397 8.24371 11.1397 7.82001 10.8795 7.55988L10.4795 7.1597C10.3538 7.03415 10.1862 6.96507 10.0074 6.96507C9.82861 6.96507 9.65522 7.03415 9.52967 7.1597L6.95392 9.72989L6.95392 1.56446C6.95392 1.19644 6.6657 0.896212 6.29768 0.896212H5.73195C5.36393 0.896212 5.04653 1.19644 5.04653 1.56446L5.04653 9.75887L2.45619 7.1597C2.33064 7.03415 2.16747 6.96507 1.98862 6.96507C1.80977 6.96507 1.64462 7.03415 1.51887 7.1597L1.12008 7.55988C0.859751 7.82011 0.860743 8.24371 1.12118 8.50405Z" fill="#42BDB1"/>
</svg>
