<svg width="30" height="30" viewBox="0 0 30 30" fill="none" xmlns="http://www.w3.org/2000/svg">
<path d="M25.6054 4.39548C31.4649 10.254 31.4649 19.746 25.6054 25.6045C19.7449 31.4652 10.2551 31.4652 4.39459 25.6045C-1.46486 19.746 -1.46486 10.254 4.39459 4.39548C10.2551 -1.46516 19.7459 -1.46516 25.6054 4.39548Z" fill="#5FD3C8"/>
<path d="M25.5224 4.39066C22.1191 1.04797 17.5141 -0.381695 13.0771 0.0866453C16.4248 0.438169 19.6774 1.86784 22.2446 4.39066C28.2151 10.2519 28.2151 19.7484 22.2446 25.6096C19.6763 28.1324 16.4248 29.5599 13.0771 29.9136C17.5141 30.3809 22.1191 28.9534 25.5224 25.6096C31.4928 19.7484 31.4928 10.2508 25.5224 4.39066Z" fill="#42BDB1"/>
<path d="M21.8857 9.83262C21.2764 9.22246 20.2857 9.22246 19.6764 9.83262L12.9686 16.5397L10.167 13.7389C9.55762 13.1287 8.56699 13.1287 7.95762 13.7389C7.34746 14.349 7.34746 15.3381 7.95762 15.9483L11.8639 19.8545C12.1686 20.16 12.5686 20.3123 12.9686 20.3123C13.3686 20.3123 13.7686 20.16 14.0732 19.8545L21.8857 12.042C22.4959 11.4318 22.4959 10.4428 21.8857 9.83262Z" fill="white"/>
</svg>
