<svg width="20" height="20" viewBox="0 0 20 20" fill="none" xmlns="http://www.w3.org/2000/svg">
<path d="M14.3392 7.32756C14.0142 7.00214 13.4858 7.00214 13.1608 7.32756L9.58333 10.9047L8.08916 9.4109C7.76416 9.08548 7.23583 9.08548 6.91083 9.4109C6.58541 9.73632 6.58541 10.2638 6.91083 10.5892L8.99416 12.6726C9.15666 12.8355 9.36999 12.9167 9.58333 12.9167C9.79666 12.9167 10.01 12.8355 10.1725 12.6726L14.3392 8.5059C14.6646 8.18048 14.6646 7.65298 14.3392 7.32756Z" fill="#5FD3C8"/>
<path d="M19.1667 9.16667C18.7067 9.16667 18.3333 9.54 18.3333 10C18.3333 14.595 14.595 18.3333 10 18.3333C5.405 18.3333 1.66667 14.595 1.66667 10C1.66667 5.405 5.405 1.66667 10 1.66667C12.2371 1.66667 14.3371 2.54083 15.9137 4.12833C16.2375 4.45542 16.7654 4.45708 17.0921 4.1325C17.4187 3.80833 17.4204 3.28083 17.0962 2.95417C15.2046 1.04917 12.6842 0 10 0C4.48583 0 0 4.48583 0 10C0 15.5142 4.48583 20 10 20C15.5142 20 20 15.5142 20 10C20 9.54 19.6267 9.16667 19.1667 9.16667Z" fill="#5FD3C8"/>
</svg>
