<!DOCTYPE svg PUBLIC "-//W3C//DTD SVG 20010904//EN" "http://www.w3.org/TR/2001/REC-SVG-20010904/DTD/svg10.dtd">
<svg version="1.0" xmlns="http://www.w3.org/2000/svg" width="512px" height="512px" viewBox="0 0 5120 5120" preserveAspectRatio="xMidYMid meet">
<g id="layer101" fill="#0090e1" stroke="none">
 <path d="M3990 4688 c-36 -13 -88 -39 -115 -59 -28 -20 -297 -217 -598 -437 l-548 -402 -310 298 c-327 314 -376 352 -455 352 -23 0 -45 -4 -48 -9 -4 -5 13 -277 36 -603 l42 -595 1097 -984 c603 -541 1103 -994 1110 -1006 7 -13 9 -26 5 -30 -13 -13 -81 -6 -115 11 -18 10 -641 398 -1384 863 -744 466 -1359 846 -1367 845 -43 -4 -1206 -374 -1250 -398 -69 -37 -90 -69 -90 -134 0 -68 19 -101 85 -149 69 -49 -41 -5 1620 -641 765 -293 1766 -676 2225 -852 459 -176 860 -327 890 -335 133 -36 257 25 289 142 14 52 14 185 0 277 -25 160 -772 3646 -790 3688 -68 156 -181 210 -329 158z"/>
 </g>

</svg>
