<svg
  xmlns="http://www.w3.org/2000/svg"
  width='29'
  height="24"
  viewBox="0 0 29 24"
>
  <path
    fill="#516FFA"
    fill-rule="evenodd"
    d="M26.032 5.977C26.407 14.5 20.167 24 9.12 24A16.62 16.62 0 0 1 0 21.278a11.81 11.81 0 0 0 8.808-2.51c-2.603-.048-4.8-1.8-5.557-4.207a5.863 5.863 0 0 0 2.686-.103c-2.862-.586-4.836-3.21-4.772-6.017.802.453 1.72.726 2.696.756C1.21 7.395.46 3.832 2.019 1.11 4.953 4.775 9.337 7.187 14.282 7.44 13.415 3.65 16.238 0 20.078 0a5.89 5.89 0 0 1 4.342 1.913 11.763 11.763 0 0 0 3.778-1.47 6.053 6.053 0 0 1-2.615 3.351A11.699 11.699 0 0 0 29 2.841a12.207 12.207 0 0 1-2.968 3.136z"
  />
</svg>
