<!DOCTYPE svg PUBLIC "-//W3C//DTD SVG 20010904//EN" "http://www.w3.org/TR/2001/REC-SVG-20010904/DTD/svg10.dtd">
<svg version="1.0" xmlns="http://www.w3.org/2000/svg" width="512px" height="512px" viewBox="0 0 5120 5120" preserveAspectRatio="xMidYMid meet">
<g id="layer101" fill="#6b9fe7" stroke="none">
 <path d="M1235 4685 c-375 -44 -681 -134 -1014 -298 -209 -103 -221 -113 -221 -181 0 -44 4 -57 26 -77 25 -23 32 -24 222 -30 112 -4 240 -14 297 -24 254 -44 504 -135 709 -258 l59 -35 -44 -12 c-95 -24 -148 -44 -241 -92 -253 -129 -446 -343 -544 -606 -30 -78 -30 -87 2 -118 24 -25 29 -26 97 -19 40 3 81 9 92 12 11 3 -6 -11 -38 -31 -315 -193 -517 -526 -534 -883 -6 -121 -2 -136 45 -154 18 -7 40 -2 94 22 137 60 176 68 128 24 -10 -9 -42 -51 -70 -91 -227 -328 -255 -772 -74 -1136 19 -37 43 -72 53 -78 48 -25 65 -15 187 119 469 520 1068 837 1766 937 64 9 124 14 131 11 12 -4 16 -41 19 -179 4 -146 9 -188 32 -272 107 -395 398 -680 806 -788 98 -26 325 -35 441 -18 172 25 342 95 484 200 109 81 134 93 180 92 65 -1 279 -77 440 -158 83 -41 155 -74 161 -74 26 0 64 42 64 70 0 80 -124 312 -223 418 -17 17 -27 32 -23 32 19 0 148 -42 216 -70 77 -32 128 -38 148 -18 25 25 14 93 -24 149 -67 99 -171 215 -308 345 -87 82 -139 139 -146 159 -6 18 -15 110 -20 206 -11 206 -31 355 -72 538 -101 453 -317 903 -609 1271 -106 134 -345 374 -475 477 -452 358 -985 568 -1579 623 -148 13 -504 11 -640 -5z"/>
 </g>

</svg>
