<svg width="50" height="50" viewBox="0 0 50 50" fill="none" xmlns="http://www.w3.org/2000/svg">
<circle cx="25" cy="25" r="25" fill="#EBEDFF"/>
<path d="M38.5 24H34V12.5C33.9983 11.1199 32.8801 10.0017 31.5 10H15C13.8955 10 13 10.8955 13 12V18H11.5C11.2239 18 11 18.2239 11 18.5V21.5C11 21.7761 11.2239 22 11.5 22H13V27.5C13 27.7761 13.2239 28 13.5 28H16V38C16 39.1045 16.8955 40 18 40H34.5C35.6045 40 36.5 39.1045 36.5 38C36.5 36.8955 35.6045 36 34.5 36H34V28H38.5C38.7761 28 39 27.7761 39 27.5V24.5C39 24.2239 38.7761 24 38.5 24ZM14 12C14 11.4478 14.4478 11 15 11C15.5522 11 16 11.4478 16 12V18H14V12ZM12 19H26C26.2515 19 26.4639 18.8135 26.4961 18.564L28.219 20L26.4961 21.436C26.4639 21.1865 26.2515 21 26 21H12V19ZM14 27V22H16V27H14ZM35.5 38C35.5 38.5522 35.0522 39 34.5 39H19.7314C19.908 38.6963 20.0005 38.3513 20 38V37H34.5C35.0522 37 35.5 37.4478 35.5 38ZM33 36H19.5C19.2239 36 19 36.2239 19 36.5V38C19 38.5522 18.5522 39 18 39C17.4478 39 17 38.5522 17 38V22H25.5V22.5C25.5 22.6941 25.6123 22.8708 25.7881 22.9531C25.9639 23.0354 26.1714 23.0085 26.3206 22.884L29.3206 20.384C29.4343 20.2891 29.5002 20.1484 29.5002 20C29.5002 19.8516 29.4343 19.7109 29.3206 19.616L26.3206 17.116C26.1714 16.9915 25.9639 16.9646 25.7881 17.0469C25.6123 17.1292 25.5 17.3059 25.5 17.5V18H17V12C16.9983 11.6479 16.9026 11.3027 16.7229 11H31.5C32.3284 11 33 11.6716 33 12.5V24H24.5V23.5C24.5 23.3059 24.3877 23.1292 24.2119 23.0469C24.0361 22.9646 23.8286 22.9915 23.6794 23.116L20.6794 25.616C20.5657 25.7109 20.4998 25.8516 20.4998 26C20.4998 26.1484 20.5657 26.2891 20.6794 26.384L23.6794 28.884C23.8286 29.0085 24.0361 29.0354 24.2119 28.9531C24.3877 28.8708 24.5 28.6941 24.5 28.5V28H33V36ZM38 27H24C23.9355 27.0002 23.8718 27.0132 23.8125 27.0381C23.7942 27.0476 23.7766 27.0583 23.7595 27.0701C23.7236 27.0886 23.6899 27.1113 23.6594 27.1379C23.6433 27.156 23.6284 27.175 23.615 27.1951C23.5906 27.2231 23.5698 27.2539 23.5525 27.2871C23.5427 27.3105 23.5352 27.335 23.5295 27.3601C23.519 27.3845 23.5107 27.4099 23.5049 27.436L21.781 26L23.5039 24.564C23.5098 24.5901 23.5181 24.6155 23.5286 24.6399C23.5339 24.665 23.5417 24.6895 23.5515 24.7129C23.5686 24.7461 23.5896 24.7769 23.614 24.8049C23.6274 24.825 23.6423 24.844 23.6584 24.8621C23.689 24.8887 23.7227 24.9114 23.7585 24.9299C23.7756 24.9417 23.7932 24.9524 23.8115 24.9619C23.8711 24.9871 23.9353 25 24 25H38V27Z" fill="#5269FF"/>
<path d="M19 13H24V14H19V13Z" fill="#5269FF"/>
<path d="M19 15H24V16H19V15Z" fill="#5269FF"/>
<path d="M21 32H31V33H21V32Z" fill="#5269FF"/>
<path d="M21 34H31V35H21V34Z" fill="#5269FF"/>
<path d="M28 30H31V31H28V30Z" fill="#5269FF"/>
</svg>
