<svg width="50" height="50" viewBox="0 0 50 50" fill="none" xmlns="http://www.w3.org/2000/svg">
<circle cx="25" cy="25" r="25" fill="#FBEBFF"/>
<g clip-path="url(#clip0)">
<path d="M36.8557 15.644L34.3557 13.144C34.1883 12.9764 33.9264 12.9493 33.7282 13.079L30.9502 14.9L27.9547 13.65L27.4952 10.429C27.4599 10.1828 27.2489 9.99994 27.0002 10H23.0002C22.7514 9.99994 22.5405 10.1828 22.5052 10.429L22.0452 13.65L19.0527 14.9L16.2742 13.08C16.076 12.9503 15.814 12.9774 15.6467 13.145L13.1467 15.645C12.9789 15.8128 12.9522 16.0754 13.0827 16.2735L14.9327 19.0835L14.6227 19.8L15.5407 20.197L15.9582 19.233C16.0252 19.0781 16.0096 18.8999 15.9167 18.759L14.1407 16.064L16.0652 14.1395L18.7262 15.8825C18.8655 15.9727 19.0402 15.9888 19.1937 15.9255L22.6937 14.46C22.8553 14.3915 22.9692 14.2433 22.9937 14.0695L23.4337 11H26.5667L27.0052 14.071C27.0297 14.2448 27.1435 14.393 27.3052 14.4615L30.8052 15.926C30.9584 15.9893 31.133 15.9732 31.2722 15.883L33.9342 14.141L35.8722 16.079L34.5722 18.279C34.4948 18.4094 34.4808 18.568 34.5342 18.71L35.0887 20.1745L36.0242 19.8205L35.5547 18.581L36.9322 16.252C37.0484 16.0556 37.0169 15.8054 36.8557 15.644Z" fill="#9714B8"/>
<path d="M30.3535 29.1465L28.8535 27.6465C28.7598 27.5527 28.6326 27.5 28.5 27.5H21.5C21.3674 27.5 21.2402 27.5527 21.1465 27.6465L19.6465 29.1465C19.5527 29.2402 19.5 29.3674 19.5 29.5V39.5C19.5 39.7761 19.7239 40 20 40H30C30.2761 40 30.5 39.7761 30.5 39.5V29.5C30.5 29.3674 30.4473 29.2402 30.3535 29.1465ZM26.707 28.5H28.293L26.5 30.293L25.707 29.5L26.707 28.5ZM25.793 31L25.1465 31.6465C25.0524 31.7401 24.9997 31.8673 25 32C24.9991 31.8686 24.9464 31.7429 24.8535 31.65L24.207 31L25 30.207L25.793 31ZM25.293 28.5L25 28.793L24.707 28.5H25.293ZM23.293 28.5L24.293 29.5L23.5 30.293L21.707 28.5H23.293ZM23.0625 39H20.5V29.707L21 29.207L23.1465 31.3535L23.9715 32.1785L23.0625 39ZM24.0715 39L24.9955 32.066C24.9985 32.0449 25 32.0238 25 32.0025C25.0001 32.0346 25.0034 32.0666 25.01 32.098L26.39 39H24.0715ZM29.5 39H27.41L26.043 32.1645L26.8535 31.3535L29 29.207L29.5 29.707V39Z" fill="#9714B8"/>
<path d="M28.5 16.5H24C22.3438 16.5016 21.0016 17.8438 21 19.5V22.5C21.0025 24.7081 22.7919 26.4975 25 26.5C27.2081 26.4975 28.9975 24.7081 29 22.5V17C29 16.7239 28.7761 16.5 28.5 16.5ZM28 22.5C28 24.1569 26.6569 25.5 25 25.5C23.3431 25.5 22 24.1569 22 22.5V20.5H26C26.739 20.4998 27.4517 20.2254 28 19.73V22.5ZM26 19.5H22C22 18.3954 22.8954 17.5 24 17.5H28C28 18.6046 27.1046 19.5 26 19.5Z" fill="#9714B8"/>
<path d="M39.8535 31.1465L38.3535 29.6465C38.2597 29.5527 38.1326 29.5 38 29.5H34C33.8674 29.5 33.7402 29.5527 33.6465 29.6465L32.1465 31.1465C32.0527 31.2402 32 31.3674 32 31.5V39.5C32 39.7761 32.2239 40 32.5 40H39.5C39.7761 40 40 39.7761 40 39.5V31.5C40 31.3674 39.9472 31.2402 39.8535 31.1465ZM39 39H36.5V31.5H35.5V39H33V31.707L34 30.707L35.1465 31.8535L35.5 31.5L35.8535 31.1465L35.207 30.5H36.8325L36.157 31.1355L36.5 31.5L36.843 31.8645L38.035 30.742L39 31.707V39Z" fill="#9714B8"/>
<path d="M36.5 21H35.5164C34.1402 21.0027 33.0239 22.1152 33.0164 23.4915L33.0084 25.995C33.0029 27.6491 34.3393 28.9944 35.9934 29C35.9968 29 36.0001 29 36.0034 29C37.657 28.9981 38.9972 27.6586 39 26.005V23.5C38.9983 22.12 37.88 21.0016 36.5 21ZM34.0164 23.495C34.0191 22.6749 34.6799 22.009 35.4999 22C35.5 22.822 34.8384 23.4909 34.0164 23.5V23.495ZM38 26.0035C37.998 27.1047 37.1062 27.9972 36.0049 28C34.9031 28 34.0099 27.1068 34.0099 26.005C34.0099 26.0033 34.0099 26.0017 34.0099 26L34.0149 24.5C34.7966 24.4953 35.531 24.1253 35.9999 23.5C36.4721 24.1295 37.2131 24.5 38 24.5V26.0035ZM36.5 22C37.3284 22 38 22.6716 38 23.5C37.1715 23.5 36.5 22.8284 36.5 22Z" fill="#9714B8"/>
<path d="M17.8535 31.1465L16.3535 29.6465C16.2597 29.5527 16.1326 29.5 16 29.5H12C11.8674 29.5 11.7402 29.5527 11.6465 29.6465L10.1465 31.1465C10.0528 31.2402 10 31.3674 10 31.5V39.5C10 39.7761 10.2239 40 10.5 40H17.5C17.7761 40 18 39.7761 18 39.5V31.5C18 31.3674 17.9472 31.2402 17.8535 31.1465ZM17 39H14.5V31.5H13.5V39H11V31.707L12 30.707L13.1465 31.8535L13.5 31.5L13.8535 31.1465L13.207 30.5H14.8325L14.157 31.1355L14.5 31.5L14.843 31.8645L16.035 30.742L17 31.707V39Z" fill="#9714B8"/>
<path d="M14.4999 21H13.5164C12.1402 21.0027 11.0239 22.1152 11.0164 23.4915L11.0084 25.995C11.0029 27.6491 12.3393 28.9944 13.9934 29C13.9968 29 14.0001 29 14.0034 29C15.657 28.9981 16.9972 27.6586 16.9999 26.005V23.5C16.9983 22.12 15.8799 21.0016 14.4999 21ZM14.4999 22C15.1333 22.0026 15.6968 22.4028 15.9079 23H14.9999C14.3666 22.9974 13.8031 22.5972 13.5919 22H14.4999ZM12.4999 22.404V22.4955C12.5006 22.6286 12.4474 22.7562 12.3524 22.8495C12.2874 22.9127 12.2058 22.9561 12.1169 22.9745C12.1988 22.7572 12.3299 22.562 12.4999 22.404ZM15.9999 26.005C15.9972 27.1057 15.1056 27.9972 14.0049 28C12.9031 28 12.0099 27.1068 12.0099 26.005C12.0099 26.0033 12.0099 26.0017 12.0099 26L12.0164 23.996C12.4079 23.9938 12.7827 23.8373 13.0594 23.5605C13.1385 23.4804 13.2084 23.3919 13.2679 23.2965C13.7319 23.7472 14.3531 23.9995 14.9999 24H15.9999V26.005Z" fill="#9714B8"/>
</g>
<defs>
<clipPath id="clip0">
<rect x="10" y="10" width="30" height="30" fill="white"/>
</clipPath>
</defs>
</svg>
