<svg width="640" height="277" viewBox="0 0 640 277" fill="none" xmlns="http://www.w3.org/2000/svg">
<path d="M641.519 144.236L560.356 223.025L730.359 254.422L641.519 144.236Z" fill="#5269FF" fill-opacity="0.1"/>
<path d="M672.369 121.528L519.859 229.465L683.395 236.05L672.369 121.528Z" fill="#5269FF" fill-opacity="0.1"/>
<path d="M497.324 37.7386L489.191 78.9776L569.45 70.0313L497.324 37.7386Z" fill="#5269FF" fill-opacity="0.1"/>
<path d="M52.5321 238.403L-4.39746 253.088L17.9667 260.438L52.5321 238.403Z" fill="#5269FF" fill-opacity="0.3"/>
<path d="M653.757 49.5547L687.441 -106.415L594.853 -12.0452L653.757 49.5547Z" fill="#5269FF" fill-opacity="0.1"/>
<path d="M654.29 48.661L676.887 -58.8708L516.062 0.921159L654.29 48.661Z" fill="#5269FF" fill-opacity="0.1"/>
<path d="M576.035 55.8572L602.278 -11.4204L545.879 19.5287L576.035 55.8572Z" fill="#5269FF" fill-opacity="0.3"/>
<path d="M597.801 102.789L706.133 52.1697L660.256 36.5871L597.801 102.789Z" fill="#5269FF" fill-opacity="0.3"/>
<path d="M50.9938 -61.3808L-114.212 -98.9773L-16.6694 -8.61814L50.9938 -61.3808Z" fill="#5269FF" fill-opacity="0.1"/>
<path d="M50.0685 -61.9098L-28.0573 -103.682L-5.46851 65.6686L50.0685 -61.9098Z" fill="#5269FF" fill-opacity="0.1"/>
<path d="M93.3452 -3.2036L-83.9347 -71.2059L-6.08743 63.8897L93.3452 -3.2036Z" fill="#5269FF" fill-opacity="0.1"/>
<path d="M120.114 93.3478L103.456 80.8155L61.8071 103.609L120.114 93.3478Z" fill="#5269FF" fill-opacity="0.1"/>
<path d="M102.601 61.7825L34.1519 -68.6462L20.3134 -19.8456L102.601 61.7825Z" fill="#5269FF" fill-opacity="0.3"/>
<path d="M95.6061 35.3843L177.256 8.8414L108.998 -4.71356L95.6061 35.3843Z" fill="#5269FF" fill-opacity="0.3"/>
<path d="M11.6559 165.356L47.2569 153.587L2.90607 121.567L11.6559 165.356Z" fill="#5269FF" fill-opacity="0.1"/>
<path d="M0.531002 288.665L91.2035 272.924L22.0749 237.107L0.531002 288.665Z" fill="#5269FF" fill-opacity="0.1"/>
<path d="M650.392 330.35L704.087 263.675L552.241 212.685L650.392 330.35Z" fill="#5269FF" fill-opacity="0.3"/>
<path d="M-45.291 -1.45022L87.519 73.6821L70.9373 25.5598L-45.291 -1.45022Z" fill="#5269FF" fill-opacity="0.1"/>
</svg>
