<svg width="10" height="10" viewBox="0 0 10 10" fill="none" xmlns="http://www.w3.org/2000/svg">
<path d="M8.8559 9.56995C8.67313 9.56995 8.49036 9.50023 8.35091 9.36063L1.20928 2.21903C0.93024 1.93999 0.93024 1.4881 1.20928 1.20922C1.48816 0.930336 1.94021 0.930184 2.21909 1.20922L9.36073 8.35082C9.63977 8.62986 9.63977 9.08175 9.36073 9.36063C9.22129 9.50023 9.03867 9.56995 8.8559 9.56995Z" fill="white" stroke="white" stroke-width="0.5"/>
<path d="M1.71411 9.57C1.53134 9.57 1.34872 9.50028 1.20928 9.36068C0.930241 9.0818 0.930241 8.62976 1.20928 8.35087L8.35091 1.20928C8.62995 0.930241 9.08184 0.930241 9.36073 1.20928C9.63961 1.48816 9.63976 1.9402 9.36073 2.21909L2.21909 9.36068C2.07965 9.50028 1.89688 9.57 1.71411 9.57Z" fill="white" stroke="white" stroke-width="0.5"/>
</svg>
